{
.appVersion = "1264";
DisplayStrings = (
"0</greater_equal.liga 0/less_equal.liga"
);
classes = (
{
automatic = 1;
code = "A B C D E F G H I J K L M N O P Q R S T U V W X Y Z";
name = Uppercase;
},
{
automatic = 1;
code = "a b c d e f g h i j k l m n o p q r s t u v w x y z x.multiply";
name = Lowercase;
},
{
code = "bracketleft braceleft parenleft";
name = OpeningBracket;
},
{
code = "zero one two three four five six seven eight nine";
name = Digit;
},
{
code = "@Digit a b c d e f A B C D E F";
name = HexDigit;
},
{
code = "bracketright braceright parenright";
name = ClosingBracket;
},
{
code = "@Uppercase @Digit @OpeningBracket @ClosingBracket bar";
name = Tall;
}
);
copyright = "Copyright © 2019 – Saja Typeworks";
customParameters = (
{
name = vendorID;
value = SAJA;
},
{
name = "GASP Table";
value = {
"20" = 7;
"65535" = 15;
"8" = 10;
};
},
{
name = note;
value = "#Macro to convert the ligatures from editable to production mode\012\012def ligatureProcess(production):\012	for glyph in Glyphs.font.glyphs:\012		if glyph.color == 3: #2 width\012			if production == True:\012				glyph.layers[0].LSB = glyph.layers[0].LSB - 1200\012			if production == False:\012				glyph.layers[0].LSB = glyph.layers[0].LSB + 1200\012\012		elif glyph.color == 4: #3 width\012			if production == True:\012				glyph.layers[0].LSB = glyph.layers[0].LSB - 2400\012			if production == False:\012				glyph.layers[0].LSB = glyph.layers[0].LSB + 2400\012\012		elif glyph.color == 9: #4 width\012			if production == True:\012				glyph.layers[0].LSB = glyph.layers[0].LSB - 3600\012			if production == False:\012				glyph.layers[0].LSB = glyph.layers[0].LSB + 3600		\012		\012\012ligatureProcess(True) #True for production mode, False for editable";
},
{
name = isFixedPitch;
value = 1;
},
{
name = glyphOrder;
value = (
A,
B,
C,
D,
E,
F,
G,
H,
I,
J,
K,
L,
M,
N,
O,
P,
Q,
R,
S,
T,
U,
V,
W,
X,
Y,
Z,
a,
b,
c,
d,
e,
f,
g,
h,
i,
j,
k,
l,
m,
n,
o,
p,
q,
r,
s,
t,
u,
v,
w,
x,
y,
z,
x.multiply,
w_w_w.liga,
zero,

glyphs = (
{
glyphname = A;
lastChange = "2019-08-28 00:25:44 +0000";
layers = (
{
layerId = "BBAB2DB2-7554-4FB8-925D-17003E4845F8";
paths = (
{
closed = 1;
nodes = (
"252 0 LINE",
"588 1248 LINE",
"606 1248 LINE",
"942 0 LINE",
"1152 0 LINE",
"742 1420 LINE",
"452 1420 LINE",
"42 0 LINE"
);
},
{
closed = 1;
nodes = (
"952 346 LINE",
"952 536 LINE",
"232 536 LINE",
"232 346 LINE"
);
}
);
width = 1200;
}
);
unicode = 0041;
},
{
glyphname = B;
lastChange = "2019-08-28 00:26:40 +0000";
layers = (
{
background = {
paths = (
{
closed = 1;
nodes = (
"286 810 LINE",
"286 680 LINE",
"664 680 LINE SMOOTH",
"938 680 OFFCURVE",
"1094 810 OFFCURVE",
"1094 1040 CURVE SMOOTH",
"1094 1282 OFFCURVE",
"930 1420 OFFCURVE",
"642 1420 CURVE SMOOTH",
"266 1420 LINE",
"290 1230 LINE",
"592 1230 LINE SMOOTH",
"772 1230 OFFCURVE",
"874 1154 OFFCURVE",
"874 1020 CURVE SMOOTH",
"874 886 OFFCURVE",
"776 810 OFFCURVE",
"606 810 CURVE SMOOTH"
);
},
{
closed = 1;
nodes = (
"286 190 LINE",
"286 0 LINE",
"664 0 LINE SMOOTH",
"938 0 OFFCURVE",
"1094 138 OFFCURVE",
"1094 380 CURVE SMOOTH",
"1094 610 OFFCURVE",
"930 740 OFFCURVE",
"642 740 CURVE SMOOTH",
"266 740 LINE",
"290 610 LINE",
"592 610 LINE SMOOTH",
"772 610 OFFCURVE",
"874 534 OFFCURVE",
"874 400 CURVE SMOOTH",
"874 266 OFFCURVE",
"776 190 OFFCURVE",
"606 190 CURVE SMOOTH"
);
}
);
};
layerId = "BBAB2DB2-7554-4FB8-925D-17003E4845F8";
paths = (
{
closed = 1;
nodes = (
"704 0 LINE SMOOTH",
"978 0 OFFCURVE",
"1134 146 OFFCURVE",
"1134 400 CURVE SMOOTH",
"1134 620 OFFCURVE",
"970 746 OFFCURVE",
"682 746 CURVE SMOOTH",
"326 746 LINE",
"350 655 LINE",
"632 655 LINE SMOOTH",
"818 655 OFFCURVE",
"924 569 OFFCURVE",
"924 420 CURVE SMOOTH",
"924 274 OFFCURVE",
"822 190 OFFCURVE",
"646 190 CURVE SMOOTH",
"346 190 LINE",
"346 0 LINE"
);
},
{
closed = 1;
nodes = (
"360 0 LINE",
"360 1420 LINE",
"160 1420 LINE",
"160 0 LINE"
);
},
{
closed = 1;
nodes = (
"694 698 LINE",
"694 796 LINE",
"278 796 LINE",
"278 698 LINE"
);
},
{
closed = 1;
nodes = (
"604 754 LINE SMOOTH",
"878 754 OFFCURVE",
"1034 864 OFFCURVE",
"1034 1060 CURVE SMOOTH",
"1034 1290 OFFCURVE",
"870 1420 OFFCURVE",
"582 1420 CURVE SMOOTH",
"326 1420 LINE",
"350 1230 LINE",
"532 1230 LINE SMOOTH",
"718 1230 OFFCURVE",
"824 1162 OFFCURVE",
"824 1040 CURVE SMOOTH",
"824 915 OFFCURVE",
"722 845 OFFCURVE",
"546 845 CURVE SMOOTH",
"346 845 LINE",
"346 754 LINE"
);
}
);
width = 1200;
}
);
unicode = 0042;
},
{
glyphname = C;
lastChange = "2019-08-15 16:18:04 +0000";
layers = (
{
associatedMasterId = "BBAB2DB2-7554-4FB8-925D-17003E4845F8";
background = {
paths = (
{
closed = 1;
nodes = (
"924 1262 LINE",
"876 1262 LINE",
"832 1382 OFFCURVE",
"742 1440 OFFCURVE",
"604 1440 CURVE SMOOTH",
"264 1440 OFFCURVE",
"96 1200 OFFCURVE",
"96 712 CURVE SMOOTH",
"96 224 OFFCURVE",
"304 -20 OFFCURVE",
"722 -20 CURVE SMOOTH",
"896 -20 OFFCURVE",
"1044 -6 OFFCURVE",
"1100 0 CURVE",
"1022 180 LINE",
"962 174 OFFCURVE",
"868 170 OFFCURVE",
"746 170 CURVE SMOOTH",
"460 170 OFFCURVE",
"316 354 OFFCURVE",
"316 722 CURVE SMOOTH",
"316 1076 OFFCURVE",
"426 1250 OFFCURVE",
"646 1250 CURVE SMOOTH",
"816 1250 OFFCURVE",
"898 1162 OFFCURVE",
"898 982 CURVE"
);
}
);
};
layerId = "257A9851-A137-44EF-B639-FE427F030DC7";
name = "Apr 15 19, 22:20";
paths = (
{
closed = 1;
nodes = (
"924 1262 LINE",
"1100 1420 LINE",
"1000 1440 OFFCURVE",
"900 1440 OFFCURVE",
"824 1440 CURVE SMOOTH",
"364 1440 OFFCURVE",
"136 1206 OFFCURVE",
"136 732 CURVE SMOOTH",
"136 230 OFFCURVE",
"356 -20 OFFCURVE",
"802 -20 CURVE SMOOTH",
"916 -20 OFFCURVE",
"1002 -16 OFFCURVE",
"1058 -10 CURVE",
"1082 180 LINE",
"1026 174 OFFCURVE",
"940 170 OFFCURVE",
"826 170 CURVE SMOOTH",
"512 170 OFFCURVE",
"356 360 OFFCURVE",
"356 742 CURVE SMOOTH",
"356 1082 OFFCURVE",
"512 1250 OFFCURVE",
"826 1250 CURVE SMOOTH",
"908 1250 OFFCURVE",
"928 1240 OFFCURVE",
"958 1222 CURVE"
);
},
{
closed = 1;
nodes = (
"1100 982 LINE",
"1100 1420 LINE",
"900 1420 LINE",
"898 982 LINE"
);
}
);
width = 1200;
},
{
associatedMasterId = "BBAB2DB2-7554-4FB8-925D-17003E4845F8";
background = {
paths = (
{
closed = 1;
nodes = (
"1030 1392 LINE",
"958 1416 OFFCURVE",
"874 1440 OFFCURVE",
"724 1440 CURVE SMOOTH",
"350 1440 OFFCURVE",
"136 1170 OFFCURVE",
"136 702 CURVE SMOOTH",
"136 238 OFFCURVE",
"350 -20 OFFCURVE",
"722 -20 CURVE SMOOTH",
"810 -20 OFFCURVE",
"902 -20 OFFCURVE",
"990 10 CURVE",
"1014 200 LINE",
"926 170 OFFCURVE",
"838 170 OFFCURVE",
"746 170 CURVE SMOOTH",
"496 170 OFFCURVE",
"356 360 OFFCURVE",
"356 712 CURVE SMOOTH",
"356 1054 OFFCURVE",
"484 1250 OFFCURVE",
"706 1250 CURVE SMOOTH",
"844 1250 OFFCURVE",
"900 1234 OFFCURVE",
"976 1206 CURVE"
);
}
);
};
layerId = "8066D411-3C2E-43E9-8D1A-889158BD9E5D";
name = "Apr 16 19, 00:12";
paths = (
{
closed = 1;
nodes = (
"1090 1392 LINE",
"1018 1416 OFFCURVE",
"934 1440 OFFCURVE",
"784 1440 CURVE SMOOTH",
"372 1440 OFFCURVE",
"136 1170 OFFCURVE",
"136 702 CURVE SMOOTH",
"136 238 OFFCURVE",
"372 -20 OFFCURVE",
"782 -20 CURVE SMOOTH",
"870 -20 OFFCURVE",
"962 -20 OFFCURVE",
"1050 10 CURVE",
"1074 200 LINE",
"986 170 OFFCURVE",
"898 170 OFFCURVE",
"806 170 CURVE SMOOTH",
"518 170 OFFCURVE",
"356 360 OFFCURVE",
"356 712 CURVE SMOOTH",
"356 1054 OFFCURVE",
"506 1250 OFFCURVE",
"766 1250 CURVE SMOOTH",
"904 1250 OFFCURVE",
"960 1234 OFFCURVE",
"1036 1206 CURVE"
);
}
);
width = 1200;
},
{
associatedMasterId = "BBAB2DB2-7554-4FB8-925D-17003E4845F8";
background = {
paths = (
{
closed = 1;
nodes = (
"1030 1392 LINE",
"958 1416 OFFCURVE",
"874 1440 OFFCURVE",
"724 1440 CURVE SMOOTH",
"350 1440 OFFCURVE",
"136 1170 OFFCURVE",
"136 702 CURVE SMOOTH",
"136 238 OFFCURVE",
"350 -20 OFFCURVE",
"722 -20 CURVE SMOOTH",
"810 -20 OFFCURVE",
"902 -20 OFFCURVE",
"990 10 CURVE",
"1014 200 LINE",
"926 170 OFFCURVE",
"838 170 OFFCURVE",
"746 170 CURVE SMOOTH",
"496 170 OFFCURVE",
"356 360 OFFCURVE",
"356 712 CURVE SMOOTH",
"356 1054 OFFCURVE",
"484 1250 OFFCURVE",
"706 1250 CURVE SMOOTH",
"844 1250 OFFCURVE",
"900 1234 OFFCURVE",
"976 1206 CURVE"
);
}
);
};
layerId = "065AB286-FDFE-476F-927B-3225F7154559";
name = "Apr 16 19, 00:25";
paths = (
{
closed = 1;
nodes = (
"924 1242 LINE",
"876 1242 LINE",
"832 1376 OFFCURVE",
"742 1440 OFFCURVE",
"604 1440 CURVE SMOOTH",
"306 1440 OFFCURVE",
"136 1174 OFFCURVE",
"136 712 CURVE SMOOTH",
"136 224 OFFCURVE",
"344 -20 OFFCURVE",
"762 -20 CURVE SMOOTH",
"866 -20 OFFCURVE",
"964 -10 OFFCURVE",
"1058 8 CURVE",
"1082 200 LINE",
"1004 180 OFFCURVE",
"906 170 OFFCURVE",
"786 170 CURVE SMOOTH",
"500 170 OFFCURVE",
"356 354 OFFCURVE",
"356 722 CURVE SMOOTH",
"356 1058 OFFCURVE",
"476 1250 OFFCURVE",
"686 1250 CURVE SMOOTH",
"828 1250 OFFCURVE",
"898 1162 OFFCURVE",
"898 982 CURVE"
);
},
{
closed = 1;
nodes = (
"1100 982 LINE",
"1100 1420 LINE",
"900 1420 LINE",
"898 982 LINE"
);
}
);
width = 1200;
},
{
associatedMasterId = "BBAB2DB2-7554-4FB8-925D-17003E4845F8";
background = {
paths = (
{
closed = 1;
nodes = (
"1030 1392 LINE",
"958 1416 OFFCURVE",
"874 1440 OFFCURVE",
"724 1440 CURVE SMOOTH",
"350 1440 OFFCURVE",
"136 1170 OFFCURVE",
"136 702 CURVE SMOOTH",
"136 238 OFFCURVE",
"350 -20 OFFCURVE",
"722 -20 CURVE SMOOTH",
"810 -20 OFFCURVE",
"902 -20 OFFCURVE",
"990 10 CURVE",
"1014 200 LINE",
"926 170 OFFCURVE",
"838 170 OFFCURVE",
"746 170 CURVE SMOOTH",
"496 170 OFFCURVE",
"356 360 OFFCURVE",
"356 712 CURVE SMOOTH",
"356 1054 OFFCURVE",
"484 1250 OFFCURVE",
"706 1250 CURVE SMOOTH",
"844 1250 OFFCURVE",
"900 1234 OFFCURVE",
"976 1206 CURVE"
);
}
);
};
layerId = "9B4D2290-DE66-48B1-95DB-513A380E2E52";
name = "May 17 19, 08:15";
paths = (
{
closed = 1;
nodes = (
"944 1262 LINE",
"886 1262 LINE",
"886 1432 OFFCURVE",
"706 1440 OFFCURVE",
"644 1440 CURVE SMOOTH",
"320 1440 OFFCURVE",
"136 1174 OFFCURVE",
"136 712 CURVE SMOOTH",
"136 224 OFFCURVE",
"344 -20 OFFCURVE",
"762 -20 CURVE SMOOTH",
"866 -20 OFFCURVE",
"964 -10 OFFCURVE",
"1058 8 CURVE",
"1082 200 LINE",
"1004 180 OFFCURVE",
"906 170 OFFCURVE",
"786 170 CURVE SMOOTH",
"500 170 OFFCURVE",
"356 354 OFFCURVE",
"356 722 CURVE SMOOTH",
"356 1058 OFFCURVE",
"484 1250 OFFCURVE",
"706 1250 CURVE SMOOTH",
"834 1250 OFFCURVE",
"898 1188 OFFCURVE",
"898 1062 CURVE"
);
},
{
closed = 1;
nodes = (
"1100 982 LINE",
"1100 1420 LINE",
"900 1420 LINE",
"898 982 LINE"
);
}
);
width = 1200;
},
{
background = {
paths = (
{
closed = 1;
nodes = (
"1030 1392 LINE",
"958 1416 OFFCURVE",
"874 1440 OFFCURVE",
"724 1440 CURVE SMOOTH",
"350 1440 OFFCURVE",
"136 1170 OFFCURVE",
"136 702 CURVE SMOOTH",
"136 238 OFFCURVE",
"350 -20 OFFCURVE",
"722 -20 CURVE SMOOTH",
"810 -20 OFFCURVE",
"902 -20 OFFCURVE",
"990 10 CURVE",
"1014 200 LINE",
"926 170 OFFCURVE",
"838 170 OFFCURVE",
"746 170 CURVE SMOOTH",
"496 170 OFFCURVE",
"356 360 OFFCURVE",
"356 712 CURVE SMOOTH",
"356 1054 OFFCURVE",
"484 1250 OFFCURVE",
"706 1250 CURVE SMOOTH",
"844 1250 OFFCURVE",
"900 1234 OFFCURVE",
"976 1206 CURVE"
);
}
);
};
layerId = "BBAB2DB2-7554-4FB8-925D-17003E4845F8";
paths = (
{
closed = 1;
nodes = (
"884 -20 OFFCURVE",
"1006 2 OFFCURVE",
"1124 48 CURVE",
"1078 224 LINE",
"984 184 OFFCURVE",
"890 164 OFFCURVE",
"792 164 CURVE SMOOTH",
"472 164 OFFCURVE",
"310 350 OFFCURVE",
"310 722 CURVE SMOOTH",
"310 1064 OFFCURVE",
"470 1258 OFFCURVE",
"716 1258 CURVE SMOOTH",
"852 1258 OFFCURVE",
"924 1208 OFFCURVE",
"924 1102 CURVE",
"1120 1102 LINE",
"1120 1426 OFFCURVE",
"816 1440 OFFCURVE",
"714 1440 CURVE SMOOTH",
"320 1440 OFFCURVE",
"96 1174 OFFCURVE",
"96 712 CURVE SMOOTH",
"96 224 OFFCURVE",
"318 -20 OFFCURVE",
"758 -20 CURVE SMOOTH"
);
}
);
width = 1200;
}
);
unicode = 0043;
},
{
glyphname = D;
lastChange = "2019-08-28 00:36:44 +0000";
layers = (
{
layerId = "BBAB2DB2-7554-4FB8-925D-17003E4845F8";
paths = (
{
closed = 1;
nodes = (
"504 0 LINE SMOOTH",
"938 0 OFFCURVE",
"1154 222 OFFCURVE",
"1154 670 CURVE SMOOTH",
"1154 1172 OFFCURVE",
"938 1420 OFFCURVE",
"504 1420 CURVE SMOOTH",
"326 1420 LINE",
"350 1230 LINE",
"504 1230 LINE SMOOTH",
"796 1230 OFFCURVE",
"944 1051 OFFCURVE",
"944 690 CURVE SMOOTH",
"944 357 OFFCURVE",
"796 190 OFFCURVE",
"504 190 CURVE SMOOTH",
"346 190 LINE",
"346 0 LINE"
);
},
{
closed = 1;
nodes = (
"360 0 LINE",
"360 1420 LINE",
"160 1420 LINE",
"160 0 LINE"
);
}
);
width = 1200;
}
);
unicode = 0044;
},
{
glyphname = E;
lastChange = "2019-08-28 00:25:37 +0000";
layers = (
{
layerId = "BBAB2DB2-7554-4FB8-925D-17003E4845F8";
paths = (
{
closed = 1;
nodes = (
"360 0 LINE",
"360 1420 LINE",
"160 1420 LINE",
"160 0 LINE"
);
},
{
closed = 1;
nodes = (
"1100 0 LINE",
"1100 190 LINE",
"160 190 LINE",
"160 0 LINE"
);
},
{
closed = 1;
nodes = (
"920 616 LINE",
"920 806 LINE",
"160 806 LINE",
"160 616 LINE"
);
},
{
closed = 1;
nodes = (
"1100 1230 LINE",
"1100 1420 LINE",
"160 1420 LINE",
"160 1230 LINE"
);
}
);
width = 1200;
}
);
unicode = 0045;
},
{
glyphname = F;
lastChange = "2019-08-28 00:26:59 +0000";
layers = (
{
background = {
paths = (
{
closed = 1;
nodes = (
"368 0 LINE",
"372 1420 LINE",
"160 1420 LINE",
"160 0 LINE"
);
},
{
closed = 1;
nodes = (
"1040 1244 LINE",
"1040 1420 LINE",
"162 1420 LINE",
"160 1244 LINE"
);
},
{
closed = 1;
nodes = (
"860 522 LINE",
"860 698 LINE",
"202 698 LINE",
"200 522 LINE"
);
}
);
};
layerId = "BBAB2DB2-7554-4FB8-925D-17003E4845F8";
paths = (
{
closed = 1;
nodes = (
"360 0 LINE",
"360 1420 LINE",
"160 1420 LINE",
"160 0 LINE"
);
},
{
closed = 1;
nodes = (
"920 556 LINE",
"920 746 LINE",
"160 746 LINE",
"160 556 LINE"
);
},
{
closed = 1;
nodes = (
"1100 1230 LINE",
"1100 1420 LINE",
"160 1420 LINE",
"160 1230 LINE"
);
}
);
width = 1200;
}
);
unicode = 0046;
},
{
glyphname = G;
lastChange = "2019-08-28 00:24:52 +0000";
layers = (
{
associatedMasterId = "BBAB2DB2-7554-4FB8-925D-17003E4845F8";
background = {
components = (
{
name = C;
}
);
};
layerId = "32207DE6-90DD-4152-96B0-5B8EF384241F";
name = "Apr 16 19, 00:12";
paths = (
{
closed = 1;
nodes = (
"1090 1392 LINE",
"1018 1428 OFFCURVE",
"870 1440 OFFCURVE",
"784 1440 CURVE SMOOTH",
"372 1440 OFFCURVE",
"136 1174 OFFCURVE",
"136 712 CURVE SMOOTH",
"136 224 OFFCURVE",
"324 -20 OFFCURVE",
"702 -20 CURVE SMOOTH",
"886 -20 OFFCURVE",
"1042 22 OFFCURVE",
"1100 40 CURVE",
"1022 220 LINE",
"958 214 OFFCURVE",
"858 170 OFFCURVE",
"726 170 CURVE SMOOTH",
"480 170 OFFCURVE",
"356 354 OFFCURVE",
"356 722 CURVE SMOOTH",
"356 1058 OFFCURVE",
"506 1250 OFFCURVE",
"766 1250 CURVE SMOOTH",
"876 1250 OFFCURVE",
"928 1244 OFFCURVE",
"1036 1206 CURVE"
);
},
{
closed = 1;
nodes = (
"1100 40 LINE",
"1100 718 LINE",
"900 718 LINE",
"898 40 LINE"
);
},
{
closed = 1;
nodes = (
"1094 542 LINE",
"1094 718 LINE",
"682 718 LINE",
"680 542 LINE"
);
}
);
width = 1200;
},
{
associatedMasterId = "BBAB2DB2-7554-4FB8-925D-17003E4845F8";
background = {
components = (
{
name = C;
}
);
};
layerId = "150B0BC5-5EF8-4C40-87A2-BAEF4B0E45CE";
name = "May 17 19, 08:15";
paths = (
{
closed = 1;
nodes = (
"958 1262 LINE",
"886 1262 LINE",
"886 1382 OFFCURVE",
"806 1440 OFFCURVE",
"644 1440 CURVE SMOOTH",
"320 1440 OFFCURVE",
"136 1174 OFFCURVE",
"136 712 CURVE SMOOTH",
"136 224 OFFCURVE",
"344 -20 OFFCURVE",
"762 -20 CURVE SMOOTH",
"918 -20 OFFCURVE",
"1050 22 OFFCURVE",
"1100 40 CURVE",
"1022 220 LINE",
"970 202 OFFCURVE",
"892 170 OFFCURVE",
"786 170 CURVE SMOOTH",
"500 170 OFFCURVE",
"356 354 OFFCURVE",
"356 722 CURVE SMOOTH",
"356 1058 OFFCURVE",
"476 1250 OFFCURVE",
"686 1250 CURVE SMOOTH",
"828 1250 OFFCURVE",
"898 1188 OFFCURVE",
"898 1062 CURVE"
);
},
{
closed = 1;
nodes = (
"1100 40 LINE",
"1100 718 LINE",
"900 718 LINE",
"898 40 LINE"
);
},
{
closed = 1;
nodes = (
"1094 542 LINE",
"1094 718 LINE",
"682 718 LINE",
"680 542 LINE"
);
},
{
closed = 1;
nodes = (
"1100 982 LINE",
"1100 1420 LINE",
"900 1420 LINE",
"898 982 LINE"
);
}
);
width = 1200;
},
{
background = {
components = (
{
name = C;
}
);
};
layerId = "BBAB2DB2-7554-4FB8-925D-17003E4845F8";
paths = (
{
closed = 1;
nodes = (
"912 -20 OFFCURVE",
"1064 22 OFFCURVE",
"1120 40 CURVE",
"1042 214 LINE",
"980 196 OFFCURVE",
"882 164 OFFCURVE",
"756 164 CURVE SMOOTH",
"460 164 OFFCURVE",
"310 350 OFFCURVE",
"310 722 CURVE SMOOTH",
"310 1062 OFFCURVE",
"452 1256 OFFCURVE",
"696 1256 CURVE SMOOTH",
"848 1256 OFFCURVE",
"924 1206 OFFCURVE",
"924 1102 CURVE",
"1120 1102 LINE",
"1120 1328 OFFCURVE",
"984 1440 OFFCURVE",
"714 1440 CURVE SMOOTH",
"322 1440 OFFCURVE",
"96 1174 OFFCURVE",
"96 712 CURVE SMOOTH",
"96 224 OFFCURVE",
"308 -20 OFFCURVE",
"732 -20 CURVE SMOOTH"
);
},
{
closed = 1;
nodes = (
"1120 40 LINE",
"1120 710 LINE",
"930 710 LINE",
"930 40 LINE"
);
},
{
closed = 1;
nodes = (
"1114 520 LINE",
"1114 710 LINE",
"640 710 LINE",
"640 520 LINE"
);
}
);
width = 1200;
}
);
unicode = 0047;
},
{
glyphname = H;
lastChange = "2019-08-28 00:29:29 +0000";
layers = (
{
layerId = "BBAB2DB2-7554-4FB8-925D-17003E4845F8";
paths = (
{
closed = 1;
nodes = (
"1058 0 LINE",
"1058 1420 LINE",
"858 1420 LINE",
"858 0 LINE"
);
},
{
closed = 1;
nodes = (
"340 0 LINE",
"340 1420 LINE",
"140 1420 LINE",
"140 0 LINE"
);
},
{
closed = 1;
nodes = (
"1021 612 LINE",
"1021 802 LINE",
"182 802 LINE",
"182 612 LINE"
);
}
);
width = 1200;
}
);
unicode = 0048;
},
{
glyphname = I;
lastChange = "2019-08-28 00:29:45 +0000";
layers = (
{
layerId = "BBAB2DB2-7554-4FB8-925D-17003E4845F8";
paths = (
{
closed = 1;
nodes = (
"699 0 LINE",
"699 1420 LINE",
"499 1420 LINE",
"499 0 LINE"
);
},
{
closed = 1;
nodes = (
"1032 0 LINE",
"1032 190 LINE",
"168 190 LINE",
"168 0 LINE"
);
},
{
closed = 1;
nodes = (
"1032 1230 LINE",
"1032 1420 LINE",
"168 1420 LINE",
"168 1230 LINE"
);
}
);
width = 1200;
}
);
unicode = 0049;
},
{
glyphname = J;
lastChange = "2019-08-28 00:30:10 +0000";
layers = (
{
layerId = "BBAB2DB2-7554-4FB8-925D-17003E4845F8";
paths = (
{
closed = 1;
nodes = (
"890 0 OFFCURVE",
"1072 166 OFFCURVE",
"1072 456 CURVE SMOOTH",
"1072 1420 LINE",
"872 1420 LINE",
"872 456 LINE SMOOTH",
"872 280 OFFCURVE",
"770 180 OFFCURVE",
"589 180 CURVE SMOOTH",
"402 180 OFFCURVE",
"296 296 OFFCURVE",
"296 496 CURVE",
"96 496 LINE",
"96 182 OFFCURVE",
"272 0 OFFCURVE",
"584 0 CURVE SMOOTH"
);
},
{
closed = 1;
nodes = (
"966 1230 LINE",
"966 1420 LINE",
"500 1420 LINE",
"500 1230 LINE"
);
}
);
width = 1200;
}
);
unicode = 004A;
},
{
glyphname = K;
lastChange = "2019-08-28 00:30:33 +0000";
layers = (
{
background = {
paths = (
{
closed = 1;
nodes = (
"380 1420 LINE",
"168 1420 LINE",
"172 0 LINE",
"380 0 LINE"
);
},
{
closed = 1;
nodes = (
"302 676 LINE",
"302 486 LINE",
"324 486 LINE SMOOTH",
"806 486 OFFCURVE",
"1084 828 OFFCURVE",
"1084 1420 CURVE",
"864 1420 LINE",
"864 948 OFFCURVE",
"668 676 OFFCURVE",
"326 676 CURVE SMOOTH"
);
},
{
closed = 1;
nodes = (
"930 0 LINE",
"1192 0 LINE",
"762 750 LINE",
"562 668 LINE"
);
}
);
};
layerId = "BBAB2DB2-7554-4FB8-925D-17003E4845F8";
paths = (
{
closed = 1;
nodes = (
"804 502 OFFCURVE",
"1104 941 OFFCURVE",
"1104 1420 CURVE",
"898 1420 LINE",
"898 1049 OFFCURVE",
"714 690 OFFCURVE",
"304 690 CURVE",
"286 502 LINE"
);
},
{
closed = 1;
nodes = (
"360 0 LINE",
"360 1420 LINE",
"160 1420 LINE",
"160 0 LINE"
);
},
{
closed = 1;
nodes = (
"1172 0 LINE",
"750 794 LINE",
"570 692 LINE",
"930 0 LINE"
);
}
);
width = 1200;
},
{
associatedMasterId = "BBAB2DB2-7554-4FB8-925D-17003E4845F8";
layerId = "9750F838-3F17-4077-BAF9-FC7C20BDB48A";
name = "Apr 15 19, 16:54";
paths = (
{
closed = 1;
nodes = (
"300 1420 LINE",
"88 1420 LINE",
"92 0 LINE",
"300 0 LINE"
);
},
{
closed = 1;
nodes = (
"850 0 LINE",
"1092 0 LINE",
"706 746 LINE",
"528 650 LINE"
);
},
{
closed = 1;
nodes = (
"720 614 LINE",
"720 790 LINE",
"242 790 LINE",
"240 614 LINE"
);
},
{
closed = 1;
nodes = (
"706 674 LINE",
"1092 1420 LINE",
"850 1420 LINE",
"528 770 LINE"
);
}
);
width = 1200;
}
);
unicode = 004B;
},
{
glyphname = L;
lastChange = "2019-08-28 00:30:43 +0000";
layers = (
{
background = {
paths = (
{
closed = 1;
nodes = (
"376 0 LINE",
"380 1420 LINE",
"168 1420 LINE",
"168 0 LINE"
);
},
{
closed = 1;
nodes = (
"1120 1220 LINE",
"1120 1420 LINE",
"170 1420 LINE",
"168 1220 LINE"
);
},
{
closed = 1;
nodes = (
"1120 0 LINE",
"1120 196 LINE",
"170 196 LINE",
"168 0 LINE"
);
},
{
closed = 1;
nodes = (
"940 610 LINE",
"940 810 LINE",
"190 810 LINE",
"188 610 LINE"
);
}
);
};
layerId = "BBAB2DB2-7554-4FB8-925D-17003E4845F8";
paths = (
{
closed = 1;
nodes = (
"360 0 LINE",
"360 1420 LINE",
"160 1420 LINE",
"160 0 LINE"
);
},
{
closed = 1;
nodes = (
"1100 0 LINE",
"1100 190 LINE",
"160 190 LINE",
"160 0 LINE"
);
}
);
width = 1200;
}
);
unicode = 004C;
},
{
glyphname = M;
lastChange = "2019-08-15 16:18:04 +0000";
layers = (
{
layerId = "BBAB2DB2-7554-4FB8-925D-17003E4845F8";
paths = (
{
closed = 1;
nodes = (
"702 580 LINE",
"854 1168 LINE",
"912 1168 LINE",
"912 1420 LINE",
"760 1420 LINE",
"608 810 LINE",
"596 810 LINE",
"566 580 LINE"
);
},
{
closed = 1;
nodes = (
"320 0 LINE",
"320 1420 LINE",
"128 1420 LINE",
"128 0 LINE"
);
},
{
closed = 1;
nodes = (
"620 580 LINE",
"600 810 LINE",
"592 810 LINE",
"440 1420 LINE",
"288 1420 LINE",
"288 1168 LINE",
"346 1168 LINE",
"498 580 LINE"
);
},
{
closed = 1;
nodes = (
"1072 0 LINE",
"1072 1420 LINE",
"880 1420 LINE",
"880 0 LINE"
);
}
);
width = 1200;
}
);
unicode = 004D;
},
{
glyphname = N;
lastChange = "2019-08-15 16:18:04 +0000";
layers = (
{
background = {
components = (
{
name = H;
}
);
};
layerId = "BBAB2DB2-7554-4FB8-925D-17003E4845F8";
paths = (
{
closed = 1;
nodes = (
"890 0 LINE",
"890 322 LINE",
"840 322 LINE",
"400 1420 LINE",
"268 1420 LINE",
"268 1050 LINE",
"360 1050 LINE",
"800 0 LINE"
);
},
{
closed = 1;
nodes = (
"340 0 LINE",
"340 1420 LINE",
"148 1420 LINE",
"148 0 LINE"
);
},
{
closed = 1;
nodes = (
"1052 0 LINE",
"1052 1420 LINE",
"860 1420 LINE",
"860 0 LINE"
);
}
);
width = 1200;
}
);
unicode = 004E;
},
{
glyphname = O;
lastChange = "2019-08-28 00:31:27 +0000";
layers = (
{
layerId = "BBAB2DB2-7554-4FB8-925D-17003E4845F8";
paths = (
{
closed = 1;
nodes = (
"948 -20 OFFCURVE",
"1124 218 OFFCURVE",
"1124 700 CURVE SMOOTH",
"1124 1194 OFFCURVE",
"948 1440 OFFCURVE",
"600 1440 CURVE SMOOTH",
"252 1440 OFFCURVE",
"76 1194 OFFCURVE",
"76 700 CURVE SMOOTH",
"76 218 OFFCURVE",
"252 -20 OFFCURVE",
"600 -20 CURVE SMOOTH"
);
},
{
closed = 1;
nodes = (
"391 164 OFFCURVE",
"286 342 OFFCURVE",
"286 700 CURVE SMOOTH",
"286 1072 OFFCURVE",
"391 1256 OFFCURVE",
"600 1256 CURVE SMOOTH",
"809 1256 OFFCURVE",
"914 1072 OFFCURVE",
"914 700 CURVE SMOOTH",
"914 342 OFFCURVE",
"809 164 OFFCURVE",
"600 164 CURVE SMOOTH"
);
}
);
width = 1200;
}
);
unicode = 004F;
},
{
glyphname = P;
lastChange = "2019-08-28 00:31:18 +0000";
layers = (
{
layerId = "BBAB2DB2-7554-4FB8-925D-17003E4845F8";
paths = (
{
closed = 1;
nodes = (
"578 440 LINE SMOOTH",
"922 440 OFFCURVE",
"1120 622 OFFCURVE",
"1120 940 CURVE SMOOTH",
"1120 1246 OFFCURVE",
"922 1420 OFFCURVE",
"578 1420 CURVE SMOOTH",
"316 1420 LINE",
"340 1230 LINE",
"578 1230 LINE SMOOTH",
"789 1230 OFFCURVE",
"910 1118 OFFCURVE",
"910 920 CURVE SMOOTH",
"910 736 OFFCURVE",
"789 630 OFFCURVE",
"578 630 CURVE SMOOTH",
"336 630 LINE",
"336 440 LINE"
);
},
{
closed = 1;
nodes = (
"360 0 LINE",
"360 1420 LINE",
"160 1420 LINE",
"160 0 LINE"
);
}
);
width = 1200;
}
);
unicode = 0050;
},
{
glyphname = Q;
lastChange = "2019-08-15 16:18:04 +0000";
layers = (
{
components = (
{
name = O;
}
);
layerId = "BBAB2DB2-7554-4FB8-925D-17003E4845F8";
paths = (
{
closed = 1;
nodes = (
"1012 -460 LINE",
"1032 -280 LINE",
"930 -280 LINE SMOOTH",
"772 -280 OFFCURVE",
"694 -194 OFFCURVE",
"694 -22 CURVE SMOOTH",
"694 62 LINE",
"496 62 LINE",
"496 -20 LINE SMOOTH",
"496 -314 OFFCURVE",
"642 -460 OFFCURVE",
"930 -460 CURVE SMOOTH"
);
}
);
width = 1200;
}
);
unicode = 0051;
},
{
glyphname = R;
lastChange = "2019-08-28 00:31:43 +0000";
layers = (
{
background = {
paths = (
{
closed = 1;
nodes = (
"786 662 LINE",
"596 662 LINE",
"596 520 LINE SMOOTH",
"596 190 OFFCURVE",
"792 0 OFFCURVE",
"1130 0 CURVE",
"1130 220 LINE",
"912 220 OFFCURVE",
"786 328 OFFCURVE",
"786 518 CURVE SMOOTH"
);
}
);
};
layerId = "BBAB2DB2-7554-4FB8-925D-17003E4845F8";
paths = (
{
closed = 1;
nodes = (
"628 540 LINE SMOOTH",
"922 540 OFFCURVE",
"1090 704 OFFCURVE",
"1090 990 CURVE SMOOTH",
"1090 1264 OFFCURVE",
"922 1420 OFFCURVE",
"628 1420 CURVE SMOOTH",
"304 1420 LINE",
"328 1230 LINE",
"628 1230 LINE SMOOTH",
"787 1230 OFFCURVE",
"880 1136 OFFCURVE",
"880 970 CURVE SMOOTH",
"880 818 OFFCURVE",
"787 730 OFFCURVE",
"628 730 CURVE SMOOTH",
"324 730 LINE",
"324 540 LINE"
);
},
{
closed = 1;
nodes = (
"338 0 LINE",
"338 1420 LINE",
"138 1420 LINE",
"138 0 LINE"
);
},
{
closed = 1;
nodes = (
"1142 0 LINE",
"804 668 LINE",
"582 668 LINE",
"900 0 LINE"
);
}
);
width = 1200;
},
{
associatedMasterId = "BBAB2DB2-7554-4FB8-925D-17003E4845F8";
layerId = "D7F66CDD-96BB-4619-9797-3FD5EDA459BE";
name = "Apr 16 19, 00:42";
paths = (
{
closed = 1;
nodes = (
"376 0 LINE",
"380 1420 LINE",
"168 1420 LINE",
"168 0 LINE"
);
},
{
closed = 1;
nodes = (
"354 730 LINE",
"354 540 LINE",
"648 540 LINE SMOOTH",
"954 540 OFFCURVE",
"1130 704 OFFCURVE",
"1130 990 CURVE SMOOTH",
"1130 1264 OFFCURVE",
"954 1420 OFFCURVE",
"648 1420 CURVE SMOOTH",
"334 1420 LINE",
"358 1230 LINE",
"648 1230 LINE SMOOTH",
"814 1230 OFFCURVE",
"910 1136 OFFCURVE",
"910 970 CURVE SMOOTH",
"910 818 OFFCURVE",
"814 730 OFFCURVE",
"648 730 CURVE SMOOTH"
);
},
{
closed = 1;
nodes = (
"908 0 LINE",
"1170 0 LINE",
"836 666 LINE",
"636 584 LINE"
);
}
);
width = 1200;
}
);
unicode = 0052;
},
{
glyphname = S;
lastChange = "2019-08-15 16:18:04 +0000";
layers = (
{
associatedMasterId = "BBAB2DB2-7554-4FB8-925D-17003E4845F8";
layerId = "84D4C0E3-2A94-476F-814A-5CBAD3997FB4";
name = "Apr 15 19, 12:16";
paths = (
{
closed = 1;
nodes = (
"1028 1400 LINE",
"912 1428 OFFCURVE",
"810 1440 OFFCURVE",
"688 1440 CURVE SMOOTH",
"320 1440 OFFCURVE",
"164 1324 OFFCURVE",
"164 1050 CURVE SMOOTH",
"164 894 OFFCURVE",
"252 780 OFFCURVE",
"458 674 CURVE SMOOTH",
"722 542 LINE SMOOTH",
"808 498 OFFCURVE",
"846 444 OFFCURVE",
"846 362 CURVE SMOOTH",
"846 220 OFFCURVE",
"766 160 OFFCURVE",
"580 160 CURVE SMOOTH",
"464 160 OFFCURVE",
"338 176 OFFCURVE",
"162 212 CURVE",
"138 30 LINE",
"252 -12 OFFCURVE",
"384 -30 OFFCURVE",
"580 -30 CURVE SMOOTH",
"920 -30 OFFCURVE",
"1066 88 OFFCURVE",
"1066 366 CURVE SMOOTH",
"1066 540 OFFCURVE",
"970 658 OFFCURVE",
"744 766 CURVE SMOOTH",
"528 870 LINE SMOOTH",
"426 918 OFFCURVE",
"384 974 OFFCURVE",
"384 1060 CURVE SMOOTH",
"384 1194 OFFCURVE",
"472 1250 OFFCURVE",
"682 1250 CURVE SMOOTH",
"770 1250 OFFCURVE",
"866 1240 OFFCURVE",
"1006 1216 CURVE"
);
}
);
width = 1200;
},
{
associatedMasterId = "BBAB2DB2-7554-4FB8-925D-17003E4845F8";
background = {
paths = (
{
closed = 1;
nodes = (
"1028 1400 LINE",
"912 1428 OFFCURVE",
"810 1440 OFFCURVE",
"688 1440 CURVE SMOOTH",
"320 1440 OFFCURVE",
"164 1324 OFFCURVE",
"164 1050 CURVE SMOOTH",
"164 894 OFFCURVE",
"252 780 OFFCURVE",
"458 674 CURVE SMOOTH",
"722 542 LINE SMOOTH",
"808 498 OFFCURVE",
"846 444 OFFCURVE",
"846 362 CURVE SMOOTH",
"846 220 OFFCURVE",
"766 160 OFFCURVE",
"580 160 CURVE SMOOTH",
"464 160 OFFCURVE",
"338 176 OFFCURVE",
"162 212 CURVE",
"138 30 LINE",
"252 -12 OFFCURVE",
"384 -30 OFFCURVE",
"580 -30 CURVE SMOOTH",
"920 -30 OFFCURVE",
"1066 88 OFFCURVE",
"1066 366 CURVE SMOOTH",
"1066 540 OFFCURVE",
"970 658 OFFCURVE",
"744 766 CURVE SMOOTH",
"528 870 LINE SMOOTH",
"426 918 OFFCURVE",
"384 974 OFFCURVE",
"384 1060 CURVE SMOOTH",
"384 1194 OFFCURVE",
"472 1250 OFFCURVE",
"682 1250 CURVE SMOOTH",
"770 1250 OFFCURVE",
"866 1240 OFFCURVE",
"1006 1216 CURVE"
);
}
);
};
layerId = "D3350615-E3BC-402B-9EF8-5308CBB807FD";
name = "Apr 16 19, 00:12";
paths = (
{
closed = 1;
nodes = (
"664 1440 LINE",
"318 1440 OFFCURVE",
"146 1310 OFFCURVE",
"146 1050 CURVE SMOOTH",
"146 904 OFFCURVE",
"238 762 OFFCURVE",
"448 664 CURVE SMOOTH",
"712 542 LINE SMOOTH",
"796 504 OFFCURVE",
"836 438 OFFCURVE",
"836 362 CURVE SMOOTH",
"836 226 OFFCURVE",
"746 160 OFFCURVE",
"566 160 CURVE",
"550 -30 LINE",
"888 -30 OFFCURVE",
"1056 102 OFFCURVE",
"1056 366 CURVE SMOOTH",
"1056 520 OFFCURVE",
"960 666 OFFCURVE",
"734 770 CURVE SMOOTH",
"518 870 LINE SMOOTH",
"416 918 OFFCURVE",
"366 984 OFFCURVE",
"366 1060 CURVE SMOOTH",
"366 1188 OFFCURVE",
"458 1250 OFFCURVE",
"648 1250 CURVE"
);
},
{
closed = 1;
nodes = (
"566 160 LINE",
"422 160 OFFCURVE",
"232 216 OFFCURVE",
"154 248 CURVE",
"128 48 LINE",
"226 6 OFFCURVE",
"402 -30 OFFCURVE",
"550 -30 CURVE"
);
},
{
closed = 1;
nodes = (
"648 1250 LINE",
"766 1250 OFFCURVE",
"838 1244 OFFCURVE",
"1006 1216 CURVE",
"1028 1398 LINE",
"954 1426 OFFCURVE",
"776 1440 OFFCURVE",
"664 1440 CURVE"
);
}
);
width = 1200;
},
{
associatedMasterId = "BBAB2DB2-7554-4FB8-925D-17003E4845F8";
background = {
paths = (
{
closed = 1;
nodes = (
"884 1262 LINE",
"826 1262 LINE",
"826 1432 OFFCURVE",
"646 1440 OFFCURVE",
"584 1440 CURVE SMOOTH",
"260 1440 OFFCURVE",
"76 1174 OFFCURVE",
"76 712 CURVE SMOOTH",
"76 224 OFFCURVE",
"284 -20 OFFCURVE",
"702 -20 CURVE SMOOTH",
"806 -20 OFFCURVE",
"904 -10 OFFCURVE",
"998 8 CURVE",
"1022 200 LINE",
"944 180 OFFCURVE",
"846 170 OFFCURVE",
"726 170 CURVE SMOOTH",
"440 170 OFFCURVE",
"296 354 OFFCURVE",
"296 722 CURVE SMOOTH",
"296 1058 OFFCURVE",
"424 1250 OFFCURVE",
"646 1250 CURVE SMOOTH",
"774 1250 OFFCURVE",
"838 1188 OFFCURVE",
"838 1062 CURVE"
);
},
{
closed = 1;
nodes = (
"1040 982 LINE",
"1040 1420 LINE",
"840 1420 LINE",
"838 982 LINE"
);
}
);
};
layerId = "49213796-96AD-46AB-A440-80F3C98A8AEA";
name = "May 17 19, 08:15";
paths = (
{
closed = 1;
nodes = (
"576 1440 LINE",
"302 1440 OFFCURVE",
"166 1310 OFFCURVE",
"166 1050 CURVE SMOOTH",
"166 892 OFFCURVE",
"264 766 OFFCURVE",
"466 664 CURVE SMOOTH",
"702 546 LINE SMOOTH",
"784 504 OFFCURVE",
"836 442 OFFCURVE",
"836 362 CURVE SMOOTH",
"836 226 OFFCURVE",
"746 160 OFFCURVE",
"566 160 CURVE",
"550 -30 LINE",
"888 -30 OFFCURVE",
"1056 102 OFFCURVE",
"1056 366 CURVE SMOOTH",
"1056 526 OFFCURVE",
"950 660 OFFCURVE",
"734 770 CURVE SMOOTH",
"536 870 LINE SMOOTH",
"436 922 OFFCURVE",
"386 984 OFFCURVE",
"386 1060 CURVE SMOOTH",
"386 1188 OFFCURVE",
"462 1250 OFFCURVE",
"616 1250 CURVE"
);
},
{
closed = 1;
nodes = (
"616 1250 LINE",
"766 1250 OFFCURVE",
"840 1188 OFFCURVE",
"840 1062 CURVE",
"894 1262 LINE",
"826 1262 LINE",
"826 1380 OFFCURVE",
"736 1440 OFFCURVE",
"576 1440 CURVE"
);
},
{
closed = 1;
nodes = (
"566 160 LINE",
"432 160 OFFCURVE",
"294 190 OFFCURVE",
"154 248 CURVE",
"128 48 LINE",
"246 -4 OFFCURVE",
"386 -30 OFFCURVE",
"550 -30 CURVE"
);
},
{
closed = 1;
nodes = (
"1042 982 LINE",
"1042 1420 LINE",
"842 1420 LINE",
"840 982 LINE"
);
}
);
width = 1200;
},
{
background = {
paths = (
{
closed = 1;
nodes = (
"882 1262 LINE",
"824 1262 LINE",
"824 1432 OFFCURVE",
"644 1440 OFFCURVE",
"582 1440 CURVE SMOOTH",
"258 1440 OFFCURVE",
"74 1174 OFFCURVE",
"74 712 CURVE SMOOTH",
"74 224 OFFCURVE",
"282 -20 OFFCURVE",
"700 -20 CURVE SMOOTH",
"804 -20 OFFCURVE",
"902 -10 OFFCURVE",
"996 8 CURVE",
"1020 200 LINE",
"942 180 OFFCURVE",
"844 170 OFFCURVE",
"724 170 CURVE SMOOTH",
"438 170 OFFCURVE",
"294 354 OFFCURVE",
"294 722 CURVE SMOOTH",
"294 1058 OFFCURVE",
"422 1250 OFFCURVE",
"644 1250 CURVE SMOOTH",
"772 1250 OFFCURVE",
"836 1188 OFFCURVE",
"836 1062 CURVE"
);
},
{
closed = 1;
nodes = (
"1038 982 LINE",
"1038 1420 LINE",
"838 1420 LINE",
"836 982 LINE"
);
}
);
};
layerId = "BBAB2DB2-7554-4FB8-925D-17003E4845F8";
paths = (
{
closed = 1;
nodes = (
"886 -30 OFFCURVE",
"1052 102 OFFCURVE",
"1052 366 CURVE SMOOTH",
"1052 560 OFFCURVE",
"940 674 OFFCURVE",
"730 772 CURVE SMOOTH",
"522 870 LINE SMOOTH",
"426 916 OFFCURVE",
"376 968 OFFCURVE",
"376 1060 CURVE SMOOTH",
"376 1184 OFFCURVE",
"462 1256 OFFCURVE",
"612 1256 CURVE",
"612 1440 LINE",
"326 1440 OFFCURVE",
"162 1298 OFFCURVE",
"162 1050 CURVE SMOOTH",
"162 866 OFFCURVE",
"268 748 OFFCURVE",
"462 660 CURVE SMOOTH",
"708 548 LINE SMOOTH",
"792 510 OFFCURVE",
"838 450 OFFCURVE",
"838 362 CURVE SMOOTH",
"838 222 OFFCURVE",
"748 154 OFFCURVE",
"562 154 CURVE",
"546 -30 LINE"
);
},
{
closed = 1;
nodes = (
"562 154 LINE",
"432 154 OFFCURVE",
"296 184 OFFCURVE",
"150 242 CURVE",
"124 48 LINE",
"244 -4 OFFCURVE",
"384 -30 OFFCURVE",
"546 -30 CURVE"
);
},
{
closed = 1;
nodes = (
"1018 1102 LINE",
"1018 1316 OFFCURVE",
"870 1440 OFFCURVE",
"612 1440 CURVE",
"612 1256 LINE",
"746 1256 OFFCURVE",
"822 1200 OFFCURVE",
"822 1102 CURVE"
);
}
);
width = 1200;
}
);
unicode = 0053;
},
{
glyphname = T;
lastChange = "2019-08-28 00:31:54 +0000";
layers = (
{
layerId = "BBAB2DB2-7554-4FB8-925D-17003E4845F8";
paths = (
{
closed = 1;
nodes = (
"700 0 LINE",
"700 1420 LINE",
"500 1420 LINE",
"500 0 LINE"
);
},
{
closed = 1;
nodes = (
"1120 1230 LINE",
"1120 1420 LINE",
"80 1420 LINE",
"80 1230 LINE"
);
}
);
width = 1200;
}
);
unicode = 0054;
},
{
glyphname = U;
lastChange = "2019-08-28 00:32:02 +0000";
layers = (
{
layerId = "BBAB2DB2-7554-4FB8-925D-17003E4845F8";
paths = (
{
closed = 1;
nodes = (
"900 0 OFFCURVE",
"1060 158 OFFCURVE",
"1060 476 CURVE SMOOTH",
"1060 1420 LINE",
"860 1420 LINE",
"860 476 LINE SMOOTH",
"860 286 OFFCURVE",
"772 190 OFFCURVE",
"600 190 CURVE SMOOTH",
"420 190 OFFCURVE",
"340 286 OFFCURVE",
"340 476 CURVE SMOOTH",
"340 1420 LINE",
"140 1420 LINE",
"140 476 LINE SMOOTH",
"140 158 OFFCURVE",
"292 0 OFFCURVE",
"596 0 CURVE SMOOTH"
);
}
);
width = 1200;
}
);
unicode = 0055;
},
{
glyphname = V;
lastChange = "2019-08-15 16:18:04 +0000";
layers = (
{
layerId = "BBAB2DB2-7554-4FB8-925D-17003E4845F8";
paths = (
{
closed = 1;
nodes = (
"754 -20 LINE",
"1154 1420 LINE",
"940 1420 LINE",
"608 150 LINE",
"590 150 LINE",
"258 1420 LINE",
"44 1420 LINE",
"444 -20 LINE"
);
}
);
width = 1200;
}
);
unicode = 0056;
},
{
glyphname = W;
lastChange = "2019-08-15 16:18:04 +0000";
layers = (
{
layerId = "BBAB2DB2-7554-4FB8-925D-17003E4845F8";
paths = (
{
closed = 1;
nodes = (
"484 -20 LINE",
"594 802 LINE",
"624 802 LINE",
"706 1000 LINE",
"496 1000 LINE",
"350 140 LINE",
"330 140 LINE",
"210 1420 LINE",
"20 1420 LINE",
"160 -20 LINE"
);
},
{
closed = 1;
nodes = (
"1040 -20 LINE",
"1180 1420 LINE",
"990 1420 LINE",
"870 140 LINE",
"850 140 LINE",
"706 1000 LINE",
"496 1000 LINE",
"556 802 LINE",
"606 802 LINE",
"716 -20 LINE"
);
}
);
width = 1200;
}
);
unicode = 0057;
},
{
glyphname = X;
lastChange = "2019-08-25 18:12:39 +0000";
layers = (
{
background = {
components = (
{
name = x;
}
);
};
layerId = "BBAB2DB2-7554-4FB8-925D-17003E4845F8";
paths = (
{
closed = 1;
nodes = (
"542 636 LINE",
"66 1420 LINE",
"296 1420 LINE",
"674 746 LINE",
"1136 0 LINE",
"906 0 LINE"
);
},
{
closed = 1;
nodes = (
"528 746 LINE",
"906 1420 LINE",
"1136 1420 LINE",
"660 636 LINE",
"296 0 LINE",
"66 0 LINE"
);
}
);
width = 1200;
}
);
unicode = 0058;
},
{
glyphname = Y;
lastChange = "2019-08-28 00:32:16 +0000";
layers = (
{
background = {
components = (
{
name = V;
}
);
};
layerId = "BBAB2DB2-7554-4FB8-925D-17003E4845F8";
paths = (
{
closed = 1;
nodes = (
"686 474 LINE",
"1176 1420 LINE",
"956 1420 LINE",
"610 710 LINE",
"592 710 LINE",
"246 1420 LINE",
"26 1420 LINE",
"516 474 LINE"
);
},
{
closed = 1;
nodes = (
"703 0 LINE",
"703 700 LINE",
"503 700 LINE",
"503 0 LINE"
);
}
);
width = 1200;
}
);
unicode = 0059;
},
{
glyphname = Z;
lastChange = "2019-08-28 00:33:09 +0000";
layers = (
{
layerId = "BBAB2DB2-7554-4FB8-925D-17003E4845F8";
paths = (
{
closed = 1;
nodes = (
"1050 1230 LINE",
"888 1362 LINE",
"150 176 LINE",
"296 54 LINE"
);
},
{
closed = 1;
nodes = (
"1070 0 LINE",
"1070 176 LINE",
"150 176 LINE",
"150 0 LINE"
);
},
{
closed = 1;
nodes = (
"1050 1230 LINE",
"1050 1420 LINE",
"150 1420 LINE",
"150 1230 LINE"
);
}
);
width = 1200;
}
);
unicode = 005A;
},
{
glyphname = a;
lastChange = "2019-08-15 16:18:04 +0000";
layers = (
{
background = {
paths = (
{
closed = 1;
nodes = (
"794 244 LINE",
"808 -10 LINE",
"1148 0 LINE",
"1148 170 LINE",
"968 192 LINE",
"968 574 LINE",
"972 854 OFFCURVE",
"820 1002 OFFCURVE",
"510 1012 CURVE SMOOTH",
"236 1020 LINE",
"216 830 LINE",
"530 818 LINE SMOOTH",
"680 812 OFFCURVE",
"756 746 OFFCURVE",
"756 606 CURVE SMOOTH",
"756 332 LINE"
);
},
{
closed = 1;
nodes = (
"756 436 LINE",
"756 320 LINE",
"756 214 OFFCURVE",
"674 160 OFFCURVE",
"508 160 CURVE SMOOTH",
"368 160 OFFCURVE",
"296 204 OFFCURVE",
"296 290 CURVE SMOOTH",
"296 378 OFFCURVE",
"372 422 OFFCURVE",
"522 422 CURVE SMOOTH",
"606 422 OFFCURVE",
"690 422 OFFCURVE",
"774 402 CURVE",
"868 556 LINE",
"782 586 OFFCURVE",
"674 602 OFFCURVE",
"536 602 CURVE SMOOTH",
"250 602 OFFCURVE",
"86 484 OFFCURVE",
"86 270 CURVE SMOOTH",
"86 84 OFFCURVE",
"214 -20 OFFCURVE",
"434 -20 CURVE SMOOTH",
"644 -20 OFFCURVE",
"778 52 OFFCURVE",
"778 196 CURVE",
"684 164 LINE",
"828 164 LINE"
);
}
);
};
layerId = "BBAB2DB2-7554-4FB8-925D-17003E4845F8";
paths = (
{
closed = 1;
nodes = (
"1158 0 LINE",
"1158 170 LINE",
"978 192 LINE",
"978 634 LINE SMOOTH",
"978 914 OFFCURVE",
"810 1058 OFFCURVE",
"460 1072 CURVE SMOOTH",
"246 1080 LINE",
"226 900 LINE",
"480 888 LINE SMOOTH",
"676 878 OFFCURVE",
"776 812 OFFCURVE",
"776 666 CURVE SMOOTH",
"776 392 LINE",
"804 304 LINE",
"818 -10 LINE"
);
},
{
closed = 1;
nodes = (
"654 -20 OFFCURVE",
"788 72 OFFCURVE",
"788 256 CURVE",
"754 224 LINE",
"838 224 LINE",
"776 496 LINE",
"776 380 LINE",
"776 268 OFFCURVE",
"676 150 OFFCURVE",
"478 150 CURVE SMOOTH",
"358 150 OFFCURVE",
"296 204 OFFCURVE",
"296 306 CURVE SMOOTH",
"296 410 OFFCURVE",
"384 464 OFFCURVE",
"552 464 CURVE SMOOTH",
"648 464 OFFCURVE",
"738 464 OFFCURVE",
"834 424 CURVE",
"878 568 LINE",
"798 612 OFFCURVE",
"696 634 OFFCURVE",
"566 634 CURVE SMOOTH",
"266 634 OFFCURVE",
"96 510 OFFCURVE",
"96 286 CURVE SMOOTH",
"96 90 OFFCURVE",
"224 -20 OFFCURVE",
"444 -20 CURVE SMOOTH"
);
}
);
width = 1200;
},
{
associatedMasterId = "BBAB2DB2-7554-4FB8-925D-17003E4845F8";
background = {
components = (
{
name = n;
}
);
};
layerId = "DDBFFE16-E718-4FE3-87ED-45C864D04B95";
name = "Apr 16 19, 13:35";
paths = (
{
closed = 1;
nodes = (
"950 386 LINE",
"952 514 LINE SMOOTH",
"954 852 OFFCURVE",
"810 1014 OFFCURVE",
"440 1030 CURVE SMOOTH",
"246 1038 LINE",
"226 848 LINE",
"420 840 LINE SMOOTH",
"672 830 OFFCURVE",
"756 722 OFFCURVE",
"756 506 CURVE SMOOTH",
"756 352 LINE"
);
},
{
closed = 1;
nodes = (
"756 376 LINE",
"756 340 LINE SMOOTH",
"756 98 OFFCURVE",
"854 -20 OFFCURVE",
"1106 -20 CURVE SMOOTH",
"1126 -20 OFFCURVE",
"1142 -20 OFFCURVE",
"1162 -16 CURVE",
"1146 170 LINE SMOOTH",
"1006 170 OFFCURVE",
"950 232 OFFCURVE",
"950 376 CURVE SMOOTH",
"950 416 LINE"
);
},
{
closed = 1;
nodes = (
"756 436 LINE",
"756 320 LINE",
"756 214 OFFCURVE",
"672 160 OFFCURVE",
"502 160 CURVE SMOOTH",
"372 160 OFFCURVE",
"306 200 OFFCURVE",
"306 280 CURVE SMOOTH",
"306 362 OFFCURVE",
"376 402 OFFCURVE",
"516 402 CURVE SMOOTH",
"784 402 LINE",
"798 536 LINE",
"722 566 OFFCURVE",
"628 582 OFFCURVE",
"506 582 CURVE SMOOTH",
"246 582 OFFCURVE",
"96 474 OFFCURVE",
"96 280 CURVE SMOOTH",
"96 88 OFFCURVE",
"216 -20 OFFCURVE",
"424 -20 CURVE SMOOTH",
"612 -20 OFFCURVE",
"724 44 OFFCURVE",
"764 172 CURVE",
"818 172 LINE"
);
}
);
width = 1200;
}
);
unicode = 0061;
},
{
glyphname = b;
lastChange = "2019-08-15 16:18:04 +0000";
layers = (
{
background = {
paths = (
{
closed = 1;
nodes = (
"380 1500 LINE",
"168 1500 LINE",
"172 0 LINE",
"380 0 LINE"
);
},
{
closed = 1;
nodes = (
"318 212 LINE",
"392 212 LINE",
"430 64 OFFCURVE",
"552 -20 OFFCURVE",
"724 -20 CURVE SMOOTH",
"966 -20 OFFCURVE",
"1104 170 OFFCURVE",
"1104 500 CURVE SMOOTH",
"1104 830 OFFCURVE",
"958 1020 OFFCURVE",
"702 1020 CURVE SMOOTH",
"548 1020 OFFCURVE",
"436 936 OFFCURVE",
"398 788 CURVE",
"318 788 LINE"
);
},
{
closed = 1;
nodes = (
"478 170 OFFCURVE",
"380 290 OFFCURVE",
"380 500 CURVE SMOOTH",
"380 710 OFFCURVE",
"472 830 OFFCURVE",
"632 830 CURVE SMOOTH",
"792 830 OFFCURVE",
"884 710 OFFCURVE",
"884 500 CURVE SMOOTH",
"884 290 OFFCURVE",
"796 170 OFFCURVE",
"646 170 CURVE SMOOTH"
);
}
);
};
layerId = "BBAB2DB2-7554-4FB8-925D-17003E4845F8";
paths = (
{
closed = 1;
nodes = (
"892 -20 OFFCURVE",
"1104 184 OFFCURVE",
"1104 540 CURVE SMOOTH",
"1104 884 OFFCURVE",
"942 1080 OFFCURVE",
"660 1080 CURVE SMOOTH",
"496 1080 OFFCURVE",
"410 1010 OFFCURVE",
"400 868 CURVE",
"318 868 LINE",
"380 596 LINE",
"380 800 OFFCURVE",
"470 900 OFFCURVE",
"650 900 CURVE SMOOTH",
"806 900 OFFCURVE",
"894 770 OFFCURVE",
"894 540 CURVE SMOOTH",
"894 298 OFFCURVE",
"774 160 OFFCURVE",
"564 160 CURVE SMOOTH",
"456 160 OFFCURVE",
"340 160 OFFCURVE",
"250 194 CURVE",
"168 0 LINE",
"288 -12 OFFCURVE",
"402 -20 OFFCURVE",
"522 -20 CURVE SMOOTH"
);
},
{
closed = 1;
nodes = (
"380 18 LINE",
"380 1500 LINE",
"168 1500 LINE",
"168 0 LINE"
);
}
);
width = 1200;
}
);
unicode = 0062;
},
{
glyphname = c;
lastChange = "2019-08-15 16:18:04 +0000";
layers = (
{
associatedMasterId = "BBAB2DB2-7554-4FB8-925D-17003E4845F8";
background = {
paths = (
{
closed = 1;
nodes = (
"898 276 OFFCURVE",
"796 182 OFFCURVE",
"626 182 CURVE SMOOTH",
"430 182 OFFCURVE",
"316 294 OFFCURVE",
"316 488 CURVE SMOOTH",
"316 710 OFFCURVE",
"470 830 OFFCURVE",
"746 830 CURVE SMOOTH",
"840 830 OFFCURVE",
"932 830 OFFCURVE",
"1022 820 CURVE",
"998 1010 LINE",
"908 1020 OFFCURVE",
"812 1020 OFFCURVE",
"722 1020 CURVE SMOOTH",
"324 1020 OFFCURVE",
"96 834 OFFCURVE",
"96 498 CURVE SMOOTH",
"96 170 OFFCURVE",
"288 -20 OFFCURVE",
"624 -20 CURVE SMOOTH",
"928 -20 OFFCURVE",
"1104 146 OFFCURVE",
"1104 438 CURVE",
"898 438 LINE"
);
}
);
};
layerId = "6024EA6F-04B6-4814-8699-28B4014BFEF5";
name = "Apr 15 19, 10:02";
paths = (
{
closed = 1;
nodes = (
"1078 970 LINE",
"996 1000 OFFCURVE",
"878 1020 OFFCURVE",
"724 1020 CURVE SMOOTH",
"324 1020 OFFCURVE",
"96 830 OFFCURVE",
"96 502 CURVE SMOOTH",
"96 166 OFFCURVE",
"324 -20 OFFCURVE",
"722 -20 CURVE SMOOTH",
"812 -20 OFFCURVE",
"908 -20 OFFCURVE",
"998 -10 CURVE",
"1022 180 LINE",
"932 170 OFFCURVE",
"840 170 OFFCURVE",
"746 170 CURVE SMOOTH",
"470 170 OFFCURVE",
"316 290 OFFCURVE",
"316 512 CURVE SMOOTH",
"316 706 OFFCURVE",
"466 818 OFFCURVE",
"726 818 CURVE SMOOTH",
"802 818 OFFCURVE",
"910 810 OFFCURVE",
"1002 780 CURVE"
);
}
);
width = 1200;
},
{
associatedMasterId = "BBAB2DB2-7554-4FB8-925D-17003E4845F8";
background = {
components = (
{
name = n;
}
);
paths = (
{
closed = 1;
nodes = (
"1104 598 LINE SMOOTH",
"1104 852 OFFCURVE",
"930 1020 OFFCURVE",
"624 1020 CURVE SMOOTH",
"288 1020 OFFCURVE",
"96 830 OFFCURVE",
"96 502 CURVE SMOOTH",
"96 182 OFFCURVE",
"304 0 OFFCURVE",
"664 0 CURVE SMOOTH",
"818 0 OFFCURVE",
"948 22 OFFCURVE",
"1024 60 CURVE",
"988 242 LINE",
"922 218 OFFCURVE",
"814 202 OFFCURVE",
"688 202 CURVE SMOOTH",
"452 202 OFFCURVE",
"316 314 OFFCURVE",
"316 512 CURVE SMOOTH",
"316 706 OFFCURVE",
"430 818 OFFCURVE",
"626 818 CURVE SMOOTH",
"798 818 OFFCURVE",
"898 738 OFFCURVE",
"898 598 CURVE"
);
}
);
};
layerId = "C8ABFB92-A11A-48E2-A8BC-500816E3EF27";
name = "Apr 15 19, 15:54";
paths = (
{
closed = 1;
nodes = (
"1008 878 LINE",
"1100 940 LINE",
"946 988 OFFCURVE",
"892 1020 OFFCURVE",
"584 1020 CURVE SMOOTH",
"272 1020 OFFCURVE",
"96 830 OFFCURVE",
"96 502 CURVE SMOOTH",
"96 166 OFFCURVE",
"324 -20 OFFCURVE",
"722 -20 CURVE SMOOTH",
"832 -20 OFFCURVE",
"948 -20 OFFCURVE",
"1058 10 CURVE",
"1082 200 LINE",
"972 170 OFFCURVE",
"860 170 OFFCURVE",
"746 170 CURVE SMOOTH",
"470 170 OFFCURVE",
"316 290 OFFCURVE",
"316 512 CURVE SMOOTH",
"316 714 OFFCURVE",
"422 830 OFFCURVE",
"606 830 CURVE SMOOTH",
"788 830 OFFCURVE",
"960 776 OFFCURVE",
"1008 732 CURVE"
);
},
{
closed = 1;
nodes = (
"1100 562 LINE",
"1100 940 LINE",
"900 920 LINE",
"898 562 LINE"
);
}
);
width = 1200;
},
{
associatedMasterId = "BBAB2DB2-7554-4FB8-925D-17003E4845F8";
background = {
components = (
{
name = n;
}
);
paths = (
{
closed = 1;
nodes = (
"1104 598 LINE SMOOTH",
"1104 852 OFFCURVE",
"930 1020 OFFCURVE",
"624 1020 CURVE SMOOTH",
"288 1020 OFFCURVE",
"96 830 OFFCURVE",
"96 502 CURVE SMOOTH",
"96 182 OFFCURVE",
"304 0 OFFCURVE",
"664 0 CURVE SMOOTH",
"818 0 OFFCURVE",
"948 22 OFFCURVE",
"1024 60 CURVE",
"988 242 LINE",
"922 218 OFFCURVE",
"814 202 OFFCURVE",
"688 202 CURVE SMOOTH",
"452 202 OFFCURVE",
"316 314 OFFCURVE",
"316 512 CURVE SMOOTH",
"316 706 OFFCURVE",
"430 818 OFFCURVE",
"626 818 CURVE SMOOTH",
"798 818 OFFCURVE",
"898 738 OFFCURVE",
"898 598 CURVE"
);
}
);
};
layerId = "E3317163-08EA-4A6E-B6C3-DB4E5A974DDB";
name = "Apr 15 19, 16:57";
paths = (
{
closed = 1;
nodes = (
"1096 962 LINE",
"1036 980 OFFCURVE",
"912 1020 OFFCURVE",
"724 1020 CURVE SMOOTH",
"324 1020 OFFCURVE",
"96 830 OFFCURVE",
"96 502 CURVE SMOOTH",
"96 166 OFFCURVE",
"324 -20 OFFCURVE",
"722 -20 CURVE SMOOTH",
"832 -20 OFFCURVE",
"948 -20 OFFCURVE",
"1058 10 CURVE",
"1082 200 LINE",
"972 170 OFFCURVE",
"860 170 OFFCURVE",
"746 170 CURVE SMOOTH",
"470 170 OFFCURVE",
"316 290 OFFCURVE",
"316 512 CURVE SMOOTH",
"316 714 OFFCURVE",
"474 830 OFFCURVE",
"746 830 CURVE SMOOTH",
"884 830 OFFCURVE",
"942 814 OFFCURVE",
"1038 782 CURVE"
);
}
);
width = 1200;
},
{
associatedMasterId = "BBAB2DB2-7554-4FB8-925D-17003E4845F8";
background = {
components = (
{
name = n;
}
);
paths = (
{
closed = 1;
nodes = (
"1104 598 LINE SMOOTH",
"1104 852 OFFCURVE",
"930 1020 OFFCURVE",
"624 1020 CURVE SMOOTH",
"288 1020 OFFCURVE",
"96 830 OFFCURVE",
"96 502 CURVE SMOOTH",
"96 182 OFFCURVE",
"304 0 OFFCURVE",
"664 0 CURVE SMOOTH",
"818 0 OFFCURVE",
"948 22 OFFCURVE",
"1024 60 CURVE",
"988 242 LINE",
"922 218 OFFCURVE",
"814 202 OFFCURVE",
"688 202 CURVE SMOOTH",
"452 202 OFFCURVE",
"316 314 OFFCURVE",
"316 512 CURVE SMOOTH",
"316 706 OFFCURVE",
"430 818 OFFCURVE",
"626 818 CURVE SMOOTH",
"798 818 OFFCURVE",
"898 738 OFFCURVE",
"898 598 CURVE"
);
}
);
};
layerId = "B34FDE19-212B-40C9-B5F5-CA7782A6B92A";
name = "Apr 16 19, 00:13";
paths = (
{
closed = 1;
nodes = (
"1030 972 LINE",
"958 996 OFFCURVE",
"874 1020 OFFCURVE",
"724 1020 CURVE SMOOTH",
"350 1020 OFFCURVE",
"136 830 OFFCURVE",
"136 502 CURVE SMOOTH",
"136 166 OFFCURVE",
"350 -20 OFFCURVE",
"722 -20 CURVE SMOOTH",
"810 -20 OFFCURVE",
"902 -20 OFFCURVE",
"990 10 CURVE",
"1014 200 LINE",
"926 170 OFFCURVE",
"838 170 OFFCURVE",
"746 170 CURVE SMOOTH",
"496 170 OFFCURVE",
"356 290 OFFCURVE",
"356 512 CURVE SMOOTH",
"356 714 OFFCURVE",
"484 830 OFFCURVE",
"706 830 CURVE SMOOTH",
"844 830 OFFCURVE",
"900 814 OFFCURVE",
"976 786 CURVE"
);
}
);
width = 1200;
},
{
associatedMasterId = "BBAB2DB2-7554-4FB8-925D-17003E4845F8";
background = {
components = (
{
name = n;
}
);
paths = (
{
closed = 1;
nodes = (
"1104 598 LINE SMOOTH",
"1104 852 OFFCURVE",
"930 1020 OFFCURVE",
"624 1020 CURVE SMOOTH",
"288 1020 OFFCURVE",
"96 830 OFFCURVE",
"96 502 CURVE SMOOTH",
"96 182 OFFCURVE",
"304 0 OFFCURVE",
"664 0 CURVE SMOOTH",
"818 0 OFFCURVE",
"948 22 OFFCURVE",
"1024 60 CURVE",
"988 242 LINE",
"922 218 OFFCURVE",
"814 202 OFFCURVE",
"688 202 CURVE SMOOTH",
"452 202 OFFCURVE",
"316 314 OFFCURVE",
"316 512 CURVE SMOOTH",
"316 706 OFFCURVE",
"430 818 OFFCURVE",
"626 818 CURVE SMOOTH",
"798 818 OFFCURVE",
"898 738 OFFCURVE",
"898 598 CURVE"
);
}
);
};
layerId = "2AF1086F-B8E0-4498-963D-0D3D15763366";
name = "Apr 16 19, 00:26";
paths = (
{
closed = 1;
nodes = (
"856 802 LINE",
"808 802 LINE",
"766 948 OFFCURVE",
"678 1020 OFFCURVE",
"544 1020 CURVE SMOOTH",
"284 1020 OFFCURVE",
"136 830 OFFCURVE",
"136 502 CURVE SMOOTH",
"136 166 OFFCURVE",
"350 -20 OFFCURVE",
"722 -20 CURVE SMOOTH",
"810 -20 OFFCURVE",
"902 -20 OFFCURVE",
"990 10 CURVE",
"1014 200 LINE",
"926 170 OFFCURVE",
"838 170 OFFCURVE",
"746 170 CURVE SMOOTH",
"496 170 OFFCURVE",
"356 290 OFFCURVE",
"356 512 CURVE SMOOTH",
"356 714 OFFCURVE",
"440 830 OFFCURVE",
"586 830 CURVE SMOOTH",
"738 830 OFFCURVE",
"830 732 OFFCURVE",
"830 562 CURVE"
);
},
{
closed = 1;
nodes = (
"1032 562 LINE",
"1032 1000 LINE",
"832 1000 LINE",
"830 562 LINE"
);
}
);
width = 1200;
},
{
associatedMasterId = "BBAB2DB2-7554-4FB8-925D-17003E4845F8";
background = {
components = (
{
name = n;
}
);
paths = (
{
closed = 1;
nodes = (
"906 902 LINE",
"848 902 LINE",
"848 1072 OFFCURVE",
"668 1080 OFFCURVE",
"606 1080 CURVE SMOOTH",
"282 1080 OFFCURVE",
"98 814 OFFCURVE",
"98 352 CURVE SMOOTH",
"98 -136 OFFCURVE",
"306 -380 OFFCURVE",
"724 -380 CURVE SMOOTH",
"828 -380 OFFCURVE",
"926 -370 OFFCURVE",
"1020 -352 CURVE",
"1044 -160 LINE",
"966 -180 OFFCURVE",
"868 -190 OFFCURVE",
"748 -190 CURVE SMOOTH",
"462 -190 OFFCURVE",
"318 -6 OFFCURVE",
"318 362 CURVE SMOOTH",
"318 698 OFFCURVE",
"446 890 OFFCURVE",
"668 890 CURVE SMOOTH",
"796 890 OFFCURVE",
"860 828 OFFCURVE",
"860 702 CURVE"
);
},
{
closed = 1;
nodes = (
"1062 622 LINE",
"1062 1060 LINE",
"862 1060 LINE",
"860 622 LINE"
);
}
);
};
layerId = "867A5E08-EDF5-4572-AC3E-3EDB74236F56";
name = "May 17 19, 08:15";
paths = (
{
closed = 1;
nodes = (
"882 810 LINE",
"848 810 LINE",
"848 950 OFFCURVE",
"768 1020 OFFCURVE",
"604 1020 CURVE SMOOTH",
"304 1020 OFFCURVE",
"136 830 OFFCURVE",
"136 502 CURVE SMOOTH",
"136 166 OFFCURVE",
"350 -20 OFFCURVE",
"722 -20 CURVE SMOOTH",
"826 -20 OFFCURVE",
"938 -14 OFFCURVE",
"1042 10 CURVE",
"1018 196 LINE",
"930 180 OFFCURVE",
"838 170 OFFCURVE",
"746 170 CURVE SMOOTH",
"496 170 OFFCURVE",
"356 290 OFFCURVE",
"356 512 CURVE SMOOTH",
"356 714 OFFCURVE",
"464 830 OFFCURVE",
"646 830 CURVE SMOOTH",
"780 830 OFFCURVE",
"860 754 OFFCURVE",
"860 622 CURVE"
);
},
{
closed = 1;
nodes = (
"1062 622 LINE",
"1062 1000 LINE",
"862 1000 LINE",
"860 622 LINE"
);
}
);
width = 1200;
},
{
layerId = "BBAB2DB2-7554-4FB8-925D-17003E4845F8";
paths = (
{
closed = 1;
nodes = (
"800 -20 OFFCURVE",
"926 -14 OFFCURVE",
"1042 10 CURVE",
"1018 196 LINE",
"918 180 OFFCURVE",
"812 170 OFFCURVE",
"706 170 CURVE SMOOTH",
"482 170 OFFCURVE",
"356 300 OFFCURVE",
"356 542 CURVE SMOOTH",
"356 764 OFFCURVE",
"462 890 OFFCURVE",
"646 890 CURVE SMOOTH",
"772 890 OFFCURVE",
"846 820 OFFCURVE",
"846 702 CURVE",
"1064 702 LINE",
"1064 1080 OFFCURVE",
"732 1080 OFFCURVE",
"644 1080 CURVE SMOOTH",
"318 1080 OFFCURVE",
"136 878 OFFCURVE",
"136 532 CURVE SMOOTH",
"136 176 OFFCURVE",
"334 -20 OFFCURVE",
"682 -20 CURVE SMOOTH"
);
}
);
width = 1200;
}
);
unicode = 0063;
},
{
glyphname = d;
lastChange = "2019-08-15 16:18:04 +0000";
layers = (
{
background = {
paths = (
{
closed = 1;
nodes = (
"820 436 LINE",
"820 320 LINE SMOOTH",
"820 214 OFFCURVE",
"738 160 OFFCURVE",
"572 160 CURVE SMOOTH",
"396 160 OFFCURVE",
"306 278 OFFCURVE",
"306 510 CURVE SMOOTH",
"306 720 OFFCURVE",
"394 840 OFFCURVE",
"550 840 CURVE SMOOTH",
"730 840 OFFCURVE",
"820 740 OFFCURVE",
"820 536 CURVE",
"882 808 LINE",
"792 808 LINE",
"782 950 OFFCURVE",
"698 1020 OFFCURVE",
"540 1020 CURVE SMOOTH",
"258 1020 OFFCURVE",
"96 834 OFFCURVE",
"96 510 CURVE SMOOTH",
"96 170 OFFCURVE",
"244 -20 OFFCURVE",
"498 -20 CURVE SMOOTH",
"670 -20 OFFCURVE",
"784 42 OFFCURVE",
"800 164 CURVE",
"892 164 LINE"
);
},
{
closed = 1;
nodes = (
"860 158 OFFCURVE",
"744 160 OFFCURVE",
"636 160 CURVE SMOOTH",
"426 160 OFFCURVE",
"306 288 OFFCURVE",
"306 510 CURVE SMOOTH",
"306 708 OFFCURVE",
"432 820 OFFCURVE",
"650 820 CURVE SMOOTH",
"848 820 LINE",
"848 1000 LINE",
"640 1000 LINE SMOOTH",
"294 1000 OFFCURVE",
"96 822 OFFCURVE",
"96 510 CURVE SMOOTH",
"96 174 OFFCURVE",
"308 -20 OFFCURVE",
"678 -20 CURVE SMOOTH",
"798 -20 OFFCURVE",
"924 -12 OFFCURVE",
"1028 0 CURVE",
"950 194 LINE"
);
}
);
};
layerId = "BBAB2DB2-7554-4FB8-925D-17003E4845F8";
paths = (
{
closed = 1;
nodes = (
"678 -20 OFFCURVE",
"786 42 OFFCURVE",
"800 164 CURVE",
"892 164 LINE",
"820 456 LINE",
"820 340 LINE SMOOTH",
"820 220 OFFCURVE",
"732 160 OFFCURVE",
"552 160 CURVE SMOOTH",
"390 160 OFFCURVE",
"306 282 OFFCURVE",
"306 520 CURVE SMOOTH",
"306 762 OFFCURVE",
"394 900 OFFCURVE",
"550 900 CURVE SMOOTH",
"730 900 OFFCURVE",
"820 800 OFFCURVE",
"820 596 CURVE",
"882 868 LINE",
"800 868 LINE",
"782 1010 OFFCURVE",
"690 1080 OFFCURVE",
"520 1080 CURVE SMOOTH",
"250 1080 OFFCURVE",
"96 876 OFFCURVE",
"96 520 CURVE SMOOTH",
"96 172 OFFCURVE",
"250 -20 OFFCURVE",
"518 -20 CURVE SMOOTH"
);
},
{
closed = 1;
nodes = (
"1032 0 LINE",
"1032 1500 LINE",
"820 1500 LINE",
"820 198 LINE",
"842 -10 LINE"
);
}
);
width = 1200;
},
{
associatedMasterId = "BBAB2DB2-7554-4FB8-925D-17003E4845F8";
background = {
paths = (
{
closed = 1;
nodes = (
"848 178 OFFCURVE",
"744 160 OFFCURVE",
"636 160 CURVE SMOOTH",
"416 160 OFFCURVE",
"306 282 OFFCURVE",
"306 530 CURVE SMOOTH",
"306 738 OFFCURVE",
"414 842 OFFCURVE",
"630 842 CURVE SMOOTH",
"732 842 OFFCURVE",
"824 830 OFFCURVE",
"908 810 CURVE",
"922 936 LINE",
"786 994 OFFCURVE",
"672 1022 OFFCURVE",
"580 1022 CURVE SMOOTH",
"256 1022 OFFCURVE",
"96 858 OFFCURVE",
"96 530 CURVE SMOOTH",
"96 162 OFFCURVE",
"288 -20 OFFCURVE",
"678 -20 CURVE SMOOTH",
"806 -20 OFFCURVE",
"922 -6 OFFCURVE",
"1028 22 CURVE",
"950 216 LINE"
);
},
{
closed = 1;
nodes = (
"1028 22 LINE",
"1032 1500 LINE",
"820 1500 LINE",
"820 0 LINE"
);
}
);
};
layerId = "0CA676F1-FD20-479C-AAEF-0C24EB85FBE8";
name = "Apr 16 19, 21:10";
paths = (
{
closed = 1;
nodes = (
"1028 0 LINE",
"1032 1500 LINE",
"820 1500 LINE",
"820 0 LINE"
);
},
{
closed = 1;
nodes = (
"802 788 LINE",
"764 936 OFFCURVE",
"652 1020 OFFCURVE",
"498 1020 CURVE SMOOTH",
"242 1020 OFFCURVE",
"96 830 OFFCURVE",
"96 500 CURVE SMOOTH",
"96 170 OFFCURVE",
"234 -20 OFFCURVE",
"476 -20 CURVE SMOOTH",
"648 -20 OFFCURVE",
"770 64 OFFCURVE",
"808 212 CURVE",
"882 212 LINE",
"882 788 LINE"
);
},
{
closed = 1;
nodes = (
"404 170 OFFCURVE",
"316 290 OFFCURVE",
"316 500 CURVE SMOOTH",
"316 710 OFFCURVE",
"408 830 OFFCURVE",
"568 830 CURVE SMOOTH",
"728 830 OFFCURVE",
"820 710 OFFCURVE",
"820 500 CURVE SMOOTH",
"820 290 OFFCURVE",
"722 170 OFFCURVE",
"554 170 CURVE SMOOTH"
);
}
);
width = 1200;
}
);
unicode = 0064;
},
{
glyphname = e;
lastChange = "2019-08-15 16:18:04 +0000";
layers = (
{
background = {
paths = (
{
closed = 1;
nodes = (
"1032 622 LINE",
"1032 1020 OFFCURVE",
"710 1020 OFFCURVE",
"624 1020 CURVE SMOOTH",
"312 1020 OFFCURVE",
"136 830 OFFCURVE",
"136 502 CURVE SMOOTH",
"136 166 OFFCURVE",
"350 -20 OFFCURVE",
"722 -20 CURVE SMOOTH",
"816 -20 OFFCURVE",
"916 -14 OFFCURVE",
"1010 10 CURVE",
"986 196 LINE",
"908 180 OFFCURVE",
"828 170 OFFCURVE",
"746 170 CURVE SMOOTH",
"496 170 OFFCURVE",
"356 290 OFFCURVE",
"356 512 CURVE SMOOTH",
"356 714 OFFCURVE",
"456 830 OFFCURVE",
"626 830 CURVE SMOOTH",
"744 830 OFFCURVE",
"814 754 OFFCURVE",
"814 622 CURVE"
);
}
);
};
layerId = "BBAB2DB2-7554-4FB8-925D-17003E4845F8";
paths = (
{
closed = 1;
nodes = (
"782 -20 OFFCURVE",
"886 -16 OFFCURVE",
"1012 8 CURVE",
"986 194 LINE",
"898 176 OFFCURVE",
"814 166 OFFCURVE",
"726 166 CURVE SMOOTH",
"474 166 OFFCURVE",
"332 296 OFFCURVE",
"332 542 CURVE SMOOTH",
"332 766 OFFCURVE",
"436 894 OFFCURVE",
"616 894 CURVE SMOOTH",
"776 894 OFFCURVE",
"872 788 OFFCURVE",
"872 598 CURVE",
"314 598 LINE",
"314 436 LINE",
"1058 436 LINE",
"1062 478 OFFCURVE",
"1064 522 OFFCURVE",
"1064 572 CURVE SMOOTH",
"1064 902 OFFCURVE",
"900 1080 OFFCURVE",
"614 1080 CURVE SMOOTH",
"310 1080 OFFCURVE",
"136 878 OFFCURVE",
"136 532 CURVE SMOOTH",
"136 176 OFFCURVE",
"340 -20 OFFCURVE",
"702 -20 CURVE SMOOTH"
);
}
);
width = 1200;
}
);
unicode = 0065;
},
{
glyphname = f;
lastChange = "2019-08-15 16:18:04 +0000";
layers = (
{
background = {
guideLines = (
{
position = "{343, 747}";
},
{
position = "{343, 757}";
}
);
paths = (
{
closed = 1;
nodes = (
"566 0 LINE",
"566 1000 LINE",
"356 1000 LINE",
"354 0 LINE"
);
},
{
closed = 1;
nodes = (
"1020 644 LINE",
"1020 820 LINE",
"100 820 LINE",
"100 644 LINE"
);
},
{
closed = 1;
nodes = (
"566 764 LINE",
"566 1066 LINE SMOOTH",
"566 1242 OFFCURVE",
"654 1330 OFFCURVE",
"830 1330 CURVE SMOOTH",
"902 1330 OFFCURVE",
"982 1324 OFFCURVE",
"1074 1306 CURVE",
"1096 1490 LINE",
"990 1512 OFFCURVE",
"896 1520 OFFCURVE",
"810 1520 CURVE SMOOTH",
"502 1520 OFFCURVE",
"356 1380 OFFCURVE",
"356 1094 CURVE SMOOTH",
"356 1018 OFFCURVE",
"356 716 OFFCURVE",
"356 492 CURVE",
"474 554 LINE"
);
}
);
};
layerId = "BBAB2DB2-7554-4FB8-925D-17003E4845F8";
paths = (
{
closed = 1;
nodes = (
"614 0 LINE",
"614 980 LINE SMOOTH",
"614 1214 OFFCURVE",
"708 1330 OFFCURVE",
"898 1330 CURVE SMOOTH",
"958 1330 OFFCURVE",
"1018 1326 OFFCURVE",
"1102 1316 CURVE",
"1124 1500 LINE",
"1050 1514 OFFCURVE",
"984 1520 OFFCURVE",
"904 1520 CURVE SMOOTH",
"568 1520 OFFCURVE",
"402 1338 OFFCURVE",
"402 970 CURVE SMOOTH",
"402 0 LINE"
);
},
{
closed = 1;
nodes = (
"1048 644 LINE",
"1048 820 LINE",
"68 820 LINE",
"68 644 LINE"
);
}
);
width = 1200;
}
);
unicode = 0066;
},
{
glyphname = g;
lastChange = "2019-08-15 16:18:04 +0000";
layers = (
{
background = {
paths = (
{
closed = 1;
nodes = (
"818 204 LINE",
"818 -16 LINE SMOOTH",
"818 -156 OFFCURVE",
"742 -218 OFFCURVE",
"592 -228 CURVE SMOOTH",
"232 -250 LINE",
"222 -438 LINE",
"572 -422 LINE SMOOTH",
"882 -408 OFFCURVE",
"1034 -264 OFFCURVE",
"1030 16 CURVE SMOOTH",
"1030 204 LINE"
);
},
{
closed = 1;
nodes = (
"1030 204 LINE",
"1030 418 LINE",
"1210 440 LINE",
"1210 610 LINE",
"870 620 LINE",
"856 366 LINE",
"818 278 LINE",
"818 204 LINE"
);
}
);
};
layerId = "BBAB2DB2-7554-4FB8-925D-17003E4845F8";
paths = (
{
closed = 1;
nodes = (
"678 -20 OFFCURVE",
"786 42 OFFCURVE",
"800 164 CURVE",
"892 164 LINE",
"820 456 LINE",
"820 340 LINE SMOOTH",
"820 220 OFFCURVE",
"732 160 OFFCURVE",
"552 160 CURVE SMOOTH",
"390 160 OFFCURVE",
"306 282 OFFCURVE",
"306 520 CURVE SMOOTH",
"306 762 OFFCURVE",
"394 900 OFFCURVE",
"550 900 CURVE SMOOTH",
"730 900 OFFCURVE",
"820 800 OFFCURVE",
"820 596 CURVE",
"882 868 LINE",
"800 868 LINE",
"782 1010 OFFCURVE",
"690 1080 OFFCURVE",
"520 1080 CURVE SMOOTH",
"250 1080 OFFCURVE",
"96 876 OFFCURVE",
"96 520 CURVE SMOOTH",
"96 172 OFFCURVE",
"250 -20 OFFCURVE",
"518 -20 CURVE SMOOTH"
);
},
{
closed = 1;
nodes = (
"492 -468 LINE SMOOTH",
"868 -454 OFFCURVE",
"1032 -284 OFFCURVE",
"1032 94 CURVE SMOOTH",
"1032 304 LINE",
"818 304 LINE",
"818 62 LINE SMOOTH",
"818 -156 OFFCURVE",
"726 -264 OFFCURVE",
"512 -274 CURVE SMOOTH",
"172 -290 LINE",
"182 -478 LINE"
);
},
{
closed = 1;
nodes = (
"1032 260 LINE",
"1032 1060 LINE",
"840 1060 LINE",
"820 836 LINE",
"820 260 LINE"
);
}
);
width = 1200;
},
{
associatedMasterId = "BBAB2DB2-7554-4FB8-925D-17003E4845F8";
background = {
paths = (
{
closed = 1;
nodes = (
"1080 120 LINE",
"1084 1000 LINE",
"872 1000 LINE",
"872 120 LINE"
);
},
{
closed = 1;
nodes = (
"854 788 LINE",
"814 936 OFFCURVE",
"700 1020 OFFCURVE",
"540 1020 CURVE SMOOTH",
"252 1020 OFFCURVE",
"88 830 OFFCURVE",
"88 500 CURVE SMOOTH",
"88 170 OFFCURVE",
"244 -20 OFFCURVE",
"518 -20 CURVE SMOOTH",
"696 -20 OFFCURVE",
"820 64 OFFCURVE",
"860 212 CURVE",
"934 212 LINE",
"934 788 LINE"
);
},
{
closed = 1;
nodes = (
"406 170 OFFCURVE",
"308 290 OFFCURVE",
"308 500 CURVE SMOOTH",
"308 710 OFFCURVE",
"410 830 OFFCURVE",
"590 830 CURVE SMOOTH",
"770 830 OFFCURVE",
"872 710 OFFCURVE",
"872 500 CURVE SMOOTH",
"872 290 OFFCURVE",
"764 170 OFFCURVE",
"576 170 CURVE SMOOTH"
);
}
);
};
layerId = "EC47F624-9AA1-4CD7-90D5-9CECF947B54E";
name = "Apr 15 19, 16:50";
paths = (
{
closed = 1;
nodes = (
"1080 160 LINE",
"872 140 LINE",
"872 106 LINE SMOOTH",
"872 -174 OFFCURVE",
"758 -290 OFFCURVE",
"494 -290 CURVE SMOOTH",
"392 -290 OFFCURVE",
"296 -280 OFFCURVE",
"176 -258 CURVE",
"152 -440 LINE",
"240 -468 OFFCURVE",
"340 -480 OFFCURVE",
"494 -480 CURVE SMOOTH",
"904 -480 OFFCURVE",
"1080 -304 OFFCURVE",
"1080 110 CURVE SMOOTH"
);
},
{
closed = 1;
nodes = (
"1080 120 LINE",
"1084 1000 LINE",
"872 1000 LINE",
"872 120 LINE"
);
},
{
closed = 1;
nodes = (
"854 788 LINE",
"814 936 OFFCURVE",
"700 1020 OFFCURVE",
"540 1020 CURVE SMOOTH",
"252 1020 OFFCURVE",
"88 830 OFFCURVE",
"88 500 CURVE SMOOTH",
"88 170 OFFCURVE",
"244 -20 OFFCURVE",
"518 -20 CURVE SMOOTH",
"696 -20 OFFCURVE",
"820 64 OFFCURVE",
"860 212 CURVE",
"934 212 LINE",
"934 788 LINE"
);
},
{
closed = 1;
nodes = (
"406 170 OFFCURVE",
"308 290 OFFCURVE",
"308 500 CURVE SMOOTH",
"308 710 OFFCURVE",
"410 830 OFFCURVE",
"590 830 CURVE SMOOTH",
"770 830 OFFCURVE",
"872 710 OFFCURVE",
"872 500 CURVE SMOOTH",
"872 290 OFFCURVE",
"764 170 OFFCURVE",
"576 170 CURVE SMOOTH"
);
}
);
width = 1200;
}
);
unicode = 0067;
},
{
glyphname = h;
lastChange = "2019-08-15 16:18:04 +0000";
layers = (
{
background = {
paths = (
{
closed = 1;
nodes = (
"380 1500 LINE",
"168 1500 LINE",
"172 0 LINE",
"380 0 LINE"
);
},
{
closed = 1;
nodes = (
"824 0 LINE",
"1032 0 LINE",
"1032 560 LINE SMOOTH",
"1032 868 OFFCURVE",
"922 1020 OFFCURVE",
"698 1020 CURVE SMOOTH",
"534 1020 OFFCURVE",
"434 924 OFFCURVE",
"396 728 CURVE",
"326 728 LINE",
"380 400 LINE",
"380 632 OFFCURVE",
"460 830 OFFCURVE",
"648 830 CURVE SMOOTH",
"766 830 OFFCURVE",
"824 740 OFFCURVE",
"824 560 CURVE SMOOTH"
);
}
);
};
layerId = "BBAB2DB2-7554-4FB8-925D-17003E4845F8";
paths = (
{
closed = 1;
nodes = (
"1032 0 LINE",
"1032 690 LINE SMOOTH",
"1032 938 OFFCURVE",
"904 1080 OFFCURVE",
"680 1080 CURVE SMOOTH",
"502 1080 OFFCURVE",
"412 1010 OFFCURVE",
"400 868 CURVE",
"318 868 LINE",
"380 596 LINE",
"380 800 OFFCURVE",
"464 900 OFFCURVE",
"630 900 CURVE SMOOTH",
"750 900 OFFCURVE",
"820 824 OFFCURVE",
"820 690 CURVE SMOOTH",
"820 0 LINE"
);
},
{
closed = 1;
nodes = (
"380 0 LINE",
"380 1500 LINE",
"168 1500 LINE",
"168 0 LINE"
);
}
);
width = 1200;
}
);
unicode = 0068;
},
{
glyphname = i;
lastChange = "2019-08-15 16:18:04 +0000";
layers = (
{
layerId = "BBAB2DB2-7554-4FB8-925D-17003E4845F8";
paths = (
{
closed = 1;
nodes = (
"776 0 LINE",
"776 1060 LINE",
"564 1060 LINE",
"564 0 LINE"
);
},
{
closed = 1;
nodes = (
"584 0 LINE",
"584 174 LINE",
"160 174 LINE",
"160 0 LINE"
);
},
{
closed = 1;
nodes = (
"1102 0 LINE",
"1102 174 LINE",
"756 174 LINE",
"756 0 LINE"
);
},
{
closed = 1;
nodes = (
"584 884 LINE",
"584 1060 LINE",
"220 1060 LINE",
"220 884 LINE"
);
},
{
closed = 1;
nodes = (
"740 1228 OFFCURVE",
"806 1294 OFFCURVE",
"806 1376 CURVE SMOOTH",
"806 1458 OFFCURVE",
"740 1524 OFFCURVE",
"658 1524 CURVE SMOOTH",
"576 1524 OFFCURVE",
"510 1458 OFFCURVE",
"510 1376 CURVE SMOOTH",
"510 1294 OFFCURVE",
"576 1228 OFFCURVE",
"658 1228 CURVE SMOOTH"
);
}
);
width = 1200;
},
{
associatedMasterId = "BBAB2DB2-7554-4FB8-925D-17003E4845F8";
backgroundImage = {
crop = "{{1527.186, 0}, {319.829, 484.542}}";
imagePath = "1a.jpg";
locked = "1";
transform = "{1.876, 0, 0, 1.876, -2865, -109}";
};
layerId = "1F2C13BB-15AF-4E83-8FA6-79A46A0F741C";
name = "Apr 9 19, 16:08";
paths = (
{
closed = 1;
nodes = (
"942 -34 OFFCURVE",
"1054 -14 OFFCURVE",
"1168 36 CURVE",
"1140 220 LINE",
"1034 206 OFFCURVE",
"954 200 OFFCURVE",
"872 200 CURVE SMOOTH",
"780 200 OFFCURVE",
"740 240 OFFCURVE",
"740 336 CURVE SMOOTH",
"740 628 OFFCURVE",
"740 752 OFFCURVE",
"740 752 CURVE SMOOTH",
"740 952 OFFCURVE",
"650 1036 OFFCURVE",
"440 1036 CURVE SMOOTH",
"286 1036 OFFCURVE",
"162 1006 OFFCURVE",
"28 934 CURVE",
"114 736 LINE",
"236 776 OFFCURVE",
"320 792 OFFCURVE",
"400 792 CURVE SMOOTH",
"464 792 OFFCURVE",
"492 760 OFFCURVE",
"492 684 CURVE SMOOTH",
"492 226 LINE SMOOTH",
"492 44 OFFCURVE",
"582 -34 OFFCURVE",
"792 -34 CURVE SMOOTH"
);
},
{
closed = 1;
nodes = (
"676 1214 OFFCURVE",
"748 1286 OFFCURVE",
"748 1376 CURVE SMOOTH",
"748 1466 OFFCURVE",
"676 1538 OFFCURVE",
"586 1538 CURVE SMOOTH",
"496 1538 OFFCURVE",
"424 1466 OFFCURVE",
"424 1376 CURVE SMOOTH",
"424 1286 OFFCURVE",
"496 1214 OFFCURVE",
"586 1214 CURVE SMOOTH"
);
}
);
width = 1200;
},
{
associatedMasterId = "BBAB2DB2-7554-4FB8-925D-17003E4845F8";
layerId = "721D5BD5-2147-4BD9-A202-9CBF877C9309";
name = "May 1 19, 10:39";
paths = (
{
closed = 1;
nodes = (
"700 1228 OFFCURVE",
"766 1294 OFFCURVE",
"766 1376 CURVE SMOOTH",
"766 1458 OFFCURVE",
"700 1524 OFFCURVE",
"618 1524 CURVE SMOOTH",
"536 1524 OFFCURVE",
"470 1458 OFFCURVE",
"470 1376 CURVE SMOOTH",
"470 1294 OFFCURVE",
"536 1228 OFFCURVE",
"618 1228 CURVE SMOOTH"
);
},
{
closed = 1;
nodes = (
"736 0 LINE",
"736 1000 LINE",
"524 1000 LINE",
"524 0 LINE"
);
},
{
closed = 1;
nodes = (
"544 824 LINE",
"544 1000 LINE",
"150 1000 LINE",
"148 824 LINE"
);
},
{
closed = 1;
nodes = (
"544 0 LINE",
"544 176 LINE",
"150 176 LINE",
"148 0 LINE"
);
},
{
closed = 1;
nodes = (
"1072 0 LINE",
"1072 176 LINE",
"718 176 LINE",
"716 0 LINE"
);
}
);
width = 1200;
}
);
unicode = 0069;
},
{
glyphname = j;
lastChange = "2019-08-15 16:18:04 +0000";
layers = (
{
background = {
components = (
{
name = i;
}
);
};
layerId = "BBAB2DB2-7554-4FB8-925D-17003E4845F8";
paths = (
{
closed = 1;
nodes = (
"350 -468 LINE SMOOTH",
"726 -438 OFFCURVE",
"888 -284 OFFCURVE",
"888 94 CURVE SMOOTH",
"888 384 LINE",
"676 384 LINE",
"676 62 LINE SMOOTH",
"676 -156 OFFCURVE",
"584 -254 OFFCURVE",
"370 -274 CURVE SMOOTH",
"170 -292 LINE",
"180 -480 LINE"
);
},
{
closed = 1;
nodes = (
"692 884 LINE",
"692 1060 LINE",
"264 1060 LINE",
"264 884 LINE"
);
},
{
closed = 1;
nodes = (
"888 350 LINE",
"888 1060 LINE",
"676 1060 LINE",
"676 350 LINE"
);
},
{
closed = 1;
nodes = (
"842 1228 OFFCURVE",
"908 1294 OFFCURVE",
"908 1376 CURVE SMOOTH",
"908 1458 OFFCURVE",
"842 1524 OFFCURVE",
"760 1524 CURVE SMOOTH",
"678 1524 OFFCURVE",
"612 1458 OFFCURVE",
"612 1376 CURVE SMOOTH",
"612 1294 OFFCURVE",
"678 1228 OFFCURVE",
"760 1228 CURVE SMOOTH"
);
}
);
width = 1200;
}
);
unicode = 006A;
},
{
glyphname = k;
lastChange = "2019-08-15 16:18:04 +0000";
layers = (
{
associatedMasterId = "BBAB2DB2-7554-4FB8-925D-17003E4845F8";
layerId = "F1C03781-1695-4B33-9CFE-79FAD36C8370";
name = "Apr 15 19, 16:54";
paths = (
{
closed = 1;
nodes = (
"300 1500 LINE",
"88 1500 LINE",
"92 0 LINE",
"300 0 LINE"
);
},
{
closed = 1;
nodes = (
"830 0 LINE",
"1092 0 LINE",
"762 546 LINE",
"562 464 LINE"
);
},
{
closed = 1;
nodes = (
"720 436 LINE",
"720 612 LINE",
"242 612 LINE",
"240 436 LINE"
);
},
{
closed = 1;
nodes = (
"706 442 LINE",
"1092 1000 LINE",
"850 1000 LINE",
"528 538 LINE"
);
}
);
width = 1200;
},
{
background = {
components = (
{
name = b;
}
);
};
layerId = "BBAB2DB2-7554-4FB8-925D-17003E4845F8";
paths = (
{
closed = 1;
nodes = (
"480 422 LINE SMOOTH",
"822 422 OFFCURVE",
"1016 632 OFFCURVE",
"1072 1060 CURVE",
"852 1060 LINE",
"806 732 OFFCURVE",
"694 612 OFFCURVE",
"430 612 CURVE SMOOTH",
"310 612 LINE",
"310 422 LINE"
);
},
{
closed = 1;
nodes = (
"372 0 LINE",
"372 1500 LINE",
"160 1500 LINE",
"160 0 LINE"
);
},
{
closed = 1;
nodes = (
"1140 0 LINE",
"776 598 LINE",
"576 516 LINE",
"878 0 LINE"
);
}
);
width = 1200;
}
);
unicode = 006B;
},
{
glyphname = l;
lastChange = "2019-08-15 16:18:04 +0000";
layers = (
{
background = {
paths = (
{
closed = 1;
nodes = (
"432 462 LINE",
"432 332 LINE",
"484 -10 LINE",
"1084 0 LINE",
"1084 170 LINE",
"644 192 LINE",
"644 462 LINE"
);
}
);
};
layerId = "BBAB2DB2-7554-4FB8-925D-17003E4845F8";
paths = (
{
closed = 1;
nodes = (
"862 -20 OFFCURVE",
"956 -8 OFFCURVE",
"1064 22 CURVE",
"1040 208 LINE",
"952 182 OFFCURVE",
"888 170 OFFCURVE",
"828 170 CURVE SMOOTH",
"646 170 OFFCURVE",
"612 242 OFFCURVE",
"612 410 CURVE SMOOTH",
"612 1500 LINE",
"400 1500 LINE",
"400 400 LINE SMOOTH",
"400 106 OFFCURVE",
"502 -20 OFFCURVE",
"748 -20 CURVE SMOOTH"
);
},
{
closed = 1;
nodes = (
"418 1324 LINE",
"418 1500 LINE",
"88 1500 LINE",
"88 1324 LINE"
);
}
);
width = 1200;
}
);
unicode = 006C;
},
{
glyphname = m;
lastChange = "2019-08-15 16:18:04 +0000";
layers = (
{
associatedMasterId = "BBAB2DB2-7554-4FB8-925D-17003E4845F8";
background = {
paths = (
{
closed = 1;
nodes = (
"370 1000 LINE",
"168 1000 LINE",
"172 0 LINE",
"370 0 LINE"
);
},
{
closed = 1;
nodes = (
"502 0 LINE",
"700 0 LINE",
"700 660 LINE SMOOTH",
"700 902 OFFCURVE",
"646 1020 OFFCURVE",
"534 1020 CURVE SMOOTH",
"454 1020 OFFCURVE",
"404 964 OFFCURVE",
"386 848 CURVE",
"316 848 LINE",
"370 580 LINE",
"370 794 OFFCURVE",
"392 830 OFFCURVE",
"446 830 CURVE SMOOTH",
"484 830 OFFCURVE",
"502 800 OFFCURVE",
"502 740 CURVE SMOOTH"
);
},
{
closed = 1;
nodes = (
"834 0 LINE",
"1032 0 LINE",
"1032 740 LINE SMOOTH",
"1032 928 OFFCURVE",
"974 1020 OFFCURVE",
"856 1020 CURVE SMOOTH",
"772 1020 OFFCURVE",
"722 962 OFFCURVE",
"702 848 CURVE",
"646 848 LINE",
"700 580 LINE",
"700 796 OFFCURVE",
"724 830 OFFCURVE",
"784 830 CURVE SMOOTH",
"818 830 OFFCURVE",
"834 800 OFFCURVE",
"834 740 CURVE SMOOTH"
);
}
);
};
layerId = "B0A5AC55-84BB-4956-8A24-454B9F6E3C52";
name = "May 6 19, 10:23";
paths = (
{
closed = 1;
nodes = (
"366 776 LINE",
"346 1000 LINE",
"168 1000 LINE",
"172 0 LINE",
"366 0 LINE"
);
},
{
closed = 1;
nodes = (
"502 0 LINE",
"698 0 LINE",
"698 750 LINE SMOOTH",
"694 930 OFFCURVE",
"638 1020 OFFCURVE",
"532 1020 CURVE SMOOTH",
"434 1020 OFFCURVE",
"382 970 OFFCURVE",
"376 868 CURVE",
"304 868 LINE",
"366 716 LINE",
"366 798 OFFCURVE",
"390 840 OFFCURVE",
"438 840 CURVE SMOOTH",
"480 840 OFFCURVE",
"502 810 OFFCURVE",
"502 750 CURVE SMOOTH"
);
},
{
closed = 1;
nodes = (
"836 0 LINE",
"1032 0 LINE",
"1032 710 LINE SMOOTH",
"1032 918 OFFCURVE",
"974 1020 OFFCURVE",
"856 1020 CURVE SMOOTH",
"766 1020 OFFCURVE",
"718 970 OFFCURVE",
"712 868 CURVE",
"634 868 LINE",
"698 716 LINE",
"698 798 OFFCURVE",
"722 840 OFFCURVE",
"772 840 CURVE SMOOTH",
"814 840 OFFCURVE",
"836 810 OFFCURVE",
"836 750 CURVE SMOOTH"
);
}
);
width = 1200;
},
{
background = {
paths = (
{
closed = 1;
nodes = (
"366 776 LINE",
"346 1000 LINE",
"168 1000 LINE",
"172 0 LINE",
"366 0 LINE"
);
},
{
closed = 1;
nodes = (
"502 0 LINE",
"698 0 LINE",
"698 750 LINE SMOOTH",
"694 930 OFFCURVE",
"638 1020 OFFCURVE",
"532 1020 CURVE SMOOTH",
"434 1020 OFFCURVE",
"382 970 OFFCURVE",
"376 868 CURVE",
"304 868 LINE",
"366 716 LINE",
"366 798 OFFCURVE",
"390 840 OFFCURVE",
"438 840 CURVE SMOOTH",
"480 840 OFFCURVE",
"502 810 OFFCURVE",
"502 750 CURVE SMOOTH"
);
},
{
closed = 1;
nodes = (
"836 0 LINE",
"1032 0 LINE",
"1032 710 LINE SMOOTH",
"1032 918 OFFCURVE",
"974 1020 OFFCURVE",
"856 1020 CURVE SMOOTH",
"766 1020 OFFCURVE",
"718 970 OFFCURVE",
"712 868 CURVE",
"634 868 LINE",
"698 716 LINE",
"698 798 OFFCURVE",
"722 840 OFFCURVE",
"772 840 CURVE SMOOTH",
"814 840 OFFCURVE",
"836 810 OFFCURVE",
"836 750 CURVE SMOOTH"
);
}
);
};
layerId = "BBAB2DB2-7554-4FB8-925D-17003E4845F8";
paths = (
{
closed = 1;
nodes = (
"1088 0 LINE",
"1088 830 LINE SMOOTH",
"1088 1006 OFFCURVE",
"1024 1080 OFFCURVE",
"878 1080 CURVE SMOOTH",
"766 1080 OFFCURVE",
"706 1010 OFFCURVE",
"700 928 CURVE",
"618 928 LINE",
"690 776 LINE",
"690 872 OFFCURVE",
"724 920 OFFCURVE",
"794 920 CURVE SMOOTH",
"850 920 OFFCURVE",
"876 884 OFFCURVE",
"876 810 CURVE SMOOTH",
"876 0 LINE"
);
},
{
closed = 1;
nodes = (
"324 0 LINE",
"324 836 LINE",
"300 1060 LINE",
"112 1060 LINE",
"112 0 LINE"
);
},
{
closed = 1;
nodes = (
"690 0 LINE",
"690 850 LINE SMOOTH",
"690 1004 OFFCURVE",
"622 1080 OFFCURVE",
"512 1080 CURVE SMOOTH",
"396 1080 OFFCURVE",
"338 1030 OFFCURVE",
"330 928 CURVE",
"262 928 LINE",
"324 776 LINE",
"324 872 OFFCURVE",
"358 920 OFFCURVE",
"426 920 CURVE SMOOTH",
"482 920 OFFCURVE",
"510 890 OFFCURVE",
"510 830 CURVE SMOOTH",
"510 0 LINE"
);
}
);
width = 1200;
},
{
associatedMasterId = "BBAB2DB2-7554-4FB8-925D-17003E4845F8";
background = {
paths = (
{
closed = 1;
nodes = (
"366 776 LINE",
"346 1000 LINE",
"168 1000 LINE",
"172 0 LINE",
"366 0 LINE"
);
},
{
closed = 1;
nodes = (
"502 0 LINE",
"698 0 LINE",
"698 750 LINE SMOOTH",
"694 930 OFFCURVE",
"638 1020 OFFCURVE",
"532 1020 CURVE SMOOTH",
"434 1020 OFFCURVE",
"382 970 OFFCURVE",
"376 868 CURVE",
"304 868 LINE",
"366 716 LINE",
"366 798 OFFCURVE",
"390 840 OFFCURVE",
"438 840 CURVE SMOOTH",
"480 840 OFFCURVE",
"502 810 OFFCURVE",
"502 750 CURVE SMOOTH"
);
},
{
closed = 1;
nodes = (
"836 0 LINE",
"1032 0 LINE",
"1032 710 LINE SMOOTH",
"1032 918 OFFCURVE",
"974 1020 OFFCURVE",
"856 1020 CURVE SMOOTH",
"766 1020 OFFCURVE",
"718 970 OFFCURVE",
"712 868 CURVE",
"634 868 LINE",
"698 716 LINE",
"698 798 OFFCURVE",
"722 840 OFFCURVE",
"772 840 CURVE SMOOTH",
"814 840 OFFCURVE",
"836 810 OFFCURVE",
"836 750 CURVE SMOOTH"
);
}
);
};
layerId = "E1EC138A-A437-417A-93FF-A4D1FD10721C";
name = "Aug 2 19, 10:41";
paths = (
{
closed = 1;
nodes = (
"400 836 LINE",
"380 1060 LINE",
"208 1060 LINE",
"212 0 LINE",
"400 0 LINE"
);
},
{
closed = 1;
nodes = (
"1002 0 LINE",
"1192 0 LINE",
"1192 830 LINE SMOOTH",
"1192 1006 OFFCURVE",
"1128 1080 OFFCURVE",
"980 1080 CURVE SMOOTH",
"868 1080 OFFCURVE",
"806 1010 OFFCURVE",
"800 928 CURVE",
"718 928 LINE",
"790 776 LINE",
"790 872 OFFCURVE",
"828 920 OFFCURVE",
"904 920 CURVE SMOOTH",
"970 920 OFFCURVE",
"1002 884 OFFCURVE",
"1002 810 CURVE SMOOTH"
);
},
{
closed = 1;
nodes = (
"612 0 LINE",
"790 0 LINE",
"790 850 LINE SMOOTH",
"790 1004 OFFCURVE",
"724 1080 OFFCURVE",
"612 1080 CURVE SMOOTH",
"482 1080 OFFCURVE",
"414 1030 OFFCURVE",
"406 928 CURVE",
"338 928 LINE",
"400 776 LINE",
"400 872 OFFCURVE",
"440 920 OFFCURVE",
"518 920 CURVE SMOOTH",
"580 920 OFFCURVE",
"612 890 OFFCURVE",
"612 830 CURVE SMOOTH"
);
}
);
width = 1400;
}
);
unicode = 006D;
},
{
glyphname = n;
lastChange = "2019-08-15 16:18:04 +0000";
layers = (
{
background = {
paths = (
{
closed = 1;
nodes = (
"380 1000 LINE",
"168 1000 LINE",
"172 0 LINE",
"380 0 LINE"
);
},
{
closed = 1;
nodes = (
"824 0 LINE",
"1032 0 LINE",
"1032 560 LINE SMOOTH",
"1032 868 OFFCURVE",
"922 1020 OFFCURVE",
"698 1020 CURVE SMOOTH",
"534 1020 OFFCURVE",
"434 924 OFFCURVE",
"396 728 CURVE",
"326 728 LINE",
"380 400 LINE",
"380 632 OFFCURVE",
"460 830 OFFCURVE",
"648 830 CURVE SMOOTH",
"766 830 OFFCURVE",
"824 740 OFFCURVE",
"824 560 CURVE SMOOTH"
);
}
);
};
layerId = "BBAB2DB2-7554-4FB8-925D-17003E4845F8";
paths = (
{
closed = 1;
nodes = (
"1032 0 LINE",
"1032 690 LINE SMOOTH",
"1032 938 OFFCURVE",
"904 1080 OFFCURVE",
"680 1080 CURVE SMOOTH",
"502 1080 OFFCURVE",
"412 1010 OFFCURVE",
"400 868 CURVE",
"318 868 LINE",
"380 596 LINE",
"380 800 OFFCURVE",
"464 900 OFFCURVE",
"630 900 CURVE SMOOTH",
"750 900 OFFCURVE",
"820 824 OFFCURVE",
"820 690 CURVE SMOOTH",
"820 0 LINE"
);
},
{
closed = 1;
nodes = (
"380 0 LINE",
"380 836 LINE",
"360 1060 LINE",
"168 1060 LINE",
"168 0 LINE"
);
}
);
width = 1200;
}
);
unicode = 006E;
},
{
glyphname = o;
lastChange = "2019-08-15 16:18:04 +0000";
layers = (
{
layerId = "BBAB2DB2-7554-4FB8-925D-17003E4845F8";
paths = (
{
closed = 1;
nodes = (
"894 -20 OFFCURVE",
"1064 180 OFFCURVE",
"1064 530 CURVE SMOOTH",
"1064 880 OFFCURVE",
"894 1080 OFFCURVE",
"600 1080 CURVE SMOOTH",
"306 1080 OFFCURVE",
"136 880 OFFCURVE",
"136 530 CURVE SMOOTH",
"136 180 OFFCURVE",
"306 -20 OFFCURVE",
"600 -20 CURVE SMOOTH"
);
},
{
closed = 1;
nodes = (
"444 170 OFFCURVE",
"356 300 OFFCURVE",
"356 530 CURVE SMOOTH",
"356 760 OFFCURVE",
"444 890 OFFCURVE",
"600 890 CURVE SMOOTH",
"756 890 OFFCURVE",
"844 760 OFFCURVE",
"844 530 CURVE SMOOTH",
"844 300 OFFCURVE",
"756 170 OFFCURVE",
"600 170 CURVE SMOOTH"
);
}
);
width = 1200;
}
);
unicode = 006F;
},
{
glyphname = p;
lastChange = "2019-08-15 16:18:04 +0000";
layers = (
{
background = {
paths = (
{
closed = 1;
nodes = (
"380 1000 LINE",
"168 1000 LINE",
"172 -460 LINE",
"380 -460 LINE"
);
},
{
closed = 1;
nodes = (
"318 212 LINE",
"392 212 LINE",
"430 64 OFFCURVE",
"552 -20 OFFCURVE",
"724 -20 CURVE SMOOTH",
"966 -20 OFFCURVE",
"1104 170 OFFCURVE",
"1104 500 CURVE SMOOTH",
"1104 830 OFFCURVE",
"958 1020 OFFCURVE",
"702 1020 CURVE SMOOTH",
"548 1020 OFFCURVE",
"436 936 OFFCURVE",
"398 788 CURVE",
"318 788 LINE"
);
},
{
closed = 1;
nodes = (
"478 170 OFFCURVE",
"380 290 OFFCURVE",
"380 500 CURVE SMOOTH",
"380 710 OFFCURVE",
"472 830 OFFCURVE",
"632 830 CURVE SMOOTH",
"792 830 OFFCURVE",
"884 710 OFFCURVE",
"884 500 CURVE SMOOTH",
"884 290 OFFCURVE",
"796 170 OFFCURVE",
"646 170 CURVE SMOOTH"
);
}
);
};
layerId = "BBAB2DB2-7554-4FB8-925D-17003E4845F8";
paths = (
{
closed = 1;
nodes = (
"950 -20 OFFCURVE",
"1104 172 OFFCURVE",
"1104 520 CURVE SMOOTH",
"1104 876 OFFCURVE",
"950 1080 OFFCURVE",
"680 1080 CURVE SMOOTH",
"510 1080 OFFCURVE",
"418 1010 OFFCURVE",
"400 868 CURVE",
"318 868 LINE",
"380 596 LINE",
"380 800 OFFCURVE",
"470 900 OFFCURVE",
"650 900 CURVE SMOOTH",
"806 900 OFFCURVE",
"894 762 OFFCURVE",
"894 520 CURVE SMOOTH",
"894 282 OFFCURVE",
"810 160 OFFCURVE",
"648 160 CURVE SMOOTH",
"468 160 OFFCURVE",
"380 220 OFFCURVE",
"380 340 CURVE SMOOTH",
"380 456 LINE",
"308 164 LINE",
"400 164 LINE",
"414 42 OFFCURVE",
"522 -20 OFFCURVE",
"682 -20 CURVE SMOOTH"
);
},
{
closed = 1;
nodes = (
"380 -460 LINE",
"380 836 LINE",
"360 1060 LINE",
"168 1060 LINE",
"168 -460 LINE"
);
}
);
width = 1200;
}
);
unicode = 0070;
},
{
glyphname = q;
lastChange = "2019-08-15 16:18:04 +0000";
layers = (
{
background = {
paths = (
{
closed = 1;
nodes = (
"1028 -460 LINE",
"1032 1000 LINE",
"820 1000 LINE",
"820 -460 LINE"
);
},
{
closed = 1;
nodes = (
"802 788 LINE",
"764 936 OFFCURVE",
"652 1020 OFFCURVE",
"498 1020 CURVE SMOOTH",
"242 1020 OFFCURVE",
"96 830 OFFCURVE",
"96 500 CURVE SMOOTH",
"96 170 OFFCURVE",
"234 -20 OFFCURVE",
"476 -20 CURVE SMOOTH",
"648 -20 OFFCURVE",
"770 64 OFFCURVE",
"808 212 CURVE",
"882 212 LINE",
"882 788 LINE"
);
},
{
closed = 1;
nodes = (
"404 170 OFFCURVE",
"316 290 OFFCURVE",
"316 500 CURVE SMOOTH",
"316 710 OFFCURVE",
"408 830 OFFCURVE",
"568 830 CURVE SMOOTH",
"728 830 OFFCURVE",
"820 710 OFFCURVE",
"820 500 CURVE SMOOTH",
"820 290 OFFCURVE",
"722 170 OFFCURVE",
"554 170 CURVE SMOOTH"
);
}
);
};
layerId = "BBAB2DB2-7554-4FB8-925D-17003E4845F8";
paths = (
{
closed = 1;
nodes = (
"670 -20 OFFCURVE",
"778 42 OFFCURVE",
"792 164 CURVE",
"884 164 LINE",
"812 456 LINE",
"812 340 LINE SMOOTH",
"812 220 OFFCURVE",
"724 160 OFFCURVE",
"544 160 CURVE SMOOTH",
"382 160 OFFCURVE",
"298 282 OFFCURVE",
"298 520 CURVE SMOOTH",
"298 762 OFFCURVE",
"386 900 OFFCURVE",
"542 900 CURVE SMOOTH",
"722 900 OFFCURVE",
"812 800 OFFCURVE",
"812 596 CURVE",
"874 868 LINE",
"792 868 LINE",
"774 1010 OFFCURVE",
"682 1080 OFFCURVE",
"512 1080 CURVE SMOOTH",
"242 1080 OFFCURVE",
"88 876 OFFCURVE",
"88 520 CURVE SMOOTH",
"88 172 OFFCURVE",
"242 -20 OFFCURVE",
"510 -20 CURVE SMOOTH"
);
},
{
closed = 1;
nodes = (
"1024 -460 LINE",
"1024 1060 LINE",
"832 1060 LINE",
"812 836 LINE",
"812 -460 LINE"
);
}
);
width = 1200;
}
);
unicode = 0071;
},
{
glyphname = r;
lastChange = "2019-08-15 16:18:04 +0000";
layers = (
{
background = {
paths = (
{
closed = 1;
nodes = (
"1152 622 LINE",
"1152 902 OFFCURVE",
"1054 1020 OFFCURVE",
"828 1020 CURVE SMOOTH",
"626 1020 OFFCURVE",
"520 904 OFFCURVE",
"508 668 CURVE",
"426 668 LINE",
"488 396 LINE",
"488 600 OFFCURVE",
"588 840 OFFCURVE",
"788 840 CURVE SMOOTH",
"896 840 OFFCURVE",
"942 776 OFFCURVE",
"942 622 CURVE"
);
}
);
};
layerId = "BBAB2DB2-7554-4FB8-925D-17003E4845F8";
paths = (
{
closed = 1;
nodes = (
"528 740 OFFCURVE",
"616 900 OFFCURVE",
"796 900 CURVE SMOOTH",
"898 900 OFFCURVE",
"942 836 OFFCURVE",
"942 682 CURVE",
"1152 682 LINE",
"1152 962 OFFCURVE",
"1058 1080 OFFCURVE",
"840 1080 CURVE SMOOTH",
"656 1080 OFFCURVE",
"560 984 OFFCURVE",
"548 788 CURVE",
"466 788 LINE",
"528 456 LINE"
);
},
{
closed = 1;
nodes = (
"788 0 LINE",
"788 176 LINE",
"80 176 LINE",
"80 0 LINE"
);
},
{
closed = 1;
nodes = (
"528 0 LINE",
"528 756 LINE",
"488 1060 LINE",
"316 1060 LINE",
"316 0 LINE"
);
},
{
closed = 1;
nodes = (
"494 884 LINE",
"474 1060 LINE",
"120 1060 LINE",
"120 884 LINE"
);
}
);
width = 1200;
},
{
associatedMasterId = "BBAB2DB2-7554-4FB8-925D-17003E4845F8";
background = {
components = (
{
name = c;
transform = "{1, 0, 0, 1, 60, 0}";
}
);
};
layerId = "649B52A8-8D5B-4732-8663-EE57F1A09DFA";
name = "Apr 16 19, 00:36";
paths = (
{
closed = 1;
nodes = (
"488 1000 LINE",
"276 1000 LINE",
"280 0 LINE",
"488 0 LINE"
);
},
{
closed = 1;
nodes = (
"868 810 OFFCURVE",
"900 808 OFFCURVE",
"934 800 CURVE",
"958 1010 LINE",
"926 1016 OFFCURVE",
"896 1020 OFFCURVE",
"864 1020 CURVE SMOOTH",
"668 1020 OFFCURVE",
"548 830 OFFCURVE",
"504 448 CURVE",
"434 448 LINE",
"488 0 LINE",
"488 436 OFFCURVE",
"602 810 OFFCURVE",
"834 810 CURVE SMOOTH"
);
},
{
closed = 1;
nodes = (
"474 824 LINE",
"474 1000 LINE",
"82 1000 LINE",
"82 824 LINE"
);
}
);
width = 1200;
},
{
associatedMasterId = "BBAB2DB2-7554-4FB8-925D-17003E4845F8";
background = {
components = (
{
name = c;
transform = "{1, 0, 0, 1, 60, 0}";
}
);
};
layerId = "013CF6F4-A62F-4C05-B19D-2B090C802515";
name = "Apr 16 19, 21:36";
paths = (
{
closed = 1;
nodes = (
"448 1000 LINE",
"236 1000 LINE",
"240 0 LINE",
"448 0 LINE"
);
},
{
closed = 1;
nodes = (
"868 830 OFFCURVE",
"932 746 OFFCURVE",
"932 602 CURVE",
"1152 602 LINE",
"1152 868 OFFCURVE",
"1032 1020 OFFCURVE",
"824 1020 CURVE SMOOTH",
"636 1020 OFFCURVE",
"506 892 OFFCURVE",
"464 668 CURVE",
"394 668 LINE",
"448 200 LINE",
"448 600 OFFCURVE",
"560 830 OFFCURVE",
"754 830 CURVE SMOOTH"
);
},
{
closed = 1;
nodes = (
"434 824 LINE",
"434 1000 LINE",
"42 1000 LINE",
"42 824 LINE"
);
}
);
width = 1200;
},
{
associatedMasterId = "BBAB2DB2-7554-4FB8-925D-17003E4845F8";
background = {
paths = (
{
closed = 1;
nodes = (
"1152 622 LINE",
"1152 902 OFFCURVE",
"1054 1020 OFFCURVE",
"828 1020 CURVE SMOOTH",
"626 1020 OFFCURVE",
"520 904 OFFCURVE",
"508 668 CURVE",
"426 668 LINE",
"488 396 LINE",
"488 600 OFFCURVE",
"588 840 OFFCURVE",
"788 840 CURVE SMOOTH",
"896 840 OFFCURVE",
"942 776 OFFCURVE",
"942 622 CURVE"
);
}
);
};
layerId = "F3C90389-557F-4181-AC7D-5165C9D278A2";
name = "Apr 29 19, 15:30";
paths = (
{
closed = 1;
nodes = (
"488 1000 LINE",
"276 1000 LINE",
"280 0 LINE",
"488 0 LINE"
);
},
{
closed = 1;
nodes = (
"474 824 LINE",
"474 1000 LINE",
"80 1000 LINE",
"80 824 LINE"
);
},
{
closed = 1;
nodes = (
"1152 622 LINE",
"1152 1020 OFFCURVE",
"886 1020 OFFCURVE",
"814 1020 CURVE SMOOTH",
"586 1020 OFFCURVE",
"456 838 OFFCURVE",
"456 522 CURVE",
"488 312 LINE",
"488 642 OFFCURVE",
"584 830 OFFCURVE",
"746 830 CURVE SMOOTH",
"864 830 OFFCURVE",
"934 754 OFFCURVE",
"934 622 CURVE"
);
},
{
closed = 1;
nodes = (
"708 0 LINE",
"708 176 LINE",
"80 176 LINE",
"80 0 LINE"
);
}
);
width = 1200;
},
{
associatedMasterId = "BBAB2DB2-7554-4FB8-925D-17003E4845F8";
background = {
paths = (
{
closed = 1;
nodes = (
"1152 622 LINE",
"1152 902 OFFCURVE",
"1054 1020 OFFCURVE",
"828 1020 CURVE SMOOTH",
"626 1020 OFFCURVE",
"520 904 OFFCURVE",
"508 668 CURVE",
"426 668 LINE",
"488 396 LINE",
"488 600 OFFCURVE",
"588 840 OFFCURVE",
"788 840 CURVE SMOOTH",
"896 840 OFFCURVE",
"942 776 OFFCURVE",
"942 622 CURVE"
);
}
);
};
layerId = "0D60FED7-0F56-40C2-B674-EF87BA57791E";
name = "Jul 3 19, 22:06";
paths = (
{
closed = 1;
nodes = (
"588 1060 LINE",
"376 1060 LINE",
"380 0 LINE",
"588 0 LINE"
);
},
{
closed = 1;
nodes = (
"574 884 LINE",
"574 1060 LINE",
"140 1060 LINE",
"140 884 LINE"
);
},
{
closed = 1;
nodes = (
"808 0 LINE",
"808 176 LINE",
"140 176 LINE",
"140 0 LINE"
);
},
{
closed = 1;
nodes = (
"1292 682 LINE",
"1292 962 OFFCURVE",
"1180 1080 OFFCURVE",
"920 1080 CURVE SMOOTH",
"724 1080 OFFCURVE",
"620 984 OFFCURVE",
"608 788 CURVE",
"526 788 LINE",
"588 456 LINE",
"588 660 OFFCURVE",
"690 900 OFFCURVE",
"896 900 CURVE SMOOTH",
"1026 900 OFFCURVE",
"1082 836 OFFCURVE",
"1082 682 CURVE"
);
}
);
width = 1400;
}
);
unicode = 0072;
},
{
glyphname = s;
lastChange = "2019-08-15 16:18:04 +0000";
layers = (
{
background = {
paths = (
{
closed = 1;
nodes = (
"438 606 LINE SMOOTH",
"438 746 OFFCURVE",
"514 812 OFFCURVE",
"664 818 CURVE SMOOTH",
"978 830 LINE",
"958 1020 LINE",
"684 1012 LINE SMOOTH",
"374 1002 OFFCURVE",
"222 854 OFFCURVE",
"226 574 CURVE",
"226 192 LINE",
"46 170 LINE",
"46 0 LINE",
"386 -10 LINE",
"400 244 LINE",
"438 332 LINE"
);
}
);
};
layerId = "BBAB2DB2-7554-4FB8-925D-17003E4845F8";
paths = (
{
closed = 1;
nodes = (
"886 -20 OFFCURVE",
"1044 78 OFFCURVE",
"1044 306 CURVE SMOOTH",
"1044 476 OFFCURVE",
"944 554 OFFCURVE",
"722 608 CURVE SMOOTH",
"526 656 LINE SMOOTH",
"448 676 OFFCURVE",
"412 698 OFFCURVE",
"412 760 CURVE SMOOTH",
"412 852 OFFCURVE",
"506 890 OFFCURVE",
"730 890 CURVE SMOOTH",
"808 890 OFFCURVE",
"886 886 OFFCURVE",
"994 876 CURVE",
"1016 1060 LINE",
"922 1074 OFFCURVE",
"838 1080 OFFCURVE",
"736 1080 CURVE SMOOTH",
"354 1080 OFFCURVE",
"192 982 OFFCURVE",
"192 750 CURVE SMOOTH",
"192 590 OFFCURVE",
"280 522 OFFCURVE",
"476 472 CURVE SMOOTH",
"720 410 LINE SMOOTH",
"790 392 OFFCURVE",
"824 366 OFFCURVE",
"824 302 CURVE SMOOTH",
"824 210 OFFCURVE",
"732 170 OFFCURVE",
"518 170 CURVE SMOOTH",
"422 170 OFFCURVE",
"320 180 OFFCURVE",
"180 202 CURVE",
"156 10 LINE",
"250 -12 OFFCURVE",
"358 -20 OFFCURVE",
"518 -20 CURVE SMOOTH"
);
}
);
width = 1200;
},
{
associatedMasterId = "BBAB2DB2-7554-4FB8-925D-17003E4845F8";
layerId = "AEE5D809-9A18-45A0-8CAD-E8A4C45B5859";
name = "Apr 9 19, 16:05";
paths = (
{
closed = 1;
nodes = (
"540 1046 LINE",
"676 1046 LINE",
"916 738 OFFCURVE",
"1108 602 OFFCURVE",
"1108 356 CURVE SMOOTH",
"1108 116 OFFCURVE",
"934 -20 OFFCURVE",
"632 -20 CURVE SMOOTH",
"540 -20 OFFCURVE",
"456 -14 OFFCURVE",
"380 6 CURVE",
"420 248 LINE",
"510 238 OFFCURVE",
"580 228 OFFCURVE",
"638 228 CURVE SMOOTH",
"792 228 OFFCURVE",
"848 278 OFFCURVE",
"848 380 CURVE SMOOTH",
"848 516 OFFCURVE",
"694 670 OFFCURVE",
"566 802 CURVE",
"650 824 LINE",
"206 252 LINE",
"20 400 LINE"
);
}
);
width = 1200;
},
{
associatedMasterId = "BBAB2DB2-7554-4FB8-925D-17003E4845F8";
background = {
paths = (
{
closed = 1;
nodes = (
"208 10 LINE",
"312 -16 OFFCURVE",
"424 -30 OFFCURVE",
"548 -30 CURVE SMOOTH",
"898 -30 OFFCURVE",
"1072 72 OFFCURVE",
"1072 280 CURVE SMOOTH",
"1072 436 OFFCURVE",
"982 526 OFFCURVE",
"798 554 CURVE SMOOTH",
"494 600 LINE SMOOTH",
"424 610 OFFCURVE",
"390 648 OFFCURVE",
"390 708 CURVE SMOOTH",
"390 790 OFFCURVE",
"464 830 OFFCURVE",
"616 830 CURVE SMOOTH",
"760 830 OFFCURVE",
"908 808 OFFCURVE",
"1060 764 CURVE",
"1126 964 LINE",
"1014 1002 OFFCURVE",
"858 1020 OFFCURVE",
"656 1020 CURVE SMOOTH",
"332 1020 OFFCURVE",
"170 916 OFFCURVE",
"170 704 CURVE SMOOTH",
"170 534 OFFCURVE",
"270 438 OFFCURVE",
"472 410 CURVE SMOOTH",
"728 374 LINE SMOOTH",
"810 362 OFFCURVE",
"852 328 OFFCURVE",
"852 270 CURVE SMOOTH",
"852 196 OFFCURVE",
"754 160 OFFCURVE",
"554 160 CURVE SMOOTH",
"466 160 OFFCURVE",
"358 166 OFFCURVE",
"230 192 CURVE"
);
}
);
};
layerId = "455318E8-D542-4057-B662-3E0441DD2475";
name = "Apr 15 19, 15:52";
paths = (
{
closed = 1;
nodes = (
"1028 980 LINE",
"924 1006 OFFCURVE",
"810 1020 OFFCURVE",
"688 1020 CURVE SMOOTH",
"338 1020 OFFCURVE",
"164 918 OFFCURVE",
"164 710 CURVE SMOOTH",
"164 558 OFFCURVE",
"262 468 OFFCURVE",
"458 436 CURVE SMOOTH",
"742 390 LINE SMOOTH",
"812 378 OFFCURVE",
"846 342 OFFCURVE",
"846 282 CURVE SMOOTH",
"846 200 OFFCURVE",
"758 160 OFFCURVE",
"580 160 CURVE SMOOTH",
"454 160 OFFCURVE",
"316 178 OFFCURVE",
"162 212 CURVE",
"138 30 LINE",
"246 -10 OFFCURVE",
"392 -30 OFFCURVE",
"580 -30 CURVE SMOOTH",
"904 -30 OFFCURVE",
"1066 74 OFFCURVE",
"1066 286 CURVE SMOOTH",
"1066 450 OFFCURVE",
"960 548 OFFCURVE",
"744 580 CURVE SMOOTH",
"508 616 LINE SMOOTH",
"426 628 OFFCURVE",
"384 662 OFFCURVE",
"384 720 CURVE SMOOTH",
"384 794 OFFCURVE",
"482 830 OFFCURVE",
"682 830 CURVE SMOOTH",
"790 830 OFFCURVE",
"896 818 OFFCURVE",
"1006 796 CURVE"
);
}
);
width = 1200;
}
);
unicode = 0073;
},
{
glyphname = t;
lastChange = "2019-08-15 16:18:04 +0000";
layers = (
{
background = {
paths = (
{
closed = 1;
nodes = (
"84 1324 LINE",
"456 1324 LINE",
"456 1500 LINE",
"82 1500 LINE"
);
},
{
closed = 1;
nodes = (
"436 580 LINE",
"434 240 LINE SMOOTH",
"434 58 OFFCURVE",
"514 -20 OFFCURVE",
"702 -20 CURVE SMOOTH",
"816 -20 OFFCURVE",
"910 -8 OFFCURVE",
"1018 22 CURVE",
"994 208 LINE",
"882 182 OFFCURVE",
"800 170 OFFCURVE",
"722 170 CURVE SMOOTH",
"668 170 OFFCURVE",
"646 194 OFFCURVE",
"646 250 CURVE SMOOTH",
"646 580 LINE"
);
},
{
closed = 1;
nodes = (
"646 580 LINE",
"646 1500 LINE",
"438 1500 LINE",
"436 580 LINE"
);
}
);
};
layerId = "BBAB2DB2-7554-4FB8-925D-17003E4845F8";
paths = (
{
closed = 1;
nodes = (
"882 -20 OFFCURVE",
"966 -12 OFFCURVE",
"1060 4 CURVE",
"1036 190 LINE",
"940 178 OFFCURVE",
"868 170 OFFCURVE",
"802 170 CURVE SMOOTH",
"614 170 OFFCURVE",
"538 242 OFFCURVE",
"538 410 CURVE SMOOTH",
"538 580 LINE",
"326 580 LINE",
"326 400 LINE SMOOTH",
"326 106 OFFCURVE",
"460 -20 OFFCURVE",
"782 -20 CURVE SMOOTH"
);
},
{
closed = 1;
nodes = (
"538 500 LINE",
"538 1380 LINE",
"326 1380 LINE",
"326 500 LINE"
);
},
{
closed = 1;
nodes = (
"1020 884 LINE",
"1020 1060 LINE",
"60 1060 LINE",
"60 884 LINE"
);
}
);
width = 1200;
}
);
unicode = 0074;
},
{
glyphname = u;
lastChange = "2019-08-15 16:18:04 +0000";
layers = (
{
background = {
components = (
{
name = a;
transform = "{1, 0, 0, 1, 17, 0}";
}
);
};
layerId = "BBAB2DB2-7554-4FB8-925D-17003E4845F8";
paths = (
{
closed = 1;
nodes = (
"658 -20 OFFCURVE",
"752 60 OFFCURVE",
"784 204 CURVE",
"854 204 LINE",
"800 490 LINE",
"800 252 OFFCURVE",
"720 160 OFFCURVE",
"566 160 CURVE SMOOTH",
"438 160 OFFCURVE",
"364 232 OFFCURVE",
"364 360 CURVE SMOOTH",
"364 1080 LINE",
"156 1080 LINE",
"156 360 LINE SMOOTH",
"156 118 OFFCURVE",
"290 -20 OFFCURVE",
"526 -20 CURVE SMOOTH"
);
},
{
closed = 1;
nodes = (
"1158 0 LINE",
"1158 170 LINE",
"1012 192 LINE",
"1012 430 LINE",
"800 430 LINE",
"800 244 LINE",
"818 -10 LINE"
);
},
{
closed = 1;
nodes = (
"1012 360 LINE",
"1012 1080 LINE",
"800 1080 LINE",
"800 300 LINE"
);
}
);
width = 1200;
}
);
unicode = 0075;
},
{
glyphname = v;
lastChange = "2019-08-15 16:18:04 +0000";
layers = (
{
background = {
components = (
{
name = n;
transform = "{-1, 0, 0, -1, 608, 500}";
}
);
};
guideLines = (
{
position = "{317, 70}";
}
);
layerId = "BBAB2DB2-7554-4FB8-925D-17003E4845F8";
paths = (
{
closed = 1;
nodes = (
"746 -20 LINE",
"1120 1060 LINE",
"894 1060 LINE",
"614 160 LINE",
"596 160 LINE",
"306 1060 LINE",
"80 1060 LINE",
"464 -20 LINE"
);
}
);
width = 1200;
}
);
unicode = 0076;
},
{
glyphname = w;
lastChange = "2019-08-15 16:18:04 +0000";
layers = (
{
background = {
paths = (
{
closed = 1;
nodes = (
"330 1000 LINE",
"640 20 LINE",
"570 20 LINE",
"880 1000 LINE",
"1100 1000 LINE",
"740 -20 LINE",
"470 -20 LINE",
"110 1000 LINE"
);
}
);
};
guideLines = (
{
position = "{317, 70}";
}
);
layerId = "BBAB2DB2-7554-4FB8-925D-17003E4845F8";
paths = (
{
closed = 1;
nodes = (
"1010 -20 LINE",
"1130 1060 LINE",
"930 1060 LINE",
"850 140 LINE",
"832 140 LINE",
"702 1060 LINE",
"478 1060 LINE",
"576 842 LINE",
"596 842 LINE",
"740 -20 LINE"
);
},
{
closed = 1;
nodes = (
"440 -20 LINE",
"584 842 LINE",
"594 842 LINE",
"702 1060 LINE",
"478 1060 LINE",
"348 140 LINE",
"330 140 LINE",
"270 1060 LINE",
"70 1060 LINE",
"170 -20 LINE"
);
}
);
width = 1200;
}
);
unicode = 0077;
},
{
glyphname = x;
lastChange = "2019-08-25 18:12:39 +0000";
layers = (
{
background = {
paths = (
{
closed = 1;
nodes = (
"864 382 OFFCURVE",
"1020 586 OFFCURVE",
"1064 1000 CURVE",
"844 1000 LINE",
"818 714 OFFCURVE",
"730 572 OFFCURVE",
"582 572 CURVE SMOOTH",
"302 572 LINE",
"302 382 LINE",
"592 382 LINE SMOOTH"
);
},
{
closed = 1;
nodes = (
"380 0 LINE",
"380 1500 LINE",
"168 1500 LINE",
"172 0 LINE"
);
},
{
closed = 1;
nodes = (
"1132 0 LINE",
"842 526 LINE",
"652 444 LINE",
"880 0 LINE"
);
}
);
};
layerId = "BBAB2DB2-7554-4FB8-925D-17003E4845F8";
paths = (
{
closed = 1;
nodes = (
"532 458 LINE",
"106 1060 LINE",
"346 1060 LINE",
"672 584 LINE",
"1094 0 LINE",
"854 0 LINE"
);
},
{
closed = 1;
nodes = (
"528 584 LINE",
"854 1060 LINE",
"1094 1060 LINE",
"656 458 LINE",
"346 0 LINE",
"106 0 LINE"
);
}
);
width = 1200;
}
);
unicode = 0078;
},
{
glyphname = y;
lastChange = "2019-08-15 16:18:04 +0000";
layers = (
{
background = {
components = (
{
name = v;
},
{
name = j;
transform = "{1, 0, 0, 1, -75, 0}";
}
);
};
layerId = "BBAB2DB2-7554-4FB8-925D-17003E4845F8";
paths = (
{
closed = 1;
nodes = (
"250 -460 LINE SMOOTH",
"534 -430 OFFCURVE",
"684 -286 OFFCURVE",
"804 94 CURVE SMOOTH",
"1110 1060 LINE",
"890 1060 LINE",
"626 144 LINE SMOOTH",
"546 -136 OFFCURVE",
"436 -244 OFFCURVE",
"226 -270 CURVE SMOOTH",
"60 -290 LINE",
"70 -480 LINE"
);
},
{
closed = 1;
nodes = (
"628 -20 LINE",
"628 140 LINE",
"606 140 LINE",
"270 1060 LINE",
"50 1060 LINE",
"462 -20 LINE"
);
}
);
width = 1200;
}
);
unicode = 0079;
},
{
glyphname = z;
lastChange = "2019-08-15 16:18:04 +0000";
layers = (
{
background = {
components = (
{
name = n;
}
);
};
layerId = "BBAB2DB2-7554-4FB8-925D-17003E4845F8";
paths = (
{
closed = 1;
nodes = (
"1016 884 LINE",
"880 1002 LINE",
"160 176 LINE",
"312 54 LINE"
);
},
{
closed = 1;
nodes = (
"1036 0 LINE",
"1036 176 LINE",
"160 176 LINE",
"160 0 LINE"
);
},
{
closed = 1;
nodes = (
"1016 884 LINE",
"1016 1060 LINE",
"160 1060 LINE",
"160 884 LINE"
);
}
);
width = 1200;
}
);
unicode = 007A;
},
{
glyphname = x.multiply;
lastChange = "2019-08-15 16:18:04 +0000";
layers = (
{
components = (
{
name = multiply;
}
);
layerId = "BBAB2DB2-7554-4FB8-925D-17003E4845F8";
width = 1200;
},
{
associatedMasterId = "BBAB2DB2-7554-4FB8-925D-17003E4845F8";
layerId = "BF448B58-7A35-489E-A1C9-12628F60690C";
paths = (
{
closed = 1;
nodes = (
"600 824 LINE",
"336 1090 LINE",
"160 914 LINE",
"428 652 LINE",
"160 386 LINE",
"336 210 LINE",
"600 480 LINE",
"864 210 LINE",
"1040 386 LINE",
"772 652 LINE",
"1040 914 LINE",
"864 1090 LINE"
);
}
);
width = 1200;
}
);
},
{
color = 4;
glyphname = w_w_w.liga;
lastChange = "2019-08-30 04:58:31 +0000";
layers = (
{
background = {
components = (
{
name = w;
transform = "{1, 0, 0, 1, -1200, 0}";
},
{
name = w;
}
);
};
layerId = "BBAB2DB2-7554-4FB8-925D-17003E4845F8";
paths = (
{
closed = 1;
nodes = (
"1020 -20 LINE",
"1130 1060 LINE",
"930 1060 LINE",
"850 140 LINE",
"830 140 LINE",
"676 940 LINE",
"456 940 LINE",
"522 742 LINE",
"572 742 LINE",
"730 -20 LINE"
);
},
{
closed = 1;
nodes = (
"-1930 -20 LINE",
"-1772 742 LINE",
"-1742 742 LINE",
"-1656 940 LINE",
"-1876 940 LINE",
"-2030 140 LINE",
"-2050 140 LINE",
"-2130 1060 LINE",
"-2330 1060 LINE",
"-2220 -20 LINE"
);
},
{
closed = 1;
nodes = (
"-1472 -20 LINE",
"-1472 140 LINE",
"-1492 140 LINE",
"-1656 940 LINE",
"-1876 940 LINE",
"-1810 742 LINE",
"-1760 742 LINE",
"-1612 -20 LINE"
);
},
{
closed = 1;
nodes = (
"-1352 -20 LINE",
"-1194 742 LINE",
"-1164 742 LINE",
"-1078 940 LINE",
"-1298 940 LINE",
"-1472 140 LINE",
"-1492 140 LINE",
"-1492 -20 LINE"
);
},
{
closed = 1;
nodes = (
"-894 -20 LINE",
"-894 140 LINE",
"-914 140 LINE",
"-1078 940 LINE",
"-1298 940 LINE",
"-1232 742 LINE",
"-1182 742 LINE",
"-1034 -20 LINE"
);
},
{
closed = 1;
nodes = (
"-774 -20 LINE",
"-606 742 LINE",
"-576 742 LINE",
"-490 940 LINE",
"-710 940 LINE",
"-894 140 LINE",
"-914 140 LINE",
"-914 -20 LINE"
);
},
{
closed = 1;
nodes = (
"-286 -20 LINE",
"-286 140 LINE",
"-306 140 LINE",
"-490 940 LINE",
"-710 940 LINE",
"-644 742 LINE",
"-594 742 LINE",
"-426 -20 LINE"
);
},
{
closed = 1;
nodes = (
"-166 -20 LINE",
"-18 742 LINE",
"12 742 LINE",
"98 940 LINE",
"-122 940 LINE",
"-286 140 LINE",
"-306 140 LINE",
"-306 -20 LINE"
);
},
{
closed = 1;
nodes = (
"292 -20 LINE",
"292 140 LINE",
"272 140 LINE",
"98 940 LINE",
"-122 940 LINE",
"-56 742 LINE",
"-6 742 LINE",
"152 -20 LINE"
);
},
{
closed = 1;
nodes = (
"412 -20 LINE",
"560 742 LINE",
"590 742 LINE",
"676 940 LINE",
"456 940 LINE",
"292 140 LINE",
"272 140 LINE",
"272 -20 LINE"
);
}
);
width = 1200;
}
);
rightMetricsKey = w;
},
{
glyphname = zero;
lastChange = "2019-08-15 16:18:04 +0000";
layers = (
{
background = {
components = (
{
name = O;
}
);
};
layerId = "BBAB2DB2-7554-4FB8-925D-17003E4845F8";
paths = (
{
closed = 1;
nodes = (
"922 -20 OFFCURVE",
"1084 218 OFFCURVE",
"1084 700 CURVE SMOOTH",
"1084 1194 OFFCURVE",
"922 1440 OFFCURVE",
"600 1440 CURVE SMOOTH",
"278 1440 OFFCURVE",
"116 1194 OFFCURVE",
"116 700 CURVE SMOOTH",
"116 218 OFFCURVE",
"278 -20 OFFCURVE",
"600 -20 CURVE SMOOTH"
);
},
{
closed = 1;
nodes = (
"692 550 OFFCURVE",
"758 616 OFFCURVE",
"758 700 CURVE SMOOTH",
"758 782 OFFCURVE",
"692 848 OFFCURVE",
"608 848 CURVE SMOOTH",
"526 848 OFFCURVE",
"460 782 OFFCURVE",
"460 700 CURVE SMOOTH",
"460 616 OFFCURVE",
"526 550 OFFCURVE",
"608 550 CURVE SMOOTH"
);
},
{
closed = 1;
nodes = (
"420 164 OFFCURVE",
"330 342 OFFCURVE",
"330 700 CURVE SMOOTH",
"330 1072 OFFCURVE",
"420 1256 OFFCURVE",
"600 1256 CURVE SMOOTH",
"780 1256 OFFCURVE",
"870 1072 OFFCURVE",
"870 700 CURVE SMOOTH",
"870 342 OFFCURVE",
"780 164 OFFCURVE",
"600 164 CURVE SMOOTH"
);
}
);
width = 1200;
},
{
associatedMasterId = "BBAB2DB2-7554-4FB8-925D-17003E4845F8";
components = (
{
name = O;
}
);
layerId = "F168F906-67B5-4D5E-B779-A73A3FB66CC5";
name = "Apr 15 19, 12:27";
paths = (
{
closed = 1;
nodes = (
"692 548 OFFCURVE",
"764 620 OFFCURVE",
"764 710 CURVE SMOOTH",
"764 800 OFFCURVE",
"692 872 OFFCURVE",
"602 872 CURVE SMOOTH",
"512 872 OFFCURVE",
"440 800 OFFCURVE",
"440 710 CURVE SMOOTH",
"440 620 OFFCURVE",
"512 548 OFFCURVE",
"602 548 CURVE SMOOTH"
);
}
);
width = 1202;
},
{
associatedMasterId = "BBAB2DB2-7554-4FB8-925D-17003E4845F8";
layerId = "0AC2EF43-7A54-48E9-A128-DB6A3F1250A7";
name = "Jul 3 19, 17:27";
paths = (
{
closed = 1;
nodes = (
"980 1120 LINE",
"338 338 LINE",
"420 232 LINE",
"1078 1040 LINE"
);
},
{
closed = 1;
nodes = (
"1010 -20 OFFCURVE",
"1164 218 OFFCURVE",
"1164 700 CURVE SMOOTH",
"1164 1194 OFFCURVE",
"1010 1440 OFFCURVE",
"700 1440 CURVE SMOOTH",
"390 1440 OFFCURVE",
"236 1194 OFFCURVE",
"236 700 CURVE SMOOTH",
"236 218 OFFCURVE",
"390 -20 OFFCURVE",
"700 -20 CURVE SMOOTH"
);
},
{
closed = 1;
nodes = (
"536 170 OFFCURVE",
"456 346 OFFCURVE",
"456 700 CURVE SMOOTH",
"456 1068 OFFCURVE",
"536 1250 OFFCURVE",
"700 1250 CURVE SMOOTH",
"864 1250 OFFCURVE",
"944 1068 OFFCURVE",
"944 700 CURVE SMOOTH",
"944 346 OFFCURVE",
"864 170 OFFCURVE",
"700 170 CURVE SMOOTH"
);
}
);
width = 1400;
}
);
unicode = 0030;
},
{
glyphname = one;
lastChange = "2019-08-15 16:18:04 +0000";
layers = (
{
background = {
components = (
{
name = i;
}
);
};
layerId = "BBAB2DB2-7554-4FB8-925D-17003E4845F8";
paths = (
{
closed = 1;
nodes = (
"736 0 LINE",
"736 1420 LINE",
"524 1420 LINE",
"524 0 LINE"
);
},
{
closed = 1;
nodes = (
"544 0 LINE",
"544 186 LINE",
"170 186 LINE",
"170 0 LINE"
);
},
{
closed = 1;
nodes = (
"1052 0 LINE",
"1052 186 LINE",
"716 186 LINE",
"716 0 LINE"
);
},
{
closed = 1;
nodes = (
"524 1224 LINE",
"524 1420 LINE",
"190 1340 LINE",
"190 1148 LINE"
);
}
);
width = 1200;
}
);
unicode = 0031;
},
{
glyphname = two;
lastChange = "2019-08-15 16:18:04 +0000";
layers = (
{
background = {
components = (
{
name = C;
transform = "{-1, 0, 0, 1, 648, 0}";
}
);
};
layerId = "BBAB2DB2-7554-4FB8-925D-17003E4845F8";
paths = (
{
closed = 1;
nodes = (
"484 0 LINE",
"484 216 LINE",
"856 460 OFFCURVE",
"1036 724 OFFCURVE",
"1036 1012 CURVE SMOOTH",
"1036 1300 OFFCURVE",
"886 1440 OFFCURVE",
"588 1440 CURVE SMOOTH",
"310 1440 OFFCURVE",
"150 1302 OFFCURVE",
"150 1062 CURVE",
"364 1062 LINE",
"364 1186 OFFCURVE",
"440 1256 OFFCURVE",
"574 1256 CURVE SMOOTH",
"738 1256 OFFCURVE",
"822 1172 OFFCURVE",
"822 1002 CURVE SMOOTH",
"822 726 OFFCURVE",
"608 464 OFFCURVE",
"172 224 CURVE",
"172 0 LINE"
);
},
{
closed = 1;
nodes = (
"1096 0 LINE",
"1096 186 LINE",
"232 186 LINE",
"232 0 LINE"
);
}
);
width = 1200;
},
{
associatedMasterId = "BBAB2DB2-7554-4FB8-925D-17003E4845F8";
layerId = "37FA730B-AC95-400E-9730-DA86BF05BDDD";
name = "Apr 16 19, 00:24";
paths = (
{
closed = 1;
nodes = (
"362 1162 OFFCURVE",
"436 1250 OFFCURVE",
"584 1250 CURVE SMOOTH",
"744 1250 OFFCURVE",
"824 1168 OFFCURVE",
"824 1002 CURVE SMOOTH",
"824 718 OFFCURVE",
"610 452 OFFCURVE",
"180 204 CURVE",
"180 0 LINE",
"498 0 LINE",
"498 206 LINE",
"864 454 OFFCURVE",
"1044 720 OFFCURVE",
"1044 1012 CURVE SMOOTH",
"1044 1300 OFFCURVE",
"918 1440 OFFCURVE",
"666 1440 CURVE SMOOTH",
"522 1440 OFFCURVE",
"430 1376 OFFCURVE",
"384 1242 CURVE",
"336 1242 LINE",
"362 982 LINE"
);
},
{
closed = 1;
nodes = (
"360 1420 LINE",
"160 1420 LINE",
"160 982 LINE",
"362 982 LINE"
);
},
{
closed = 1;
nodes = (
"1064 0 LINE",
"1064 176 LINE",
"242 176 LINE",
"240 0 LINE"
);
}
);
width = 1200;
}
);
unicode = 0032;
},
{
glyphname = three;
lastChange = "2019-08-15 16:18:04 +0000";
layers = (
{
background = {
paths = (
{
closed = 1;
nodes = (
"392 1182 OFFCURVE",
"470 1250 OFFCURVE",
"606 1250 CURVE SMOOTH",
"738 1250 OFFCURVE",
"814 1188 OFFCURVE",
"814 1082 CURVE SMOOTH",
"814 916 OFFCURVE",
"696 794 OFFCURVE",
"416 750 CURVE",
"440 620 LINE",
"778 620 LINE",
"778 760 LINE",
"930 806 OFFCURVE",
"1034 934 OFFCURVE",
"1034 1092 CURVE SMOOTH",
"1034 1314 OFFCURVE",
"886 1440 OFFCURVE",
"628 1440 CURVE SMOOTH",
"350 1440 OFFCURVE",
"190 1302 OFFCURVE",
"190 1062 CURVE",
"392 1062 LINE"
);
}
);
};
layerId = "BBAB2DB2-7554-4FB8-925D-17003E4845F8";
paths = (
{
closed = 1;
nodes = (
"916 -20 OFFCURVE",
"1094 126 OFFCURVE",
"1094 380 CURVE SMOOTH",
"1094 610 OFFCURVE",
"934 748 OFFCURVE",
"702 766 CURVE SMOOTH",
"396 790 LINE",
"420 660 LINE",
"452 660 LINE SMOOTH",
"724 660 OFFCURVE",
"880 566 OFFCURVE",
"880 400 CURVE SMOOTH",
"880 250 OFFCURVE",
"776 164 OFFCURVE",
"596 164 CURVE SMOOTH",
"422 164 OFFCURVE",
"336 242 OFFCURVE",
"336 398 CURVE",
"122 398 LINE",
"122 118 OFFCURVE",
"284 -20 OFFCURVE",
"604 -20 CURVE SMOOTH"
);
},
{
closed = 1;
nodes = (
"758 660 LINE",
"758 780 LINE",
"934 826 OFFCURVE",
"1054 956 OFFCURVE",
"1054 1122 CURVE SMOOTH",
"1054 1326 OFFCURVE",
"900 1440 OFFCURVE",
"628 1440 CURVE SMOOTH",
"326 1440 OFFCURVE",
"152 1302 OFFCURVE",
"152 1062 CURVE",
"366 1062 LINE",
"366 1186 OFFCURVE",
"452 1256 OFFCURVE",
"606 1256 CURVE SMOOTH",
"756 1256 OFFCURVE",
"840 1188 OFFCURVE",
"840 1072 CURVE SMOOTH",
"840 932 OFFCURVE",
"708 828 OFFCURVE",
"396 790 CURVE",
"420 660 LINE"
);
}
);
width = 1200;
},
{
associatedMasterId = "BBAB2DB2-7554-4FB8-925D-17003E4845F8";
background = {
components = (
{
name = two;
}
);
};
layerId = "545A902F-7771-43BD-AB8C-254B4CA36A70";
name = "Apr 16 19, 00:23";
paths = (
{
closed = 1;
nodes = (
"362 1162 OFFCURVE",
"452 1250 OFFCURVE",
"634 1250 CURVE SMOOTH",
"760 1250 OFFCURVE",
"824 1188 OFFCURVE",
"824 1062 CURVE SMOOTH",
"824 906 OFFCURVE",
"702 794 OFFCURVE",
"416 750 CURVE",
"440 620 LINE",
"778 620 LINE",
"778 760 LINE",
"936 808 OFFCURVE",
"1044 936 OFFCURVE",
"1044 1092 CURVE SMOOTH",
"1044 1326 OFFCURVE",
"922 1440 OFFCURVE",
"676 1440 CURVE SMOOTH",
"528 1440 OFFCURVE",
"430 1376 OFFCURVE",
"384 1242 CURVE",
"336 1242 LINE",
"362 982 LINE"
);
},
{
closed = 1;
nodes = (
"360 1420 LINE",
"160 1420 LINE",
"160 982 LINE",
"362 982 LINE"
);
},
{
closed = 1;
nodes = (
"384 170 OFFCURVE",
"300 182 OFFCURVE",
"186 210 CURVE",
"162 20 LINE",
"284 -8 OFFCURVE",
"392 -20 OFFCURVE",
"504 -20 CURVE SMOOTH",
"854 -20 OFFCURVE",
"1054 140 OFFCURVE",
"1054 420 CURVE SMOOTH",
"1054 616 OFFCURVE",
"918 742 OFFCURVE",
"722 746 CURVE SMOOTH",
"416 750 LINE",
"440 620 LINE",
"632 620 LINE SMOOTH",
"760 620 OFFCURVE",
"834 548 OFFCURVE",
"834 420 CURVE SMOOTH",
"834 260 OFFCURVE",
"706 170 OFFCURVE",
"486 170 CURVE SMOOTH"
);
}
);
width = 1200;
},
{
associatedMasterId = "BBAB2DB2-7554-4FB8-925D-17003E4845F8";
background = {
components = (
{
name = question;
}
);
};
layerId = "91B72C07-69C5-4A5C-A10F-E4094CA85261";
name = "Apr 16 19, 10:29";
paths = (
{
closed = 1;
nodes = (
"362 1160 OFFCURVE",
"466 1250 OFFCURVE",
"626 1250 CURVE SMOOTH",
"758 1250 OFFCURVE",
"824 1188 OFFCURVE",
"824 1062 CURVE SMOOTH",
"824 906 OFFCURVE",
"702 794 OFFCURVE",
"416 750 CURVE",
"440 620 LINE",
"778 620 LINE",
"778 760 LINE",
"936 808 OFFCURVE",
"1044 936 OFFCURVE",
"1044 1092 CURVE SMOOTH",
"1044 1326 OFFCURVE",
"906 1440 OFFCURVE",
"628 1440 CURVE SMOOTH",
"346 1440 OFFCURVE",
"160 1274 OFFCURVE",
"160 1022 CURVE",
"362 1022 LINE"
);
},
{
closed = 1;
nodes = (
"384 170 OFFCURVE",
"300 182 OFFCURVE",
"186 210 CURVE",
"162 20 LINE",
"284 -8 OFFCURVE",
"392 -20 OFFCURVE",
"504 -20 CURVE SMOOTH",
"854 -20 OFFCURVE",
"1054 140 OFFCURVE",
"1054 420 CURVE SMOOTH",
"1054 616 OFFCURVE",
"918 742 OFFCURVE",
"722 746 CURVE SMOOTH",
"416 750 LINE",
"440 620 LINE",
"492 620 LINE SMOOTH",
"710 620 OFFCURVE",
"834 548 OFFCURVE",
"834 420 CURVE SMOOTH",
"834 260 OFFCURVE",
"706 170 OFFCURVE",
"486 170 CURVE SMOOTH"
);
}
);
width = 1200;
},
{
associatedMasterId = "BBAB2DB2-7554-4FB8-925D-17003E4845F8";
background = {
components = (
{
name = j;
}
);
};
layerId = "915B1247-CD65-49C8-AFC4-B8BC274CACFB";
name = "Apr 16 19, 23:35";
paths = (
{
closed = 1;
nodes = (
"392 1182 OFFCURVE",
"470 1250 OFFCURVE",
"606 1250 CURVE SMOOTH",
"738 1250 OFFCURVE",
"814 1188 OFFCURVE",
"814 1082 CURVE SMOOTH",
"814 926 OFFCURVE",
"696 814 OFFCURVE",
"416 770 CURVE",
"440 640 LINE",
"778 640 LINE",
"778 780 LINE",
"930 824 OFFCURVE",
"1034 944 OFFCURVE",
"1034 1092 CURVE SMOOTH",
"1034 1314 OFFCURVE",
"886 1440 OFFCURVE",
"628 1440 CURVE SMOOTH",
"350 1440 OFFCURVE",
"190 1302 OFFCURVE",
"190 1062 CURVE",
"392 1062 LINE"
);
},
{
closed = 1;
nodes = (
"442 170 OFFCURVE",
"362 246 OFFCURVE",
"362 398 CURVE",
"160 398 LINE",
"160 118 OFFCURVE",
"308 -20 OFFCURVE",
"604 -20 CURVE SMOOTH",
"902 -20 OFFCURVE",
"1074 126 OFFCURVE",
"1074 380 CURVE SMOOTH",
"1074 610 OFFCURVE",
"930 762 OFFCURVE",
"722 766 CURVE SMOOTH",
"416 770 LINE",
"440 640 LINE",
"492 640 LINE SMOOTH",
"722 640 OFFCURVE",
"854 546 OFFCURVE",
"854 380 CURVE SMOOTH",
"854 246 OFFCURVE",
"762 170 OFFCURVE",
"606 170 CURVE SMOOTH"
);
}
);
width = 1200;
}
);
unicode = 0033;
},
{
glyphname = four;
lastChange = "2019-08-15 16:18:04 +0000";
layers = (
{
layerId = "BBAB2DB2-7554-4FB8-925D-17003E4845F8";
paths = (
{
closed = 1;
nodes = (
"276 318 LINE",
"478 1340 LINE",
"274 1340 LINE",
"74 318 LINE"
);
},
{
closed = 1;
nodes = (
"804 318 LINE",
"804 494 LINE",
"214 494 LINE",
"72 318 LINE"
);
},
{
closed = 1;
nodes = (
"1120 318 LINE",
"1120 494 LINE",
"966 494 LINE",
"966 318 LINE"
);
},
{
closed = 1;
nodes = (
"986 0 LINE",
"986 1420 LINE",
"784 1420 LINE",
"784 0 LINE"
);
}
);
width = 1200;
}
);
unicode = 0034;
},
{
glyphname = five;
lastChange = "2019-08-15 16:18:04 +0000";
layers = (
{
background = {
paths = (
{
closed = 1;
nodes = (
"442 170 OFFCURVE",
"362 246 OFFCURVE",
"362 398 CURVE",
"160 398 LINE",
"160 118 OFFCURVE",
"308 -20 OFFCURVE",
"604 -20 CURVE SMOOTH",
"902 -20 OFFCURVE",
"1074 134 OFFCURVE",
"1074 400 CURVE SMOOTH",
"1074 630 OFFCURVE",
"930 782 OFFCURVE",
"722 786 CURVE SMOOTH",
"416 790 LINE",
"440 660 LINE",
"492 660 LINE SMOOTH",
"722 660 OFFCURVE",
"854 566 OFFCURVE",
"854 400 CURVE SMOOTH",
"854 254 OFFCURVE",
"762 170 OFFCURVE",
"606 170 CURVE SMOOTH"
);
},
{
closed = 1;
nodes = (
"392 1182 OFFCURVE",
"470 1250 OFFCURVE",
"606 1250 CURVE SMOOTH",
"738 1250 OFFCURVE",
"814 1192 OFFCURVE",
"814 1092 CURVE SMOOTH",
"814 942 OFFCURVE",
"696 830 OFFCURVE",
"416 790 CURVE",
"440 660 LINE",
"778 660 LINE",
"778 800 LINE",
"930 842 OFFCURVE",
"1034 958 OFFCURVE",
"1034 1102 CURVE SMOOTH",
"1034 1318 OFFCURVE",
"886 1440 OFFCURVE",
"628 1440 CURVE SMOOTH",
"350 1440 OFFCURVE",
"190 1302 OFFCURVE",
"190 1062 CURVE",
"392 1062 LINE"
);
}
);
};
layerId = "BBAB2DB2-7554-4FB8-925D-17003E4845F8";
paths = (
{
closed = 1;
nodes = (
"914 -20 OFFCURVE",
"1094 154 OFFCURVE",
"1094 458 CURVE SMOOTH",
"1094 764 OFFCURVE",
"948 926 OFFCURVE",
"652 926 CURVE SMOOTH",
"550 926 OFFCURVE",
"450 910 OFFCURVE",
"348 850 CURVE",
"330 680 LINE",
"408 724 OFFCURVE",
"492 746 OFFCURVE",
"582 746 CURVE SMOOTH",
"780 746 OFFCURVE",
"880 650 OFFCURVE",
"880 458 CURVE SMOOTH",
"880 272 OFFCURVE",
"778 164 OFFCURVE",
"596 164 CURVE SMOOTH",
"436 164 OFFCURVE",
"346 250 OFFCURVE",
"346 398 CURVE",
"132 398 LINE",
"132 132 OFFCURVE",
"300 -20 OFFCURVE",
"594 -20 CURVE SMOOTH"
);
},
{
closed = 1;
nodes = (
"330 680 LINE",
"414 804 LINE",
"448 1420 LINE",
"238 1420 LINE",
"218 680 LINE"
);
},
{
closed = 1;
nodes = (
"1004 1234 LINE",
"1004 1420 LINE",
"316 1420 LINE",
"334 1234 LINE"
);
}
);
width = 1200;
},
{
associatedMasterId = "BBAB2DB2-7554-4FB8-925D-17003E4845F8";
layerId = "1EF6D4A8-9BAA-4C8A-9AE2-475ED31208E5";
name = "Apr 16 19, 10:30";
paths = (
{
closed = 1;
nodes = (
"306 170 OFFCURVE",
"218 176 OFFCURVE",
"146 186 CURVE",
"122 -4 LINE",
"202 -14 OFFCURVE",
"306 -20 OFFCURVE",
"404 -20 CURVE SMOOTH",
"816 -20 OFFCURVE",
"1054 152 OFFCURVE",
"1054 450 CURVE SMOOTH",
"1054 734 OFFCURVE",
"890 900 OFFCURVE",
"602 906 CURVE SMOOTH",
"316 910 LINE",
"340 720 LINE",
"552 720 LINE SMOOTH",
"732 720 OFFCURVE",
"834 622 OFFCURVE",
"834 450 CURVE SMOOTH",
"834 272 OFFCURVE",
"672 170 OFFCURVE",
"386 170 CURVE SMOOTH"
);
},
{
closed = 1;
nodes = (
"992 1244 LINE",
"992 1420 LINE",
"292 1420 LINE",
"310 1244 LINE"
);
},
{
closed = 1;
nodes = (
"406 720 LINE",
"406 1420 LINE",
"194 1420 LINE",
"194 720 LINE"
);
}
);
width = 1200;
}
);
unicode = 0035;
},
{
glyphname = six;
lastChange = "2019-08-15 16:18:04 +0000";
layers = (
{
background = {
components = (
{
name = o;
}
);
};
layerId = "BBAB2DB2-7554-4FB8-925D-17003E4845F8";
paths = (
{
closed = 1;
nodes = (
"340 666 LINE SMOOTH",
"340 1030 OFFCURVE",
"548 1218 OFFCURVE",
"974 1236 CURVE",
"954 1426 LINE",
"390 1398 OFFCURVE",
"118 1116 OFFCURVE",
"118 574 CURVE SMOOTH",
"118 526 LINE",
"340 272 LINE"
);
},
{
closed = 1;
nodes = (
"916 -20 OFFCURVE",
"1084 156 OFFCURVE",
"1084 460 CURVE SMOOTH",
"1084 740 OFFCURVE",
"944 900 OFFCURVE",
"696 900 CURVE SMOOTH",
"524 900 OFFCURVE",
"398 816 OFFCURVE",
"358 668 CURVE",
"284 668 LINE",
"284 408 LINE",
"118 526 LINE",
"118 178 OFFCURVE",
"298 -20 OFFCURVE",
"618 -20 CURVE SMOOTH"
);
},
{
closed = 1;
nodes = (
"434 164 OFFCURVE",
"340 256 OFFCURVE",
"340 440 CURVE SMOOTH",
"340 616 OFFCURVE",
"436 716 OFFCURVE",
"606 716 CURVE SMOOTH",
"776 716 OFFCURVE",
"870 624 OFFCURVE",
"870 460 CURVE SMOOTH",
"870 272 OFFCURVE",
"780 164 OFFCURVE",
"620 164 CURVE SMOOTH"
);
}
);
width = 1200;
}
);
unicode = 0036;
},
{
glyphname = seven;
lastChange = "2019-08-15 16:18:04 +0000";
layers = (
{
layerId = "BBAB2DB2-7554-4FB8-925D-17003E4845F8";
paths = (
{
closed = 1;
nodes = (
"666 0 LINE",
"1154 1420 LINE",
"920 1420 LINE",
"432 0 LINE"
);
},
{
closed = 1;
nodes = (
"322 922 LINE",
"322 1390 LINE",
"112 1390 LINE",
"112 922 LINE"
);
},
{
closed = 1;
nodes = (
"1012 1224 LINE",
"1154 1420 LINE",
"112 1420 LINE",
"112 1224 LINE"
);
}
);
width = 1200;
}
);
unicode = 0037;
},
{
glyphname = eight;
lastChange = "2019-08-15 16:18:04 +0000";
layers = (
{
background = {
paths = (
{
closed = 1;
nodes = (
"906 -20 OFFCURVE",
"1106 138 OFFCURVE",
"1106 380 CURVE SMOOTH",
"1106 598 OFFCURVE",
"906 740 OFFCURVE",
"602 740 CURVE SMOOTH",
"296 740 OFFCURVE",
"96 598 OFFCURVE",
"96 380 CURVE SMOOTH",
"96 138 OFFCURVE",
"296 -20 OFFCURVE",
"602 -20 CURVE SMOOTH"
);
},
{
closed = 1;
nodes = (
"430 170 OFFCURVE",
"316 254 OFFCURVE",
"316 380 CURVE SMOOTH",
"316 518 OFFCURVE",
"430 610 OFFCURVE",
"602 610 CURVE SMOOTH",
"774 610 OFFCURVE",
"886 518 OFFCURVE",
"886 380 CURVE SMOOTH",
"886 254 OFFCURVE",
"774 170 OFFCURVE",
"602 170 CURVE SMOOTH"
);
}
);
};
layerId = "BBAB2DB2-7554-4FB8-925D-17003E4845F8";
paths = (
{
closed = 1;
nodes = (
"908 -20 OFFCURVE",
"1084 130 OFFCURVE",
"1084 390 CURVE SMOOTH",
"1084 628 OFFCURVE",
"908 764 OFFCURVE",
"600 764 CURVE SMOOTH",
"292 764 OFFCURVE",
"116 628 OFFCURVE",
"116 390 CURVE SMOOTH",
"116 130 OFFCURVE",
"292 -20 OFFCURVE",
"600 -20 CURVE SMOOTH"
);
},
{
closed = 1;
nodes = (
"428 164 OFFCURVE",
"330 250 OFFCURVE",
"330 400 CURVE SMOOTH",
"330 560 OFFCURVE",
"428 654 OFFCURVE",
"600 654 CURVE SMOOTH",
"772 654 OFFCURVE",
"870 560 OFFCURVE",
"870 400 CURVE SMOOTH",
"870 250 OFFCURVE",
"772 164 OFFCURVE",
"600 164 CURVE SMOOTH"
);
},
{
closed = 1;
nodes = (
"768 706 LINE",
"768 808 LINE",
"434 808 LINE",
"434 706 LINE"
);
},
{
closed = 1;
nodes = (
"454 846 OFFCURVE",
"370 918 OFFCURVE",
"370 1040 CURVE SMOOTH",
"370 1178 OFFCURVE",
"454 1256 OFFCURVE",
"600 1256 CURVE SMOOTH",
"746 1256 OFFCURVE",
"830 1178 OFFCURVE",
"830 1040 CURVE SMOOTH",
"830 918 OFFCURVE",
"746 846 OFFCURVE",
"600 846 CURVE SMOOTH"
);
},
{
closed = 1;
nodes = (
"882 746 OFFCURVE",
"1044 868 OFFCURVE",
"1044 1080 CURVE SMOOTH",
"1044 1308 OFFCURVE",
"882 1440 OFFCURVE",
"600 1440 CURVE SMOOTH",
"318 1440 OFFCURVE",
"156 1308 OFFCURVE",
"156 1080 CURVE SMOOTH",
"156 868 OFFCURVE",
"318 746 OFFCURVE",
"600 746 CURVE SMOOTH"
);
}
);
width = 1200;
}
);
unicode = 0038;
},
{
glyphname = nine;
lastChange = "2019-08-25 18:12:39 +0000";
layers = (
{
layerId = "BBAB2DB2-7554-4FB8-925D-17003E4845F8";
paths = (
{
closed = 1;
nodes = (
"812 22 OFFCURVE",
"1084 304 OFFCURVE",
"1084 846 CURVE SMOOTH",
"1084 894 LINE",
"862 1148 LINE",
"862 754 LINE SMOOTH",
"862 390 OFFCURVE",
"654 202 OFFCURVE",
"228 184 CURVE",
"248 -6 LINE"
);
},
{
closed = 1;
nodes = (
"426 704 OFFCURVE",
"332 796 OFFCURVE",
"332 960 CURVE SMOOTH",
"332 1148 OFFCURVE",
"422 1256 OFFCURVE",
"582 1256 CURVE SMOOTH",
"768 1256 OFFCURVE",
"862 1164 OFFCURVE",
"862 980 CURVE SMOOTH",
"862 804 OFFCURVE",
"766 704 OFFCURVE",
"596 704 CURVE SMOOTH"
);
},
{
closed = 1;
nodes = (
"678 520 OFFCURVE",
"804 604 OFFCURVE",
"844 752 CURVE",
"918 752 LINE",
"918 1012 LINE",
"1084 894 LINE",
"1084 1242 OFFCURVE",
"904 1440 OFFCURVE",
"584 1440 CURVE SMOOTH",
"286 1440 OFFCURVE",
"118 1264 OFFCURVE",
"118 960 CURVE SMOOTH",
"118 680 OFFCURVE",
"258 520 OFFCURVE",
"506 520 CURVE SMOOTH"
);
}
);
width = 1200;
}
);
unicode = 0039;
},
{
glyphname = period;
lastChange = "2019-08-15 16:18:04 +0000";
layers = (
{
layerId = "BBAB2DB2-7554-4FB8-925D-17003E4845F8";
paths = (
{
closed = 1;
nodes = (
"682 -20 OFFCURVE",
"748 46 OFFCURVE",
"748 128 CURVE SMOOTH",
"748 210 OFFCURVE",
"682 276 OFFCURVE",
"600 276 CURVE SMOOTH",
"518 276 OFFCURVE",
"452 210 OFFCURVE",
"452 128 CURVE SMOOTH",
"452 46 OFFCURVE",
"518 -20 OFFCURVE",
"600 -20 CURVE SMOOTH"
);
}
);
width = 1200;
}
);
unicode = 002E;
},
{
glyphname = comma;
lastChange = "2019-08-15 16:18:04 +0000";
layers = (
{
layerId = "BBAB2DB2-7554-4FB8-925D-17003E4845F8";
paths = (
{
closed = 1;
nodes = (
"594 -386 LINE",
"714 254 LINE",
"482 254 LINE",
"402 -386 LINE"
);
}
);
width = 1200;
}
);
unicode = 002C;
},
{
glyphname = colon;
lastChange = "2019-08-15 16:18:04 +0000";
layers = (
{
layerId = "BBAB2DB2-7554-4FB8-925D-17003E4845F8";
paths = (
{
closed = 1;
nodes = (
"682 784 OFFCURVE",
"748 850 OFFCURVE",
"748 932 CURVE SMOOTH",
"748 1014 OFFCURVE",
"682 1080 OFFCURVE",
"600 1080 CURVE SMOOTH",
"518 1080 OFFCURVE",
"452 1014 OFFCURVE",
"452 932 CURVE SMOOTH",
"452 850 OFFCURVE",
"518 784 OFFCURVE",
"600 784 CURVE SMOOTH"
);
},
{
closed = 1;
nodes = (
"682 -20 OFFCURVE",
"748 46 OFFCURVE",
"748 128 CURVE SMOOTH",
"748 210 OFFCURVE",
"682 276 OFFCURVE",
"600 276 CURVE SMOOTH",
"518 276 OFFCURVE",
"452 210 OFFCURVE",
"452 128 CURVE SMOOTH",
"452 46 OFFCURVE",
"518 -20 OFFCURVE",
"600 -20 CURVE SMOOTH"
);
}
);
width = 1200;
}
);
unicode = 003A;
},
{
glyphname = semicolon;
lastChange = "2019-08-15 16:18:04 +0000";
layers = (
{
components = (
{
name = comma;
}
);
layerId = "BBAB2DB2-7554-4FB8-925D-17003E4845F8";
paths = (
{
closed = 1;
nodes = (
"682 784 OFFCURVE",
"748 850 OFFCURVE",
"748 932 CURVE SMOOTH",
"748 1014 OFFCURVE",
"682 1080 OFFCURVE",
"600 1080 CURVE SMOOTH",
"518 1080 OFFCURVE",
"452 1014 OFFCURVE",
"452 932 CURVE SMOOTH",
"452 850 OFFCURVE",
"518 784 OFFCURVE",
"600 784 CURVE SMOOTH"
);
}
);
width = 1200;
}
);
unicode = 003B;
},
{
glyphname = exclam;
lastChange = "2019-08-16 01:31:10 +0000";
layers = (
{
components = (
{
name = period;
}
);
layerId = "BBAB2DB2-7554-4FB8-925D-17003E4845F8";
paths = (
{
closed = 1;
nodes = (
"694 456 LINE",
"704 1430 LINE",
"496 1430 LINE",
"502 456 LINE"
);
}
);
width = 1200;
}
);
unicode = 0021;
},
{
glyphname = question;
lastChange = "2019-08-15 16:18:04 +0000";
layers = (
{
background = {
components = (
{
name = exclam;
}
);
};
components = (
{
name = period;
transform = "{1, 0, 0, 1, 2, 0}";
}
);
layerId = "BBAB2DB2-7554-4FB8-925D-17003E4845F8";
paths = (
{
closed = 1;
nodes = (
"696 456 LINE",
"696 538 LINE SMOOTH",
"696 616 OFFCURVE",
"738 682 OFFCURVE",
"824 738 CURVE SMOOTH",
"972 836 OFFCURVE",
"1046 960 OFFCURVE",
"1046 1112 CURVE SMOOTH",
"1046 1320 OFFCURVE",
"892 1440 OFFCURVE",
"626 1440 CURVE SMOOTH",
"354 1440 OFFCURVE",
"198 1302 OFFCURVE",
"198 1062 CURVE",
"400 1062 LINE",
"400 1182 OFFCURVE",
"482 1250 OFFCURVE",
"624 1250 CURVE SMOOTH",
"752 1250 OFFCURVE",
"826 1196 OFFCURVE",
"826 1102 CURVE SMOOTH",
"826 1006 OFFCURVE",
"772 924 OFFCURVE",
"664 854 CURVE SMOOTH",
"554 784 OFFCURVE",
"500 684 OFFCURVE",
"500 552 CURVE SMOOTH",
"500 456 LINE"
);
}
);
width = 1200;
},
{
associatedMasterId = "BBAB2DB2-7554-4FB8-925D-17003E4845F8";
background = {
components = (
{
name = nine;
}
);
};
components = (
{
name = period;
transform = "{1, 0, 0, 1, -42, 0}";
}
);
layerId = "55ABD2ED-C562-4ECA-9B70-447CC8BD6824";
name = "Apr 15 19, 22:59";
paths = (
{
closed = 1;
nodes = (
"252 1440 LINE",
"232 1250 LINE",
"352 1250 LINE SMOOTH",
"652 1250 OFFCURVE",
"822 1182 OFFCURVE",
"822 1062 CURVE SMOOTH",
"822 968 OFFCURVE",
"690 866 OFFCURVE",
"458 784 CURVE",
"458 456 LINE",
"654 456 LINE",
"654 704 LINE",
"900 796 OFFCURVE",
"1042 930 OFFCURVE",
"1042 1072 CURVE SMOOTH",
"1042 1306 OFFCURVE",
"814 1440 OFFCURVE",
"414 1440 CURVE SMOOTH"
);
}
);
width = 1200;
},
{
associatedMasterId = "BBAB2DB2-7554-4FB8-925D-17003E4845F8";
background = {
components = (
{
name = nine;
}
);
};
components = (
{
name = period;
transform = "{1, 0, 0, 1, -20, 0}";
}
);
layerId = "061ECC50-11FF-4A97-93C3-5813476DB84D";
name = "Apr 16 19, 00:22";
paths = (
{
closed = 1;
nodes = (
"362 1152 OFFCURVE",
"468 1250 OFFCURVE",
"654 1250 CURVE SMOOTH",
"762 1250 OFFCURVE",
"824 1188 OFFCURVE",
"824 1082 CURVE SMOOTH",
"824 998 OFFCURVE",
"758 920 OFFCURVE",
"664 834 CURVE SMOOTH",
"540 720 OFFCURVE",
"480 588 OFFCURVE",
"480 492 CURVE SMOOTH",
"480 456 LINE",
"676 456 LINE",
"676 478 LINE SMOOTH",
"676 562 OFFCURVE",
"736 638 OFFCURVE",
"864 758 CURVE SMOOTH",
"978 864 OFFCURVE",
"1044 994 OFFCURVE",
"1044 1112 CURVE SMOOTH",
"1044 1320 OFFCURVE",
"932 1440 OFFCURVE",
"736 1440 CURVE SMOOTH",
"566 1440 OFFCURVE",
"436 1362 OFFCURVE",
"384 1222 CURVE",
"336 1222 LINE",
"362 982 LINE"
);
},
{
closed = 1;
nodes = (
"360 1420 LINE",
"160 1420 LINE",
"160 982 LINE",
"362 982 LINE"
);
}
);
width = 1200;
}
);
unicode = 003F;
},
{
glyphname = asterisk;
lastChange = "2019-08-15 16:18:04 +0000";
layers = (
{
layerId = "BBAB2DB2-7554-4FB8-925D-17003E4845F8";
paths = (
{
closed = 1;
nodes = (
"990 398 LINE",
"654 744 LINE",
"542 648 LINE",
"824 258 LINE"
);
},
{
closed = 1;
nodes = (
"654 648 LINE",
"542 744 LINE",
"206 398 LINE",
"372 258 LINE"
);
},
{
closed = 1;
nodes = (
"624 766 LINE",
"184 962 LINE",
"110 758 LINE",
"572 626 LINE"
);
},
{
closed = 1;
nodes = (
"672 696 LINE",
"706 1176 LINE",
"490 1176 LINE",
"524 696 LINE"
);
},
{
closed = 1;
nodes = (
"1086 758 LINE",
"1012 962 LINE",
"572 766 LINE",
"624 626 LINE"
);
}
);
width = 1200;
}
);
unicode = 002A;
},
{
glyphname = numbersign;
lastChange = "2019-08-15 16:18:04 +0000";
layers = (
{
layerId = "BBAB2DB2-7554-4FB8-925D-17003E4845F8";
paths = (
{
closed = 1;
nodes = (
"866 0 LINE",
"986 1420 LINE",
"810 1420 LINE",
"690 0 LINE"
);
},
{
closed = 1;
nodes = (
"1120 360 LINE",
"1120 530 LINE",
"120 530 LINE",
"120 360 LINE"
);
},
{
closed = 1;
nodes = (
"430 0 LINE",
"550 1420 LINE",
"374 1420 LINE",
"254 0 LINE"
);
},
{
closed = 1;
nodes = (
"1120 890 LINE",
"1120 1060 LINE",
"120 1060 LINE",
"120 890 LINE"
);
}
);
width = 1200;
}
);
unicode = 0023;
},
{
glyphname = slash;
lastChange = "2019-08-15 16:18:04 +0000";
layers = (
{
layerId = "BBAB2DB2-7554-4FB8-925D-17003E4845F8";
paths = (
{
closed = 1;
nodes = (
"286 -280 LINE",
"1100 1520 LINE",
"898 1520 LINE",
"84 -280 LINE"
);
}
);
width = 1200;
}
);
unicode = 002F;
},
{
glyphname = backslash;
lastChange = "2019-08-15 16:18:04 +0000";
layers = (
{
layerId = "BBAB2DB2-7554-4FB8-925D-17003E4845F8";
paths = (
{
closed = 1;
nodes = (
"1116 -280 LINE",
"302 1520 LINE",
"100 1520 LINE",
"914 -280 LINE"
);
}
);
width = 1200;
}
);
unicode = 005C;
},
{
glyphname = asterisk.lc;
lastChange = "2019-08-15 16:18:04 +0000";
layers = (
{
components = (
{
name = asterisk;
transform = "{1, 0, 0, 1, 2, -140}";
}
);
layerId = "BBAB2DB2-7554-4FB8-925D-17003E4845F8";
width = 1200;
},
{
associatedMasterId = "BBAB2DB2-7554-4FB8-925D-17003E4845F8";
components = (
{
name = asterisk;
transform = "{1, 0, 0, 1, 0, -80}";
}
);
layerId = "BF448B58-7A35-489E-A1C9-12628F60690C";
width = 1200;
},
{
associatedMasterId = "BBAB2DB2-7554-4FB8-925D-17003E4845F8";
layerId = "3BA0A9C5-DFD5-4908-8817-237E363EC45D";
name = "Regular Jun 1 14, 13:39";
paths = (
{
closed = 1;
nodes = (
"510 1476 LINE",
"540 1170 LINE",
"262 1290 LINE",
"208 1120 LINE",
"504 1056 LINE",
"302 826 LINE",
"452 724 LINE",
"602 988 LINE",
"762 728 LINE",
"908 838 LINE",
"698 1056 LINE",
"992 1120 LINE",
"938 1290 LINE",
"658 1170 LINE",
"690 1476 LINE"
);
}
);
width = 1200;
},
{
associatedMasterId = "BBAB2DB2-7554-4FB8-925D-17003E4845F8";
layerId = "7CC500CD-C10D-449B-BC1E-579E9C7B0FB7";
name = "Bold Jun 1 14, 13:39";
paths = (
{
closed = 1;
nodes = (
"462 1486 LINE",
"506 1206 LINE",
"254 1328 LINE",
"174 1076 LINE",
"448 1030 LINE",
"250 828 LINE",
"470 668 LINE",
"598 918 LINE",
"732 670 LINE",
"952 830 LINE",
"750 1028 LINE",
"1026 1076 LINE",
"944 1328 LINE",
"692 1204 LINE",
"736 1486 LINE"
);
}
);
width = 1200;
}
);
},
{
glyphname = colon.uc;
lastChange = "2019-08-15 16:18:04 +0000";
layers = (
{
background = {
paths = (
{
closed = 1;
nodes = (
"336 0 LINE",
"340 1420 LINE",
"128 1420 LINE",
"128 0 LINE"
);
},
{
closed = 1;
nodes = (
"1032 620 LINE",
"1032 796 LINE",
"170 796 LINE",
"168 620 LINE"
);
},
{
closed = 1;
nodes = (
"1068 0 LINE",
"1072 1420 LINE",
"860 1420 LINE",
"860 0 LINE"
);
}
);
};
components = (
{
name = colon;
transform = "{1, 0, 0, 1, 0, 170}";
}
);
layerId = "BBAB2DB2-7554-4FB8-925D-17003E4845F8";
width = 1200;
},
{
associatedMasterId = "BBAB2DB2-7554-4FB8-925D-17003E4845F8";
layerId = "BF448B58-7A35-489E-A1C9-12628F60690C";
paths = (
{
closed = 1;
nodes = (
"388 222 OFFCURVE",
"482 126 OFFCURVE",
"600 126 CURVE SMOOTH",
"718 126 OFFCURVE",
"810 222 OFFCURVE",
"810 338 CURVE SMOOTH",
"810 452 OFFCURVE",
"718 546 OFFCURVE",
"600 546 CURVE SMOOTH",
"482 546 OFFCURVE",
"388 452 OFFCURVE",
"388 338 CURVE SMOOTH"
);
},
{
closed = 1;
nodes = (
"388 914 OFFCURVE",
"482 818 OFFCURVE",
"600 818 CURVE SMOOTH",
"718 818 OFFCURVE",
"810 914 OFFCURVE",
"810 1028 CURVE SMOOTH",
"810 1142 OFFCURVE",
"718 1240 OFFCURVE",
"600 1240 CURVE SMOOTH",
"482 1240 OFFCURVE",
"388 1142 OFFCURVE",
"388 1028 CURVE SMOOTH"
);
}
);
width = 1200;
}
);
},
{
glyphname = parenleft;
lastChange = "2019-08-15 16:18:04 +0000";
layers = (
{
background = {
paths = (
{
closed = 1;
nodes = (
"862 -220 OFFCURVE",
"922 -212 OFFCURVE",
"974 -200 CURVE",
"950 -10 LINE",
"908 -22 OFFCURVE",
"864 -30 OFFCURVE",
"830 -30 CURVE SMOOTH",
"754 -30 OFFCURVE",
"712 104 OFFCURVE",
"712 340 CURVE SMOOTH",
"712 398 OFFCURVE",
"732 454 OFFCURVE",
"732 516 CURVE SMOOTH",
"732 630 OFFCURVE",
"636 696 OFFCURVE",
"470 696 CURVE",
"470 732 LINE",
"636 732 OFFCURVE",
"732 802 OFFCURVE",
"732 926 CURVE SMOOTH",
"732 986 OFFCURVE",
"712 1038 OFFCURVE",
"712 1094 CURVE SMOOTH",
"712 1322 OFFCURVE",
"754 1450 OFFCURVE",
"830 1450 CURVE SMOOTH",
"864 1450 OFFCURVE",
"908 1442 OFFCURVE",
"950 1430 CURVE",
"974 1620 LINE",
"922 1632 OFFCURVE",
"862 1640 OFFCURVE",
"812 1640 CURVE SMOOTH",
"614 1640 OFFCURVE",
"500 1444 OFFCURVE",
"500 1098 CURVE SMOOTH",
"500 1040 OFFCURVE",
"520 986 OFFCURVE",
"520 924 CURVE SMOOTH",
"520 818 OFFCURVE",
"368 758 OFFCURVE",
"272 758 CURVE",
"272 662 LINE",
"374 662 OFFCURVE",
"520 630 OFFCURVE",
"520 516 CURVE SMOOTH",
"520 454 OFFCURVE",
"500 398 OFFCURVE",
"500 340 CURVE SMOOTH",
"500 -14 OFFCURVE",
"614 -220 OFFCURVE",
"812 -220 CURVE SMOOTH"
);
},
{
closed = 1;
nodes = (
"478 662 LINE",
"478 778 LINE",
"426 778 LINE",
"426 662 LINE"
);
}
);
};
layerId = "BBAB2DB2-7554-4FB8-925D-17003E4845F8";
paths = (
{
closed = 1;
nodes = (
"998 -220 LINE",
"978 -50 LINE",
"970 -50 LINE SMOOTH",
"648 -50 OFFCURVE",
"466 230 OFFCURVE",
"466 716 CURVE SMOOTH",
"466 1194 OFFCURVE",
"648 1470 OFFCURVE",
"970 1470 CURVE SMOOTH",
"978 1470 LINE",
"998 1640 LINE",
"950 1640 LINE SMOOTH",
"516 1640 OFFCURVE",
"266 1304 OFFCURVE",
"266 716 CURVE SMOOTH",
"266 120 OFFCURVE",
"516 -220 OFFCURVE",
"950 -220 CURVE SMOOTH"
);
}
);
width = 1200;
}
);
unicode = 0028;
},
{
glyphname = parenright;
lastChange = "2019-08-15 16:18:04 +0000";
layers = (
{
layerId = "BBAB2DB2-7554-4FB8-925D-17003E4845F8";
paths = (
{
closed = 1;
nodes = (
"250 -220 LINE SMOOTH",
"684 -220 OFFCURVE",
"934 120 OFFCURVE",
"934 716 CURVE SMOOTH",
"934 1304 OFFCURVE",
"684 1640 OFFCURVE",
"250 1640 CURVE SMOOTH",
"202 1640 LINE",
"222 1470 LINE",
"230 1470 LINE SMOOTH",
"552 1470 OFFCURVE",
"734 1194 OFFCURVE",
"734 716 CURVE SMOOTH",
"734 230 OFFCURVE",
"552 -50 OFFCURVE",
"230 -50 CURVE SMOOTH",
"222 -50 LINE",
"202 -220 LINE"
);
}
);
width = 1200;
}
);
unicode = 0029;
},
{
glyphname = braceleft;
lastChange = "2019-08-25 18:12:39 +0000";
layers = (
{
layerId = "BBAB2DB2-7554-4FB8-925D-17003E4845F8";
paths = (
{
closed = 1;
nodes = (
"920 -224 OFFCURVE",
"960 -216 OFFCURVE",
"996 -204 CURVE",
"972 -34 LINE",
"936 -46 OFFCURVE",
"902 -54 OFFCURVE",
"874 -54 CURVE SMOOTH",
"760 -54 OFFCURVE",
"698 44 OFFCURVE",
"698 216 CURVE SMOOTH",
"698 314 OFFCURVE",
"704 402 OFFCURVE",
"704 508 CURVE SMOOTH",
"704 623 OFFCURVE",
"637 695 OFFCURVE",
"522 698 CURVE",
"522 732 LINE",
"637 735 OFFCURVE",
"704 803 OFFCURVE",
"704 922 CURVE SMOOTH",
"704 1024 OFFCURVE",
"698 1112 OFFCURVE",
"698 1214 CURVE SMOOTH",
"698 1374 OFFCURVE",
"760 1466 OFFCURVE",
"874 1466 CURVE SMOOTH",
"902 1466 OFFCURVE",
"936 1458 OFFCURVE",
"972 1446 CURVE",
"996 1616 LINE",
"960 1628 OFFCURVE",
"920 1636 OFFCURVE",
"856 1636 CURVE SMOOTH",
"620 1636 OFFCURVE",
"484 1484 OFFCURVE",
"484 1214 CURVE SMOOTH",
"484 1122 OFFCURVE",
"486 1038 OFFCURVE",
"486 938 CURVE SMOOTH",
"486 846 OFFCURVE",
"334 794 OFFCURVE",
"256 794 CURVE",
"256 636 LINE",
"338 636 OFFCURVE",
"486 604 OFFCURVE",
"486 492 CURVE SMOOTH",
"486 396 OFFCURVE",
"484 308 OFFCURVE",
"484 216 CURVE SMOOTH",
"484 -62 OFFCURVE",
"620 -224 OFFCURVE",
"856 -224 CURVE SMOOTH"
);
}
);
width = 1200;
}
);
unicode = 007B;
},
{
glyphname = braceright;
lastChange = "2019-08-25 18:12:39 +0000";
layers = (
{
background = {
paths = (
{
closed = 1;
nodes = (
"580 -204 OFFCURVE",
"716 2 OFFCURVE",
"716 356 CURVE SMOOTH",
"716 408 OFFCURVE",
"706 458 OFFCURVE",
"706 512 CURVE SMOOTH",
"706 610 OFFCURVE",
"860 638 OFFCURVE",
"944 638 CURVE",
"944 814 LINE",
"864 814 OFFCURVE",
"706 866 OFFCURVE",
"706 958 CURVE SMOOTH",
"706 1014 OFFCURVE",
"716 1062 OFFCURVE",
"716 1114 CURVE SMOOTH",
"716 1460 OFFCURVE",
"580 1656 OFFCURVE",
"344 1656 CURVE SMOOTH",
"280 1656 OFFCURVE",
"238 1648 OFFCURVE",
"202 1636 CURVE",
"226 1466 LINE",
"262 1478 OFFCURVE",
"298 1486 OFFCURVE",
"326 1486 CURVE SMOOTH",
"448 1486 OFFCURVE",
"516 1350 OFFCURVE",
"516 1110 CURVE SMOOTH",
"516 1054 OFFCURVE",
"496 1002 OFFCURVE",
"496 942 CURVE SMOOTH",
"496 818 OFFCURVE",
"566 748 OFFCURVE",
"686 748 CURVE",
"686 712 LINE",
"566 712 OFFCURVE",
"496 646 OFFCURVE",
"496 532 CURVE SMOOTH",
"496 470 OFFCURVE",
"516 414 OFFCURVE",
"516 356 CURVE SMOOTH",
"516 108 OFFCURVE",
"448 -34 OFFCURVE",
"326 -34 CURVE SMOOTH",
"298 -34 OFFCURVE",
"262 -26 OFFCURVE",
"226 -14 CURVE",
"202 -184 LINE",
"238 -196 OFFCURVE",
"280 -204 OFFCURVE",
"344 -204 CURVE SMOOTH"
);
},
{
closed = 1;
nodes = (
"730 678 LINE",
"730 794 LINE",
"678 794 LINE",
"678 678 LINE"
);
}
);
};
layerId = "BBAB2DB2-7554-4FB8-925D-17003E4845F8";
paths = (
{
closed = 1;
nodes = (
"580 -224 OFFCURVE",
"716 -62 OFFCURVE",
"716 216 CURVE SMOOTH",
"716 308 OFFCURVE",
"714 396 OFFCURVE",
"714 492 CURVE SMOOTH",
"714 604 OFFCURVE",
"862 636 OFFCURVE",
"944 636 CURVE",
"944 794 LINE",
"866 794 OFFCURVE",
"714 846 OFFCURVE",
"714 938 CURVE SMOOTH",
"714 1038 OFFCURVE",
"716 1122 OFFCURVE",
"716 1214 CURVE SMOOTH",
"716 1484 OFFCURVE",
"580 1636 OFFCURVE",
"344 1636 CURVE SMOOTH",
"280 1636 OFFCURVE",
"240 1628 OFFCURVE",
"204 1616 CURVE",
"228 1446 LINE",
"264 1458 OFFCURVE",
"298 1466 OFFCURVE",
"326 1466 CURVE SMOOTH",
"440 1466 OFFCURVE",
"502 1374 OFFCURVE",
"502 1214 CURVE SMOOTH",
"502 1112 OFFCURVE",
"496 1024 OFFCURVE",
"496 922 CURVE SMOOTH",
"496 803 OFFCURVE",
"563 735 OFFCURVE",
"678 732 CURVE",
"678 698 LINE",
"563 695 OFFCURVE",
"496 623 OFFCURVE",
"496 508 CURVE SMOOTH",
"496 402 OFFCURVE",
"502 314 OFFCURVE",
"502 216 CURVE SMOOTH",
"502 44 OFFCURVE",
"440 -54 OFFCURVE",
"326 -54 CURVE SMOOTH",
"298 -54 OFFCURVE",
"264 -46 OFFCURVE",
"228 -34 CURVE",
"204 -204 LINE",
"240 -216 OFFCURVE",
"280 -224 OFFCURVE",
"344 -224 CURVE SMOOTH"
);
}
);
width = 1200;
}
);
unicode = 007D;
},
{
glyphname = bracketleft;
lastChange = "2019-08-15 16:18:04 +0000";
layers = (
{
layerId = "BBAB2DB2-7554-4FB8-925D-17003E4845F8";
paths = (
{
closed = 1;
nodes = (
"572 -200 LINE",
"572 1620 LINE",
"372 1620 LINE",
"372 -200 LINE"
);
},
{
closed = 1;
nodes = (
"998 -200 LINE",
"998 -24 LINE",
"552 -24 LINE",
"552 -200 LINE"
);
},
{
closed = 1;
nodes = (
"998 1444 LINE",
"998 1620 LINE",
"552 1620 LINE",
"552 1444 LINE"
);
}
);
width = 1200;
}
);
unicode = 005B;
},
{
glyphname = bracketright;
lastChange = "2019-08-15 16:18:04 +0000";
layers = (
{
layerId = "BBAB2DB2-7554-4FB8-925D-17003E4845F8";
paths = (
{
closed = 1;
nodes = (
"828 -200 LINE",
"828 1620 LINE",
"616 1620 LINE",
"616 -200 LINE"
);
},
{
closed = 1;
nodes = (
"636 -200 LINE",
"636 -24 LINE",
"202 -24 LINE",
"202 -200 LINE"
);
},
{
closed = 1;
nodes = (
"636 1444 LINE",
"636 1620 LINE",
"202 1620 LINE",
"202 1444 LINE"
);
}
);
width = 1200;
}
);
unicode = 005D;
},
{
glyphname = underscore;
lastChange = "2019-08-15 16:18:04 +0000";
layers = (
{
layerId = "BBAB2DB2-7554-4FB8-925D-17003E4845F8";
paths = (
{
closed = 1;
nodes = (
"1100 -176 LINE",
"1100 0 LINE",
"100 0 LINE",
"100 -176 LINE"
);
}
);
width = 1200;
}
);
unicode = 005F;
},
{
glyphname = quoteleft;
lastChange = "2019-08-15 16:18:04 +0000";
layers = (
{
layerId = "BBAB2DB2-7554-4FB8-925D-17003E4845F8";
paths = (
{
closed = 1;
nodes = (
"658 780 LINE",
"478 1420 LINE",
"286 1420 LINE",
"426 780 LINE"
);
}
);
width = 1200;
}
);
unicode = 2018;
},
{
glyphname = quoteright;
lastChange = "2019-08-15 16:18:04 +0000";
layers = (
{
layerId = "BBAB2DB2-7554-4FB8-925D-17003E4845F8";
paths = (
{
closed = 1;
nodes = (
"634 780 LINE",
"814 1420 LINE",
"582 1420 LINE",
"442 780 LINE"
);
}
);
width = 1200;
}
);
unicode = 2019;
},
{
glyphname = quotesingle;
lastChange = "2019-08-15 16:18:04 +0000";
layers = (
{
layerId = "BBAB2DB2-7554-4FB8-925D-17003E4845F8";
paths = (
{
closed = 1;
nodes = (
"694 780 LINE",
"714 1420 LINE",
"482 1420 LINE",
"502 780 LINE"
);
}
);
width = 1200;
}
);
unicode = 0027;
},
{
color = 3;
glyphname = hyphen_hyphen.liga;
lastChange = "2019-08-30 04:58:31 +0000";
layers = (
{
background = {
components = (
{
name = minus;
transform = "{1, 0, 0, 1, -1200, 0}";
}
);
};
layerId = "BBAB2DB2-7554-4FB8-925D-17003E4845F8";
paths = (
{
closed = 1;
nodes = (
"920 616 LINE",
"920 802 LINE",
"120 802 LINE",
"120 616 LINE"
);
},
{
closed = 1;
nodes = (
"-140 616 LINE",
"-140 802 LINE",
"-920 802 LINE",
"-920 616 LINE"
);
}
);
width = 1200;
}
);
},
{
color = 4;
glyphname = hyphen_hyphen_hyphen.liga;
lastChange = "2019-08-30 04:58:31 +0000";
layers = (
{
layerId = "BBAB2DB2-7554-4FB8-925D-17003E4845F8";
paths = (
{
closed = 1;
nodes = (
"920 616 LINE",
"920 802 LINE",
"120 802 LINE",
"120 616 LINE"
);
},
{
closed = 1;
nodes = (
"-1340 616 LINE",
"-1340 802 LINE",
"-2120 802 LINE",
"-2120 616 LINE"
);
},
{
closed = 1;
nodes = (
"-210 616 LINE",
"-210 802 LINE",
"-1010 802 LINE",
"-1010 616 LINE"
);
}
);
width = 1200;
}
);
},
{
color = 4;
glyphname = hyphen_hyphen_greater.liga;
lastChange = "2019-08-30 04:58:31 +0000";
layers = (
{
background = {
components = (
{
name = greater;
transform = "{1, 0, 0, 1, 4810, 15}";
}
);
};
guideLines = (
{
angle = 90;
position = "{-4001, -80}";
}
);
layerId = "BBAB2DB2-7554-4FB8-925D-17003E4845F8";
paths = (
{
closed = 1;
nodes = (
"960 648 LINE",
"960 770 LINE",
"6 1304 LINE",
"6 1064 LINE",
"438 870 OFFCURVE",
"534 850 OFFCURVE",
"588 846 CURVE",
"588 570 LINE",
"538 566 OFFCURVE",
"450 540 OFFCURVE",
"6 352 CURVE",
"6 112 LINE"
);
},
{
closed = 1;
nodes = (
"642 614 LINE",
"642 802 LINE",
"-2120 802 LINE",
"-2120 614 LINE"
);
}
);
width = 1200;
}
);
},
{
color = 3;
glyphname = hyphen_bar.liga;
lastChange = "2019-08-30 04:58:31 +0000";
layers = (
{
components = (
{
name = bar;
transform = "{1, 0, 0, 1, 80, 0}";
}
);
layerId = "BBAB2DB2-7554-4FB8-925D-17003E4845F8";
paths = (
{
closed = 1;
nodes = (
"640 616 LINE",
"640 802 LINE",
"-920 802 LINE",
"-920 616 LINE"
);
}
);
width = 1200;
}
);
},
{
color = 3;
glyphname = hyphen_greater.liga;
lastChange = "2019-08-30 04:58:31 +0000";
layers = (
{
background = {
paths = (
{
closed = 1;
nodes = (
"2600 776 LINE",
"2600 600 LINE",
"4322 600 LINE",
"4322 776 LINE"
);
},
{
closed = 1;
nodes = (
"4640 628 LINE",
"4640 750 LINE",
"3686 1284 LINE",
"3686 1064 LINE",
"4118 850 OFFCURVE",
"4214 820 OFFCURVE",
"4268 816 CURVE",
"4268 560 LINE",
"4218 556 OFFCURVE",
"4130 510 OFFCURVE",
"3686 312 CURVE",
"3686 92 LINE"
);
},
{
closed = 1;
nodes = (
"960 648 LINE",
"960 770 LINE",
"6 1304 LINE",
"6 1064 LINE",
"438 870 OFFCURVE",
"534 850 OFFCURVE",
"588 846 CURVE",
"588 570 LINE",
"538 566 OFFCURVE",
"450 540 OFFCURVE",
"6 352 CURVE",
"6 112 LINE"
);
},
{
closed = 1;
nodes = (
"642 614 LINE",
"642 802 LINE",
"-2120 802 LINE",
"-2120 614 LINE"
);
}
);
};
layerId = "BBAB2DB2-7554-4FB8-925D-17003E4845F8";
paths = (
{
closed = 1;
nodes = (
"960 648 LINE",
"960 770 LINE",
"6 1304 LINE",
"6 1064 LINE",
"438 870 OFFCURVE",
"534 850 OFFCURVE",
"588 846 CURVE",
"588 570 LINE",
"540 566 OFFCURVE",
"450 540 OFFCURVE",
"6 342 CURVE",
"6 112 LINE"
);
},
{
closed = 1;
nodes = (
"642 614 LINE",
"642 802 LINE",
"-920 802 LINE",
"-920 614 LINE"
);
}
);
width = 1200;
}
);
},
{
color = 4;
glyphname = hyphen_greater_greater.liga;
lastChange = "2019-08-30 04:58:31 +0000";
layers = (
{
background = {
paths = (
{
closed = 1;
nodes = (
"6202 628 LINE",
"6202 750 LINE",
"5248 1284 LINE",
"5248 1064 LINE",
"5908 698 LINE",
"5908 680 LINE",
"5248 312 LINE",
"5248 92 LINE"
);
},
{
closed = 1;
nodes = (
"2600 792 LINE",
"2600 624 LINE",
"5522 624 LINE",
"5522 792 LINE"
);
},
{
closed = 1;
nodes = (
"5840 648 LINE",
"5840 770 LINE",
"4886 1304 LINE",
"4886 1084 LINE",
"5318 870 OFFCURVE",
"5414 840 OFFCURVE",
"5468 836 CURVE",
"5468 580 LINE",
"5418 576 OFFCURVE",
"5330 530 OFFCURVE",
"4886 332 CURVE",
"4886 112 LINE"
);
},
{
closed = 1;
nodes = (
"80 648 LINE",
"80 770 LINE",
"-874 1304 LINE",
"-874 1064 LINE",
"-442 870 OFFCURVE",
"-346 850 OFFCURVE",
"-292 846 CURVE",
"-292 570 LINE",
"-342 566 OFFCURVE",
"-430 540 OFFCURVE",
"-874 352 CURVE",
"-874 112 LINE"
);
},
{
closed = 1;
nodes = (
"-238 614 LINE",
"-238 802 LINE",
"-3000 802 LINE",
"-3000 614 LINE"
);
}
);
};
layerId = "BBAB2DB2-7554-4FB8-925D-17003E4845F8";
paths = (
{
closed = 1;
nodes = (
"960 648 LINE",
"960 770 LINE",
"6 1304 LINE",
"6 1064 LINE",
"656 718 LINE",
"656 700 LINE",
"6 352 LINE",
"6 112 LINE"
);
},
{
closed = 1;
nodes = (
"-240 614 LINE",
"-240 802 LINE",
"-2120 802 LINE",
"-2120 614 LINE"
);
},
{
closed = 1;
nodes = (
"78 648 LINE",
"78 770 LINE",
"-876 1304 LINE",
"-876 1064 LINE",
"-444 868 OFFCURVE",
"-348 850 OFFCURVE",
"-294 846 CURVE",
"-294 570 LINE",
"-344 566 OFFCURVE",
"-432 533 OFFCURVE",
"-876 352 CURVE",
"-876 112 LINE"
);
}
);
width = 1200;
}
);
},
{
color = 3;
glyphname = hyphen_less.liga;
lastChange = "2019-08-30 04:58:31 +0000";
layers = (
{
background = {
paths = (
{
closed = 1;
nodes = (
"2600 792 LINE",
"2600 624 LINE",
"5522 624 LINE",
"5522 792 LINE"
);
},
{
closed = 1;
nodes = (
"5840 648 LINE",
"5840 770 LINE",
"4886 1304 LINE",
"4886 1084 LINE",
"5318 870 OFFCURVE",
"5414 840 OFFCURVE",
"5468 836 CURVE",
"5468 580 LINE",
"5418 576 OFFCURVE",
"5330 530 OFFCURVE",
"4886 332 CURVE",
"4886 112 LINE"
);
}
);
};
layerId = "BBAB2DB2-7554-4FB8-925D-17003E4845F8";
paths = (
{
closed = 1;
nodes = (
"920 352 LINE",
"270 700 LINE",
"270 718 LINE",
"920 1064 LINE",
"920 1304 LINE",
"-34 770 LINE",
"-34 648 LINE",
"920 112 LINE"
);
},
{
closed = 1;
nodes = (
"32 624 LINE",
"32 792 LINE",
"-920 792 LINE",
"-920 624 LINE"
);
}
);
width = 1200;
}
);
},
{
color = 4;
glyphname = hyphen_less_less.liga;
lastChange = "2019-08-30 04:58:31 +0000";
layers = (
{
background = {
paths = (
{
closed = 1;
nodes = (
"2600 792 LINE",
"2600 624 LINE",
"5522 624 LINE",
"5522 792 LINE"
);
},
{
closed = 1;
nodes = (
"5840 648 LINE",
"5840 770 LINE",
"4886 1304 LINE",
"4886 1084 LINE",
"5318 870 OFFCURVE",
"5414 840 OFFCURVE",
"5468 836 CURVE",
"5468 580 LINE",
"5418 576 OFFCURVE",
"5330 530 OFFCURVE",
"4886 332 CURVE",
"4886 112 LINE"
);
}
);
};
layerId = "BBAB2DB2-7554-4FB8-925D-17003E4845F8";
paths = (
{
closed = 1;
nodes = (
"920 352 LINE",
"270 700 LINE",
"270 718 LINE",
"920 1064 LINE",
"920 1304 LINE",
"-34 770 LINE",
"-34 648 LINE",
"920 112 LINE"
);
},
{
closed = 1;
nodes = (
"-788 614 LINE",
"-788 802 LINE",
"-2120 802 LINE",
"-2120 614 LINE"
);
},
{
closed = 1;
nodes = (
"100 352 LINE",
"-550 700 LINE",
"-550 718 LINE",
"100 1064 LINE",
"100 1304 LINE",
"-854 770 LINE",
"-854 648 LINE",
"100 112 LINE"
);
}
);
width = 1200;
}
);
},
{
color = 3;
glyphname = hyphen_asciitilde.liga;
lastChange = "2019-08-30 04:58:31 +0000";
layers = (
{
background = {
components = (
{
name = hyphen;
transform = "{1, 0, 0, 1, 2400, 0}";
}
);
};
layerId = "BBAB2DB2-7554-4FB8-925D-17003E4845F8";
paths = (
{
closed = 1;
nodes = (
"898 548 OFFCURVE",
"1000 680 OFFCURVE",
"1000 908 CURVE SMOOTH",
"1000 978 LINE",
"798 978 LINE",
"798 928 LINE SMOOTH",
"798 812 OFFCURVE",
"762 744 OFFCURVE",
"698 744 CURVE SMOOTH",
"546 744 OFFCURVE",
"392 964 OFFCURVE",
"240 964 CURVE SMOOTH",
"48 964 OFFCURVE",
"-62 860 OFFCURVE",
"-62 676 CURVE SMOOTH",
"-62 626 LINE",
"142 626 LINE",
"142 656 LINE SMOOTH",
"142 714 OFFCURVE",
"180 748 OFFCURVE",
"244 748 CURVE SMOOTH",
"402 748 OFFCURVE",
"562 548 OFFCURVE",
"720 548 CURVE SMOOTH"
);
},
{
closed = 1;
nodes = (
"140 626 LINE",
"140 812 LINE",
"-920 812 LINE",
"-920 626 LINE"
);
}
);
width = 1200;
}
);
},
{
color = 3;
glyphname = braceleft_bar.liga;
lastChange = "2019-08-30 04:58:31 +0000";
layers = (
{
background = {
paths = (
{
closed = 1;
nodes = (
"3184 662 LINE",
"3184 778 LINE",
"3132 778 LINE",
"3132 662 LINE"
);
},
{
closed = 1;
nodes = (
"4488 -220 LINE",
"4492 1640 LINE",
"4280 1640 LINE",
"4280 -220 LINE"
);
},
{
closed = 1;
nodes = (
"3850 -220 OFFCURVE",
"3952 -212 OFFCURVE",
"4038 -200 CURVE",
"4014 -10 LINE",
"3906 -22 OFFCURVE",
"3798 -30 OFFCURVE",
"3714 -30 CURVE SMOOTH",
"3524 -30 OFFCURVE",
"3416 104 OFFCURVE",
"3416 340 CURVE SMOOTH",
"3416 398 OFFCURVE",
"3436 454 OFFCURVE",
"3436 516 CURVE SMOOTH",
"3436 630 OFFCURVE",
"3362 696 OFFCURVE",
"3234 696 CURVE",
"3234 732 LINE",
"3362 732 OFFCURVE",
"3436 802 OFFCURVE",
"3436 926 CURVE SMOOTH",
"3436 986 OFFCURVE",
"3416 1038 OFFCURVE",
"3416 1094 CURVE SMOOTH",
"3416 1322 OFFCURVE",
"3524 1450 OFFCURVE",
"3714 1450 CURVE SMOOTH",
"3798 1450 OFFCURVE",
"3906 1442 OFFCURVE",
"4014 1430 CURVE",
"4038 1620 LINE",
"3952 1632 OFFCURVE",
"3850 1640 OFFCURVE",
"3696 1640 CURVE SMOOTH",
"3384 1640 OFFCURVE",
"3204 1444 OFFCURVE",
"3204 1098 CURVE SMOOTH",
"3204 1046 OFFCURVE",
"3214 998 OFFCURVE",
"3214 942 CURVE SMOOTH",
"3214 850 OFFCURVE",
"3056 798 OFFCURVE",
"2976 798 CURVE",
"2976 622 LINE",
"3060 622 OFFCURVE",
"3214 594 OFFCURVE",
"3214 496 CURVE SMOOTH",
"3214 442 OFFCURVE",
"3204 392 OFFCURVE",
"3204 340 CURVE SMOOTH",
"3204 -14 OFFCURVE",
"3384 -220 OFFCURVE",
"3696 -220 CURVE SMOOTH"
);
},
{
closed = 1;
nodes = (
"3242 662 LINE",
"3242 778 LINE",
"3190 778 LINE",
"3190 662 LINE"
);
},
{
closed = 1;
nodes = (
"2348 -204 OFFCURVE",
"2430 -196 OFFCURVE",
"2502 -184 CURVE",
"2478 -6 LINE",
"2392 -18 OFFCURVE",
"2304 -26 OFFCURVE",
"2238 -26 CURVE SMOOTH",
"2002 -26 OFFCURVE",
"1868 112 OFFCURVE",
"1868 356 CURVE SMOOTH",
"1868 414 OFFCURVE",
"1888 470 OFFCURVE",
"1888 532 CURVE SMOOTH",
"1888 646 OFFCURVE",
"1818 712 OFFCURVE",
"1698 712 CURVE",
"1698 748 LINE",
"1818 748 OFFCURVE",
"1888 818 OFFCURVE",
"1888 942 CURVE SMOOTH",
"1888 1002 OFFCURVE",
"1868 1054 OFFCURVE",
"1868 1110 CURVE SMOOTH",
"1868 1346 OFFCURVE",
"2002 1478 OFFCURVE",
"2238 1478 CURVE SMOOTH",
"2304 1478 OFFCURVE",
"2392 1470 OFFCURVE",
"2478 1458 CURVE",
"2502 1636 LINE",
"2430 1648 OFFCURVE",
"2348 1656 OFFCURVE",
"2220 1656 CURVE SMOOTH",
"1870 1656 OFFCURVE",
"1668 1460 OFFCURVE",
"1668 1114 CURVE SMOOTH",
"1668 1062 OFFCURVE",
"1678 1014 OFFCURVE",
"1678 958 CURVE SMOOTH",
"1678 866 OFFCURVE",
"1520 814 OFFCURVE",
"1440 814 CURVE",
"1440 638 LINE",
"1524 638 OFFCURVE",
"1678 610 OFFCURVE",
"1678 512 CURVE SMOOTH",
"1678 458 OFFCURVE",
"1668 408 OFFCURVE",
"1668 356 CURVE SMOOTH",
"1668 2 OFFCURVE",
"1870 -204 OFFCURVE",
"2220 -204 CURVE SMOOTH"
);
}
);
};
components = (
{
name = bar;
}
);
layerId = "BBAB2DB2-7554-4FB8-925D-17003E4845F8";
paths = (
{
closed = 1;
nodes = (
"-42 -214 OFFCURVE",
"34 -206 OFFCURVE",
"100 -194 CURVE",
"76 -24 LINE",
"-4 -36 OFFCURVE",
"-80 -44 OFFCURVE",
"-142 -44 CURVE SMOOTH",
"-386 -44 OFFCURVE",
"-518 54 OFFCURVE",
"-518 226 CURVE SMOOTH",
"-518 324 OFFCURVE",
"-512 412 OFFCURVE",
"-512 518 CURVE SMOOTH",
"-512 636 OFFCURVE",
"-582 708 OFFCURVE",
"-702 708 CURVE",
"-702 742 LINE",
"-582 742 OFFCURVE",
"-512 810 OFFCURVE",
"-512 932 CURVE SMOOTH",
"-512 1034 OFFCURVE",
"-518 1122 OFFCURVE",
"-518 1224 CURVE SMOOTH",
"-518 1384 OFFCURVE",
"-386 1476 OFFCURVE",
"-142 1476 CURVE SMOOTH",
"-80 1476 OFFCURVE",
"-4 1468 OFFCURVE",
"76 1456 CURVE",
"100 1626 LINE",
"34 1638 OFFCURVE",
"-42 1646 OFFCURVE",
"-160 1646 CURVE SMOOTH",
"-522 1646 OFFCURVE",
"-732 1494 OFFCURVE",
"-732 1224 CURVE SMOOTH",
"-732 1132 OFFCURVE",
"-730 1048 OFFCURVE",
"-730 948 CURVE SMOOTH",
"-730 856 OFFCURVE",
"-882 804 OFFCURVE",
"-960 804 CURVE",
"-960 646 LINE",
"-878 646 OFFCURVE",
"-730 614 OFFCURVE",
"-730 502 CURVE SMOOTH",
"-730 406 OFFCURVE",
"-732 318 OFFCURVE",
"-732 226 CURVE SMOOTH",
"-732 -52 OFFCURVE",
"-522 -214 OFFCURVE",
"-160 -214 CURVE SMOOTH"
);
},
{
closed = 1;
nodes = (
"-694 668 LINE",
"-694 784 LINE",
"-746 784 LINE",
"-746 668 LINE"
);
},
{
closed = 1;
nodes = (
"-746 784 LINE",
"-694 784 LINE",
"-694 668 LINE",
"-746 668 LINE"
);
}
);
width = 1200;
}
);
},
{
color = 3;
glyphname = braceright_numbersign.liga;
lastChange = "2019-08-30 04:58:31 +0000";
layers = (
{
background = {
paths = (
{
closed = 1;
nodes = (
"4346 0 LINE",
"4466 1420 LINE",
"4290 1420 LINE",
"4170 0 LINE"
);
},
{
closed = 1;
nodes = (
"3182 530 LINE",
"3180 360 LINE",
"4600 360 LINE",
"4600 530 LINE"
);
},
{
closed = 1;
nodes = (
"3910 0 LINE",
"4030 1420 LINE",
"3854 1420 LINE",
"3734 0 LINE"
);
},
{
closed = 1;
nodes = (
"3182 1060 LINE",
"3180 890 LINE",
"4600 890 LINE",
"4600 1060 LINE"
);
}
);
};
layerId = "BBAB2DB2-7554-4FB8-925D-17003E4845F8";
paths = (
{
closed = 1;
nodes = (
"-582 -224 OFFCURVE",
"-446 -62 OFFCURVE",
"-446 216 CURVE SMOOTH",
"-446 308 OFFCURVE",
"-448 396 OFFCURVE",
"-448 492 CURVE SMOOTH",
"-448 628 OFFCURVE",
"-300 666 OFFCURVE",
"-218 666 CURVE",
"-218 764 LINE",
"-296 764 OFFCURVE",
"-448 826 OFFCURVE",
"-448 938 CURVE SMOOTH",
"-448 1038 OFFCURVE",
"-446 1122 OFFCURVE",
"-446 1214 CURVE SMOOTH",
"-446 1484 OFFCURVE",
"-582 1636 OFFCURVE",
"-818 1636 CURVE SMOOTH",
"-882 1636 OFFCURVE",
"-922 1628 OFFCURVE",
"-958 1616 CURVE",
"-934 1446 LINE",
"-898 1458 OFFCURVE",
"-864 1466 OFFCURVE",
"-836 1466 CURVE SMOOTH",
"-722 1466 OFFCURVE",
"-660 1374 OFFCURVE",
"-660 1214 CURVE SMOOTH",
"-660 1112 OFFCURVE",
"-666 1024 OFFCURVE",
"-666 922 CURVE SMOOTH",
"-666 803 OFFCURVE",
"-599 735 OFFCURVE",
"-484 732 CURVE",
"-484 698 LINE",
"-599 695 OFFCURVE",
"-666 623 OFFCURVE",
"-666 508 CURVE SMOOTH",
"-666 402 OFFCURVE",
"-660 314 OFFCURVE",
"-660 216 CURVE SMOOTH",
"-660 44 OFFCURVE",
"-722 -54 OFFCURVE",
"-836 -54 CURVE SMOOTH",
"-864 -54 OFFCURVE",
"-898 -46 OFFCURVE",
"-934 -34 CURVE",
"-958 -204 LINE",
"-922 -216 OFFCURVE",
"-882 -224 OFFCURVE",
"-818 -224 CURVE SMOOTH"
);
},
{
closed = 1;
nodes = (
"920 360 LINE",
"920 530 LINE",
"-498 530 LINE",
"-500 360 LINE"
);
},
{
closed = 1;
nodes = (
"230 0 LINE",
"350 1420 LINE",
"174 1420 LINE",
"54 0 LINE"
);
},
{
closed = 1;
nodes = (
"920 890 LINE",
"920 1060 LINE",
"-498 1060 LINE",
"-500 890 LINE"
);
},
{
closed = 1;
nodes = (
"666 0 LINE",
"786 1420 LINE",
"610 1420 LINE",
"490 0 LINE"
);
}
);
width = 1200;
}
);
},
{
color = 3;
glyphname = bracketleft_bar.liga;
lastChange = "2019-08-30 04:58:31 +0000";
layers = (
{
background = {
components = (
{
name = bracketleft;
transform = "{1, 0, 0, 1, 2566, 0}";
}
);
};
layerId = "BBAB2DB2-7554-4FB8-925D-17003E4845F8";
paths = (
{
closed = 1;
nodes = (
"-458 -200 LINE",
"-458 1620 LINE",
"-660 1620 LINE",
"-660 -200 LINE"
);
},
{
closed = 1;
nodes = (
"188 -200 LINE",
"188 -24 LINE",
"-478 -24 LINE",
"-478 -200 LINE"
);
},
{
closed = 1;
nodes = (
"654 -200 LINE",
"654 1620 LINE",
"454 1620 LINE",
"454 -200 LINE"
);
},
{
closed = 1;
nodes = (
"188 1444 LINE",
"188 1620 LINE",
"-478 1620 LINE",
"-478 1444 LINE"
);
}
);
width = 1200;
}
);
},
{
color = 3;
glyphname = bracketright_numbersign.liga;
lastChange = "2019-08-30 04:58:31 +0000";
layers = (
{
background = {
components = (
{
name = braceleft;
transform = "{-1, 0, 0, 1, 3117, -10}";
}
);
paths = (
{
closed = 1;
nodes = (
"4602 0 LINE",
"4722 1420 LINE",
"4540 1420 LINE",
"4420 0 LINE"
);
},
{
closed = 1;
nodes = (
"3156 300 LINE",
"4816 300 LINE",
"4814 476 LINE",
"3156 476 LINE"
);
},
{
closed = 1;
nodes = (
"4172 0 LINE",
"4292 1420 LINE",
"4110 1420 LINE",
"3990 0 LINE"
);
},
{
closed = 1;
nodes = (
"3156 904 LINE",
"4816 904 LINE",
"4814 1080 LINE",
"3156 1080 LINE"
);
}
);
};
components = (
{
name = bracketleft;
transform = "{-1, 0, 0, 1, 38, -20}";
}
);
layerId = "BBAB2DB2-7554-4FB8-925D-17003E4845F8";
paths = (
{
closed = 1;
nodes = (
"666 0 LINE",
"786 1420 LINE",
"610 1420 LINE",
"490 0 LINE"
);
},
{
closed = 1;
nodes = (
"920 360 LINE",
"920 530 LINE",
"-420 530 LINE",
"-420 360 LINE"
);
},
{
closed = 1;
nodes = (
"230 0 LINE",
"350 1420 LINE",
"174 1420 LINE",
"54 0 LINE"
);
},
{
closed = 1;
nodes = (
"920 890 LINE",
"920 1060 LINE",
"-420 1060 LINE",
"-420 890 LINE"
);
}
);
width = 1200;
}
);
},
{
color = 3;
glyphname = period_hyphen.liga;
lastChange = "2019-08-30 04:58:31 +0000";
layers = (
{
components = (
{
name = period;
transform = "{1, 0, 0, 1, -1260, 580}";
}
);
layerId = "BBAB2DB2-7554-4FB8-925D-17003E4845F8";
paths = (
{
closed = 1;
nodes = (
"920 614 LINE",
"920 800 LINE",
"-180 800 LINE",
"-180 614 LINE"
);
}
);
width = 1200;
}
);
},
{
color = 4;
glyphname = period_period_equal.liga;
lastChange = "2019-08-30 04:58:31 +0000";
layers = (
{
components = (
{
name = period;
transform = "{1, 0, 0, 1, -2520, 580}";
},
{
name = period;
transform = "{1, 0, 0, 1, -1750, 580}";
}
);
layerId = "BBAB2DB2-7554-4FB8-925D-17003E4845F8";
paths = (
{
closed = 1;
nodes = (
"920 866 LINE",
"920 1052 LINE",
"-500 1052 LINE",
"-500 866 LINE"
);
},
{
closed = 1;
nodes = (
"920 366 LINE",
"920 552 LINE",
"-500 552 LINE",
"-500 366 LINE"
);
}
);
width = 1200;
}
);
},
{
color = 4;
glyphname = period_period_less.liga;
lastChange = "2019-08-30 04:58:31 +0000";
layers = (
{
components = (
{
name = period;
transform = "{1, 0, 0, 1, -2460, 562}";
},
{
name = period;
transform = "{1, 0, 0, 1, -1462, 562}";
}
);
layerId = "BBAB2DB2-7554-4FB8-925D-17003E4845F8";
paths = (
{
closed = 1;
nodes = (
"920 434 LINE",
"60 700 LINE",
"60 718 LINE",
"920 984 LINE",
"920 1204 LINE",
"-218 810 LINE",
"-218 608 LINE",
"920 214 LINE"
);
}
);
width = 1200;
}
);
},
{
color = 3;
glyphname = period_equal.liga;
lastChange = "2019-08-30 04:58:31 +0000";
layers = (
{
components = (
{
name = period;
transform = "{1, 0, 0, 1, -1260, 580}";
}
);
layerId = "BBAB2DB2-7554-4FB8-925D-17003E4845F8";
paths = (
{
closed = 1;
nodes = (
"920 866 LINE",
"920 1052 LINE",
"-100 1052 LINE",
"-100 866 LINE"
);
},
{
closed = 1;
nodes = (
"920 366 LINE",
"920 552 LINE",
"-100 552 LINE",
"-100 366 LINE"
);
}
);
width = 1200;
}
);
},
{
color = 4;
glyphname = colon_colon_equal.liga;
lastChange = "2019-08-30 04:58:31 +0000";
layers = (
{
background = {
components = (
{
name = equal;
transform = "{1, 0, 0, 1, 3600, 0}";
}
);
};
components = (
{
name = colon;
transform = "{1, 0, 0, 1, -2520, 180}";
},
{
name = colon;
transform = "{1, 0, 0, 1, -1750, 180}";
}
);
layerId = "BBAB2DB2-7554-4FB8-925D-17003E4845F8";
paths = (
{
closed = 1;
nodes = (
"920 866 LINE",
"920 1052 LINE",
"-500 1052 LINE",
"-500 866 LINE"
);
},
{
closed = 1;
nodes = (
"920 366 LINE",
"920 552 LINE",
"-500 552 LINE",
"-500 366 LINE"
);
}
);
width = 1200;
}
);
},
{
color = 3;
glyphname = colon_equal.liga;
lastChange = "2019-08-30 04:58:31 +0000";
layers = (
{
background = {
components = (
{
name = equal;
transform = "{1, 0, 0, 1, 2400, 0}";
}
);
};
components = (
{
name = colon;
transform = "{1, 0, 0, 1, -1260, 180}";
}
);
layerId = "BBAB2DB2-7554-4FB8-925D-17003E4845F8";
paths = (
{
closed = 1;
nodes = (
"920 826 LINE",
"920 1012 LINE",
"-200 1012 LINE",
"-200 826 LINE"
);
},
{
closed = 1;
nodes = (
"920 326 LINE",
"920 512 LINE",
"-200 512 LINE",
"-200 326 LINE"
);
}
);
width = 1200;
}
);
},
{
color = 3;
glyphname = colon_greater.liga;
lastChange = "2019-08-30 04:58:31 +0000";
layers = (
{
components = (
{
name = colon;
transform = "{1, 0, 0, 1, -1260, 180}";
}
);
layerId = "BBAB2DB2-7554-4FB8-925D-17003E4845F8";
paths = (
{
closed = 1;
nodes = (
"962 608 LINE",
"962 810 LINE",
"-156 1204 LINE",
"-156 984 LINE",
"664 718 LINE",
"664 700 LINE",
"-156 434 LINE",
"-156 214 LINE"
);
}
);
width = 1200;
}
);
},
{
color = 3;
glyphname = colon_less.liga;
lastChange = "2019-08-30 04:58:31 +0000";
layers = (
{
background = {
components = (
{
name = colon;
transform = "{1, 0, 0, 1, 1780, -1}";
},
{
name = greater;
transform = "{1, 0, 0, 1, 2300, -76}";
}
);
};
components = (
{
name = colon;
transform = "{1, 0, 0, 1, -1252, 180}";
}
);
layerId = "BBAB2DB2-7554-4FB8-925D-17003E4845F8";
paths = (
{
closed = 1;
nodes = (
"920 434 LINE",
"100 700 LINE",
"100 718 LINE",
"920 984 LINE",
"920 1204 LINE",
"-198 810 LINE",
"-198 608 LINE",
"920 214 LINE"
);
}
);
width = 1200;
}
);
},
{
color = 3;
glyphname = exclam_equal.liga;
lastChange = "2019-08-30 04:58:31 +0000";
layers = (
{
layerId = "BBAB2DB2-7554-4FB8-925D-17003E4845F8";
paths = (
{
closed = 1;
nodes = (
"-314 -100 LINE",
"500 1520 LINE",
"298 1520 LINE",
"-516 -100 LINE"
);
},
{
closed = 1;
nodes = (
"920 366 LINE",
"920 552 LINE",
"-920 552 LINE",
"-920 366 LINE"
);
},
{
closed = 1;
nodes = (
"920 866 LINE",
"920 1052 LINE",
"-920 1052 LINE",
"-920 866 LINE"
);
}
);
width = 1200;
}
);
},
{
color = 4;
glyphname = exclam_equal_equal.liga;
lastChange = "2019-08-30 04:58:31 +0000";
layers = (
{
background = {
paths = (
{
closed = 1;
nodes = (
"2720 1196 LINE",
"2718 1020 LINE",
"5638 1020 LINE",
"5638 1196 LINE"
);
},
{
closed = 1;
nodes = (
"2720 786 LINE",
"2718 610 LINE",
"5638 610 LINE",
"5638 786 LINE"
);
},
{
closed = 1;
nodes = (
"2720 376 LINE",
"2718 200 LINE",
"5638 200 LINE",
"5638 376 LINE"
);
},
{
closed = 1;
nodes = (
"3974 -24 LINE",
"4654 1420 LINE",
"4452 1420 LINE",
"3772 -24 LINE"
);
}
);
};
layerId = "BBAB2DB2-7554-4FB8-925D-17003E4845F8";
paths = (
{
closed = 1;
nodes = (
"-874 -100 LINE",
"-60 1520 LINE",
"-262 1520 LINE",
"-1076 -100 LINE"
);
},
{
closed = 1;
nodes = (
"920 206 LINE",
"920 392 LINE",
"-2120 392 LINE",
"-2120 206 LINE"
);
},
{
closed = 1;
nodes = (
"920 616 LINE",
"920 802 LINE",
"-2120 802 LINE",
"-2120 616 LINE"
);
},
{
closed = 1;
nodes = (
"920 1026 LINE",
"920 1212 LINE",
"-2120 1212 LINE",
"-2120 1026 LINE"
);
}
);
width = 1200;
}
);
},
{
color = 3;
glyphname = question_equal.liga;
lastChange = "2019-08-30 04:58:31 +0000";
layers = (
{
components = (
{
name = question;
transform = "{1, 0, 0, 1, -1158, 0}";
}
);
layerId = "BBAB2DB2-7554-4FB8-925D-17003E4845F8";
paths = (
{
closed = 1;
nodes = (
"920 406 LINE",
"920 592 LINE",
"-98 592 LINE",
"-98 406 LINE"
);
},
{
closed = 1;
nodes = (
"920 886 LINE",
"920 1072 LINE",
"20 1072 LINE",
"10 1014 OFFCURVE",
"-14 940 OFFCURVE",
"-44 886 CURVE"
);
}
);
width = 1200;
}
);
},
{
color = 3;
glyphname = numbersign_parenleft.liga;
lastChange = "2019-08-30 04:58:31 +0000";
layers = (
{
background = {
paths = (
{
closed = 1;
nodes = (
"3346 0 LINE",
"3466 1420 LINE",
"3290 1420 LINE",
"3170 0 LINE"
);
},
{
closed = 1;
nodes = (
"2602 530 LINE",
"2600 360 LINE",
"4000 360 LINE",
"4000 530 LINE"
);
},
{
closed = 1;
nodes = (
"2910 0 LINE",
"3030 1420 LINE",
"2854 1420 LINE",
"2734 0 LINE"
);
},
{
closed = 1;
nodes = (
"2602 1060 LINE",
"2600 890 LINE",
"4000 890 LINE",
"4000 1060 LINE"
);
}
);
};
components = (
{
name = parenleft;
transform = "{1, 0, 0, 1, -20, 0}";
}
);
layerId = "BBAB2DB2-7554-4FB8-925D-17003E4845F8";
paths = (
{
closed = 1;
nodes = (
"-174 0 LINE",
"-54 1420 LINE",
"-230 1420 LINE",
"-350 0 LINE"
);
},
{
closed = 1;
nodes = (
"-610 0 LINE",
"-490 1420 LINE",
"-666 1420 LINE",
"-786 0 LINE"
);
},
{
closed = 1;
nodes = (
"420 360 LINE",
"420 530 LINE",
"-920 530 LINE",
"-920 360 LINE"
);
},
{
closed = 1;
nodes = (
"420 890 LINE",
"420 1060 LINE",
"-920 1060 LINE",
"-920 890 LINE"
);
}
);
width = 1200;
}
);
},
{
color = 3;
glyphname = numbersign_braceleft.liga;
lastChange = "2019-08-30 04:58:31 +0000";
layers = (
{
layerId = "BBAB2DB2-7554-4FB8-925D-17003E4845F8";
paths = (
{
closed = 1;
nodes = (
"920 -224 OFFCURVE",
"960 -216 OFFCURVE",
"996 -204 CURVE",
"972 -34 LINE",
"936 -46 OFFCURVE",
"902 -54 OFFCURVE",
"874 -54 CURVE SMOOTH",
"760 -54 OFFCURVE",
"698 44 OFFCURVE",
"698 216 CURVE SMOOTH",
"698 314 OFFCURVE",
"704 402 OFFCURVE",
"704 508 CURVE SMOOTH",
"704 623 OFFCURVE",
"637 695 OFFCURVE",
"522 698 CURVE",
"522 732 LINE",
"637 735 OFFCURVE",
"704 803 OFFCURVE",
"704 922 CURVE SMOOTH",
"704 1024 OFFCURVE",
"698 1112 OFFCURVE",
"698 1214 CURVE SMOOTH",
"698 1374 OFFCURVE",
"760 1466 OFFCURVE",
"874 1466 CURVE SMOOTH",
"902 1466 OFFCURVE",
"936 1458 OFFCURVE",
"972 1446 CURVE",
"996 1616 LINE",
"960 1628 OFFCURVE",
"920 1636 OFFCURVE",
"856 1636 CURVE SMOOTH",
"620 1636 OFFCURVE",
"484 1484 OFFCURVE",
"484 1214 CURVE SMOOTH",
"484 1122 OFFCURVE",
"486 1038 OFFCURVE",
"486 938 CURVE SMOOTH",
"486 826 OFFCURVE",
"334 764 OFFCURVE",
"256 764 CURVE",
"256 666 LINE",
"338 666 OFFCURVE",
"486 628 OFFCURVE",
"486 492 CURVE SMOOTH",
"486 396 OFFCURVE",
"484 308 OFFCURVE",
"484 216 CURVE SMOOTH",
"484 -62 OFFCURVE",
"620 -224 OFFCURVE",
"856 -224 CURVE SMOOTH"
);
},
{
closed = 1;
nodes = (
"-630 0 LINE",
"-510 1420 LINE",
"-686 1420 LINE",
"-806 0 LINE"
);
},
{
closed = 1;
nodes = (
"520 360 LINE",
"520 530 LINE",
"-940 530 LINE",
"-940 360 LINE"
);
},
{
closed = 1;
nodes = (
"-194 0 LINE",
"-74 1420 LINE",
"-250 1420 LINE",
"-370 0 LINE"
);
},
{
closed = 1;
nodes = (
"520 890 LINE",
"520 1060 LINE",
"-940 1060 LINE",
"-940 890 LINE"
);
}
);
width = 1200;
}
);
},
{
color = 3;
glyphname = numbersign_bracketleft.liga;
lastChange = "2019-08-30 04:58:31 +0000";
layers = (
{
components = (
{
name = bracketleft;
transform = "{1, 0, 0, 1, -36, 0}";
}
);
layerId = "BBAB2DB2-7554-4FB8-925D-17003E4845F8";
paths = (
{
closed = 1;
nodes = (
"-174 0 LINE",
"-54 1420 LINE",
"-230 1420 LINE",
"-350 0 LINE"
);
},
{
closed = 1;
nodes = (
"-610 0 LINE",
"-490 1420 LINE",
"-666 1420 LINE",
"-786 0 LINE"
);
},
{
closed = 1;
nodes = (
"440 360 LINE",
"440 530 LINE",
"-920 530 LINE",
"-920 360 LINE"
);
},
{
closed = 1;
nodes = (
"440 890 LINE",
"440 1060 LINE",
"-920 1060 LINE",
"-920 890 LINE"
);
}
);
width = 1200;
}
);
},
{
color = 3;
glyphname = numbersign_question.liga;
lastChange = "2019-08-30 04:58:31 +0000";
layers = (
{
background = {
components = (
{
name = numbersign;
transform = "{1, 0, 0, 1, 2400, 0}";
},
{
name = question;
transform = "{1, 0, 0, 1, 2400, 0}";
}
);
};
components = (
{
name = period;
transform = "{1, 0, 0, 1, -82, 0}";
}
);
layerId = "BBAB2DB2-7554-4FB8-925D-17003E4845F8";
paths = (
{
closed = 1;
nodes = (
"612 456 LINE",
"612 538 LINE SMOOTH",
"612 616 OFFCURVE",
"654 682 OFFCURVE",
"740 738 CURVE SMOOTH",
"888 834 OFFCURVE",
"962 960 OFFCURVE",
"962 1112 CURVE SMOOTH",
"962 1320 OFFCURVE",
"808 1440 OFFCURVE",
"542 1440 CURVE SMOOTH",
"258 1440 OFFCURVE",
"94 1288 OFFCURVE",
"94 1022 CURVE",
"296 1022 LINE",
"296 1168 OFFCURVE",
"386 1250 OFFCURVE",
"540 1250 CURVE SMOOTH",
"668 1250 OFFCURVE",
"742 1196 OFFCURVE",
"742 1102 CURVE SMOOTH",
"742 1006 OFFCURVE",
"688 924 OFFCURVE",
"580 854 CURVE SMOOTH",
"470 784 OFFCURVE",
"416 684 OFFCURVE",
"416 552 CURVE SMOOTH",
"416 456 LINE"
);
},
{
closed = 1;
nodes = (
"80 360 LINE",
"80 530 LINE",
"-920 530 LINE",
"-920 360 LINE"
);
},
{
closed = 1;
nodes = (
"-610 0 LINE",
"-490 1420 LINE",
"-666 1420 LINE",
"-786 0 LINE"
);
},
{
closed = 1;
nodes = (
"-174 0 LINE",
"-54 1420 LINE",
"-230 1420 LINE",
"-350 0 LINE"
);
},
{
closed = 1;
nodes = (
"296 890 LINE",
"296 1060 LINE",
"-920 1060 LINE",
"-920 890 LINE"
);
}
);
width = 1200;
}
);
},
{
color = 4;
glyphname = numbersign_numbersign_numbersign.liga;
lastChange = "2019-08-30 04:58:31 +0000";
layers = (
{
background = {
components = (
{
name = numbersign;
transform = "{1, 0, 0, 1, 3000, 0}";
},
{
name = numbersign;
transform = "{1, 0, 0, 1, 3000, 0}";
},
{
name = numbersign;
transform = "{1, 0, 0, 1, 3000, 0}";
}
);
};
components = (
{
name = numbersign;
transform = "{1, 0, 0, 1, -2240, 0}";
},
{
name = numbersign;
transform = "{1, 0, 0, 1, -1220, 0}";
},
{
name = numbersign;
transform = "{1, 0, 0, 1, -200, 0}";
}
);
layerId = "BBAB2DB2-7554-4FB8-925D-17003E4845F8";
paths = (
{
closed = 1;
nodes = (
"88 890 LINE",
"88 1060 LINE",
"-1242 1060 LINE",
"-1242 890 LINE"
);
},
{
closed = 1;
nodes = (
"88 360 LINE",
"88 530 LINE",
"-1242 530 LINE",
"-1242 360 LINE"
);
}
);
width = 1200;
}
);
},
{
color = 9;
glyphname = numbersign_numbersign_numbersign_numbersign.liga;
lastChange = "2019-08-30 04:58:31 +0000";
layers = (
{
components = (
{
name = numbersign;
transform = "{1, 0, 0, 1, -3440, 0}";
},
{
name = numbersign;
transform = "{1, 0, 0, 1, -2360, 0}";
},
{
name = numbersign;
transform = "{1, 0, 0, 1, -1280, 0}";
},
{
name = numbersign;
transform = "{1, 0, 0, 1, -200, 0}";
}
);
layerId = "BBAB2DB2-7554-4FB8-925D-17003E4845F8";
paths = (
{
closed = 1;
nodes = (
"88 890 LINE",
"88 1060 LINE",
"-2442 1060 LINE",
"-2442 890 LINE"
);
},
{
closed = 1;
nodes = (
"88 360 LINE",
"88 530 LINE",
"-2442 530 LINE",
"-2442 360 LINE"
);
}
);
width = 1200;
}
);
},
{
color = 3;
glyphname = numbersign_equal.liga;
lastChange = "2019-08-30 04:58:31 +0000";
layers = (
{
components = (
{
name = numbersign;
transform = "{1, 0, 0, 1, -1040, 0}";
}
);
layerId = "BBAB2DB2-7554-4FB8-925D-17003E4845F8";
paths = (
{
closed = 1;
nodes = (
"920 884 LINE",
"920 1060 LINE",
"160 1060 LINE",
"160 884 LINE"
);
},
{
closed = 1;
nodes = (
"920 358 LINE",
"920 534 LINE",
"160 534 LINE",
"160 358 LINE"
);
}
);
width = 1200;
}
);
},
{
color = 3;
glyphname = numbersign_underscore.liga;
lastChange = "2019-08-30 04:58:31 +0000";
layers = (
{
layerId = "BBAB2DB2-7554-4FB8-925D-17003E4845F8";
paths = (
{
closed = 1;
nodes = (
"-188 -176 LINE",
"-54 1420 LINE",
"-230 1420 LINE",
"-364 -176 LINE"
);
},
{
closed = 1;
nodes = (
"80 360 LINE",
"80 530 LINE",
"-920 530 LINE",
"-920 360 LINE"
);
},
{
closed = 1;
nodes = (
"-610 0 LINE",
"-490 1420 LINE",
"-666 1420 LINE",
"-786 0 LINE"
);
},
{
closed = 1;
nodes = (
"960 -176 LINE",
"960 0 LINE",
"-298 0 LINE",
"-300 -176 LINE"
);
},
{
closed = 1;
nodes = (
"80 890 LINE",
"80 1060 LINE",
"-920 1060 LINE",
"-920 890 LINE"
);
}
);
width = 1200;
}
);
},
{
color = 4;
glyphname = numbersign_underscore_parenleft.liga;
lastChange = "2019-08-30 04:58:31 +0000";
layers = (
{
background = {
components = (
{
name = numbersign;
transform = "{1, 0, 0, 1, 2950, 0}";
},
{
name = underscore;
transform = "{1, 0, 0, 1, 2950, 0}";
},
{
name = parenleft;
transform = "{1, 0, 0, 1, 2950, 0}";
}
);
paths = (
{
closed = 1;
nodes = (
"5240 -30 OFFCURVE",
"5066 242 OFFCURVE",
"5066 716 CURVE SMOOTH",
"5066 1182 OFFCURVE",
"5240 1450 OFFCURVE",
"5550 1450 CURVE SMOOTH",
"5558 1450 LINE",
"5578 1640 LINE",
"5530 1640 LINE SMOOTH",
"5096 1640 OFFCURVE",
"4846 1304 OFFCURVE",
"4846 716 CURVE SMOOTH",
"4846 272 OFFCURVE",
"5000 20 OFFCURVE",
"5270 20 CURVE",
"5270 -46 LINE",
"5572 -174 LINE",
"5558 -30 LINE",
"5550 -30 LINE SMOOTH"
);
}
);
};
layerId = "BBAB2DB2-7554-4FB8-925D-17003E4845F8";
paths = (
{
closed = 1;
nodes = (
"960 -30 LINE",
"952 -30 LINE SMOOTH",
"630 -30 OFFCURVE",
"448 242 OFFCURVE",
"448 716 CURVE SMOOTH",
"448 1194 OFFCURVE",
"630 1470 OFFCURVE",
"952 1470 CURVE SMOOTH",
"960 1470 LINE",
"980 1640 LINE",
"932 1640 LINE SMOOTH",
"498 1640 OFFCURVE",
"248 1304 OFFCURVE",
"248 716 CURVE SMOOTH",
"248 272 OFFCURVE",
"440 20 OFFCURVE",
"612 20 CURVE",
"612 -46 LINE",
"974 -176 LINE"
);
},
{
closed = 1;
nodes = (
"-1120 360 LINE",
"-1120 530 LINE",
"-2120 530 LINE",
"-2120 360 LINE"
);
},
{
closed = 1;
nodes = (
"-1810 0 LINE",
"-1690 1420 LINE",
"-1866 1420 LINE",
"-1986 0 LINE"
);
},
{
closed = 1;
nodes = (
"-1388 -176 LINE",
"-1254 1420 LINE",
"-1430 1420 LINE",
"-1564 -176 LINE"
);
},
{
closed = 1;
nodes = (
"-1120 890 LINE",
"-1120 1060 LINE",
"-2120 1060 LINE",
"-2120 890 LINE"
);
},
{
closed = 1;
nodes = (
"974 -176 LINE",
"942 -96 LINE",
"740 0 LINE",
"-1500 0 LINE",
"-1500 -176 LINE"
);
}
);
width = 1200;
}
);
},
{
color = 3;
glyphname = slash_equal.liga;
lastChange = "2019-08-30 04:58:31 +0000";
layers = (
{
components = (
{
name = slash;
transform = "{1, 0, 0, 1, -1080, 0}";
}
);
layerId = "BBAB2DB2-7554-4FB8-925D-17003E4845F8";
paths = (
{
closed = 1;
nodes = (
"922 366 LINE",
"922 552 LINE",
"-218 552 LINE",
"-308 366 LINE"
);
},
{
closed = 1;
nodes = (
"922 866 LINE",
"922 1052 LINE",
"12 1052 LINE",
"-78 866 LINE"
);
}
);
width = 1200;
}
);
},
{
color = 4;
glyphname = slash_equal_equal.liga;
lastChange = "2019-08-30 04:58:31 +0000";
layers = (
{
components = (
{
name = slash;
transform = "{1, 0, 0, 1, -2280, 0}";
}
);
layerId = "BBAB2DB2-7554-4FB8-925D-17003E4845F8";
paths = (
{
closed = 1;
nodes = (
"-278 366 LINE",
"-278 552 LINE",
"-1418 552 LINE",
"-1508 366 LINE"
);
},
{
closed = 1;
nodes = (
"-278 866 LINE",
"-278 1052 LINE",
"-1188 1052 LINE",
"-1278 866 LINE"
);
},
{
closed = 1;
nodes = (
"920 366 LINE",
"920 552 LINE",
"-120 552 LINE",
"-120 366 LINE"
);
},
{
closed = 1;
nodes = (
"920 866 LINE",
"920 1052 LINE",
"-120 1052 LINE",
"-120 866 LINE"
);
}
);
width = 1200;
}
);
},
{
color = 3;
glyphname = slash_greater.liga;
lastChange = "2019-08-30 04:58:31 +0000";
layers = (
{
background = {
components = (
{
name = greater;
transform = "{1, 0, 0, 1, -100, 0}";
}
);
paths = (
{
closed = 1;
nodes = (
"3346 524 LINE",
"3346 794 LINE",
"2128 1268 LINE",
"2128 1048 LINE",
"3186 668 LINE",
"3186 650 LINE",
"2446 384 LINE",
"2446 164 LINE"
);
},
{
closed = 1;
nodes = (
"1776 0 LINE",
"2296 1420 LINE",
"2094 1420 LINE",
"1574 0 LINE"
);
}
);
};
components = (
{
name = slash;
transform = "{1, 0, 0, 1, -1080, 0}";
}
);
layerId = "BBAB2DB2-7554-4FB8-925D-17003E4845F8";
paths = (
{
closed = 1;
nodes = (
"1006 608 LINE",
"1006 810 LINE",
"-226 1317 LINE",
"-226 1102 LINE",
"748 718 LINE",
"748 700 LINE",
"48 434 LINE",
"48 214 LINE"
);
}
);
width = 1200;
}
);
},
{
color = 4;
glyphname = underscore_bar_underscore.liga;
lastChange = "2019-08-30 04:58:31 +0000";
layers = (
{
layerId = "BBAB2DB2-7554-4FB8-925D-17003E4845F8";
paths = (
{
closed = 1;
nodes = (
"920 -176 LINE",
"920 0 LINE",
"-2120 0 LINE",
"-2120 -176 LINE"
);
},
{
closed = 1;
nodes = (
"-500 -120 LINE",
"-500 1760 LINE",
"-700 1760 LINE",
"-700 -120 LINE"
);
}
);
width = 1200;
}
);
},
{
color = 3;
glyphname = underscore_underscore.liga;
lastChange = "2019-08-30 04:58:31 +0000";
layers = (
{
layerId = "BBAB2DB2-7554-4FB8-925D-17003E4845F8";
paths = (
{
closed = 1;
nodes = (
"920 -176 LINE",
"920 0 LINE",
"-920 0 LINE",
"-920 -176 LINE"
);
}
);
width = 1200;
}
);
},
{
glyphname = .notdef;
lastChange = "2019-08-15 16:18:04 +0000";
layers = (
{
layerId = "BBAB2DB2-7554-4FB8-925D-17003E4845F8";
paths = (
{
closed = 1;
nodes = (
"1072 0 LINE",
"1072 1420 LINE",
"860 1420 LINE",
"860 0 LINE"
);
},
{
closed = 1;
nodes = (
"1072 0 LINE",
"1072 176 LINE",
"128 176 LINE",
"128 0 LINE"
);
},
{
closed = 1;
nodes = (
"340 0 LINE",
"340 1420 LINE",
"128 1420 LINE",
"128 0 LINE"
);
},
{
closed = 1;
nodes = (
"1072 1244 LINE",
"1072 1420 LINE",
"128 1420 LINE",
"128 1244 LINE"
);
}
);
width = 1200;
}
);
},
{
glyphname = dollar;
lastChange = "2019-08-15 16:18:04 +0000";
layers = (
{
components = (
{
name = S;
}
);
layerId = "BBAB2DB2-7554-4FB8-925D-17003E4845F8";
paths = (
{
closed = 1;
nodes = (
"682 -334 LINE",
"682 1720 LINE",
"544 1720 LINE",
"544 -334 LINE"
);
}
);
width = 1200;
}
);
leftMetricsKey = "=S";
rightMetricsKey = "=S";
unicode = 0024;
},
{
glyphname = plus;
lastChange = "2019-08-25 17:28:07 +0000";
layers = (
{
layerId = "BBAB2DB2-7554-4FB8-925D-17003E4845F8";
paths = (
{
closed = 1;
nodes = (
"696 190 LINE",
"696 1228 LINE",
"504 1228 LINE",
"504 190 LINE"
);
},
{
closed = 1;
nodes = (
"1100 617 LINE",
"1100 803 LINE",
"100 803 LINE",
"100 617 LINE"
);
}
);
width = 1200;
}
);
unicode = 002B;
},
{
glyphname = minus;
lastChange = "2019-08-25 17:27:59 +0000";
layers = (
{
layerId = "BBAB2DB2-7554-4FB8-925D-17003E4845F8";
paths = (
{
closed = 1;
nodes = (
"1100 616 LINE",
"1100 802 LINE",
"100 802 LINE",
"100 616 LINE"
);
}
);
width = 1200;
}
);
unicode = 2212;
},
{
glyphname = multiply;
lastChange = "2019-08-25 18:12:39 +0000";
layers = (
{
background = {
paths = (
{
closed = 1;
nodes = (
"140 776 LINE",
"140 600 LINE",
"1060 600 LINE",
"1060 776 LINE"
);
},
{
closed = 1;
nodes = (
"692 1148 LINE",
"508 1148 LINE",
"508 228 LINE",
"692 228 LINE"
);
}
);
};
guideLines = (
{
position = "{511, 114}";
},
{
position = "{511, 574}";
}
);
layerId = "BBAB2DB2-7554-4FB8-925D-17003E4845F8";
paths = (
{
closed = 1;
nodes = (
"121 1065 LINE",
"249 1188 LINE",
"1079 309 LINE",
"951 188 LINE"
);
},
{
closed = 1;
nodes = (
"121 309 LINE",
"951 1188 LINE",
"1079 1065 LINE",
"249 188 LINE"
);
}
);
width = 1200;
}
);
unicode = 00D7;
},
{
glyphname = divide;
lastChange = "2019-08-25 17:13:36 +0000";
layers = (
{
components = (
{
name = minus;
}
);
layerId = "BBAB2DB2-7554-4FB8-925D-17003E4845F8";
paths = (
{
closed = 1;
nodes = (
"678 944 OFFCURVE",
"741 1007 OFFCURVE",
"741 1085 CURVE SMOOTH",
"741 1162 OFFCURVE",
"678 1225 OFFCURVE",
"600 1225 CURVE SMOOTH",
"522 1225 OFFCURVE",
"459 1162 OFFCURVE",
"459 1085 CURVE SMOOTH",
"459 1007 OFFCURVE",
"522 944 OFFCURVE",
"600 944 CURVE SMOOTH"
);
},
{
closed = 1;
nodes = (
"678 151 OFFCURVE",
"741 214 OFFCURVE",
"741 291 CURVE SMOOTH",
"741 369 OFFCURVE",
"678 432 OFFCURVE",
"600 432 CURVE SMOOTH",
"522 432 OFFCURVE",
"459 369 OFFCURVE",
"459 291 CURVE SMOOTH",
"459 214 OFFCURVE",
"522 151 OFFCURVE",
"600 151 CURVE SMOOTH"
);
}
);
width = 1200;
}
);
unicode = 00F7;
},
{
glyphname = equal;
lastChange = "2019-08-25 17:27:55 +0000";
layers = (
{
layerId = "BBAB2DB2-7554-4FB8-925D-17003E4845F8";
paths = (
{
closed = 1;
nodes = (
"1100 866 LINE",
"1100 1052 LINE",
"100 1052 LINE",
"100 866 LINE"
);
},
{
closed = 1;
nodes = (
"1100 366 LINE",
"1100 552 LINE",
"100 552 LINE",
"100 366 LINE"
);
}
);
width = 1200;
}
);
unicode = 003D;
},
{
glyphname = greater;
lastChange = "2019-08-25 17:34:18 +0000";
layers = (
{
background = {
components = (
{
name = hyphen;
}
);
};
layerId = "BBAB2DB2-7554-4FB8-925D-17003E4845F8";
paths = (
{
closed = 1;
nodes = (
"1104 608 LINE",
"1104 810 LINE",
"146 1204 LINE",
"146 984 LINE",
"846 718 LINE",
"846 700 LINE",
"146 434 LINE",
"146 214 LINE"
);
}
);
width = 1200;
}
);
unicode = 003E;
},
{
glyphname = less;
lastChange = "2019-08-25 17:14:12 +0000";
layers = (
{
layerId = "BBAB2DB2-7554-4FB8-925D-17003E4845F8";
paths = (
{
closed = 1;
nodes = (
"1054 434 LINE",
"314 700 LINE",
"314 718 LINE",
"1054 984 LINE",
"1054 1204 LINE",
"96 810 LINE",
"96 608 LINE",
"1054 214 LINE"
);
}
);
width = 1200;
}
);
unicode = 003C;
},
{
glyphname = asciitilde;
lastChange = "2019-08-15 16:18:04 +0000";
layers = (
{
layerId = "BBAB2DB2-7554-4FB8-925D-17003E4845F8";
paths = (
{
closed = 1;
nodes = (
"304 446 LINE",
"304 476 LINE SMOOTH",
"304 586 OFFCURVE",
"344 640 OFFCURVE",
"424 640 CURVE SMOOTH",
"576 640 OFFCURVE",
"728 580 OFFCURVE",
"880 580 CURVE SMOOTH",
"1028 580 OFFCURVE",
"1100 692 OFFCURVE",
"1100 920 CURVE SMOOTH",
"1100 970 LINE",
"898 970 LINE",
"898 940 LINE SMOOTH",
"898 830 OFFCURVE",
"864 776 OFFCURVE",
"798 776 CURVE SMOOTH",
"652 776 OFFCURVE",
"506 836 OFFCURVE",
"360 836 CURVE SMOOTH",
"186 836 OFFCURVE",
"100 724 OFFCURVE",
"100 496 CURVE SMOOTH",
"100 446 LINE"
);
}
);
width = 1200;
}
);
unicode = 007E;
},
{
glyphname = asciicircum;
lastChange = "2019-08-15 16:18:04 +0000";
layers = (
{
layerId = "BBAB2DB2-7554-4FB8-925D-17003E4845F8";
paths = (
{
closed = 1;
nodes = (
"424 820 LINE",
"590 1260 LINE",
"608 1260 LINE",
"774 820 LINE",
"994 820 LINE",
"734 1420 LINE",
"464 1420 LINE",
"204 820 LINE"
);
}
);
width = 1200;
}
);
unicode = 005E;
},
{
glyphname = percent;
lastChange = "2019-08-15 16:18:04 +0000";
layers = (
{
background = {
paths = (
{
closed = 1;
nodes = (
"1046 -20 OFFCURVE",
"1170 108 OFFCURVE",
"1170 302 CURVE SMOOTH",
"1170 498 OFFCURVE",
"1046 626 OFFCURVE",
"858 626 CURVE SMOOTH",
"668 626 OFFCURVE",
"544 498 OFFCURVE",
"544 302 CURVE SMOOTH",
"544 108 OFFCURVE",
"668 -20 OFFCURVE",
"858 -20 CURVE SMOOTH"
);
},
{
closed = 1;
nodes = (
"750 98 OFFCURVE",
"680 180 OFFCURVE",
"680 302 CURVE SMOOTH",
"680 426 OFFCURVE",
"750 508 OFFCURVE",
"858 508 CURVE SMOOTH",
"964 508 OFFCURVE",
"1034 426 OFFCURVE",
"1034 302 CURVE SMOOTH",
"1034 180 OFFCURVE",
"964 98 OFFCURVE",
"858 98 CURVE SMOOTH"
);
},
{
closed = 1;
nodes = (
"533 794 OFFCURVE",
"657 921 OFFCURVE",
"657 1116 CURVE SMOOTH",
"657 1311 OFFCURVE",
"533 1439 OFFCURVE",
"344 1439 CURVE SMOOTH",
"154 1439 OFFCURVE",
"30 1311 OFFCURVE",
"30 1116 CURVE SMOOTH",
"30 921 OFFCURVE",
"154 794 OFFCURVE",
"344 794 CURVE SMOOTH"
);
},
{
closed = 1;
nodes = (
"237 912 OFFCURVE",
"166 994 OFFCURVE",
"166 1116 CURVE SMOOTH",
"166 1239 OFFCURVE",
"237 1321 OFFCURVE",
"344 1321 CURVE SMOOTH",
"451 1321 OFFCURVE",
"520 1239 OFFCURVE",
"520 1116 CURVE SMOOTH",
"520 994 OFFCURVE",
"451 912 OFFCURVE",
"344 912 CURVE SMOOTH"
);
}
);
};
layerId = "BBAB2DB2-7554-4FB8-925D-17003E4845F8";
paths = (
{
closed = 1;
nodes = (
"1116 986 LINE",
"1024 1106 LINE",
"94 432 LINE",
"186 306 LINE"
);
},
{
closed = 1;
nodes = (
"1042 -20 OFFCURVE",
"1166 108 OFFCURVE",
"1166 302 CURVE SMOOTH",
"1166 498 OFFCURVE",
"1042 626 OFFCURVE",
"854 626 CURVE SMOOTH",
"664 626 OFFCURVE",
"540 498 OFFCURVE",
"540 302 CURVE SMOOTH",
"540 108 OFFCURVE",
"664 -20 OFFCURVE",
"854 -20 CURVE SMOOTH"
);
},
{
closed = 1;
nodes = (
"776 148 OFFCURVE",
"726 210 OFFCURVE",
"726 302 CURVE SMOOTH",
"726 396 OFFCURVE",
"776 458 OFFCURVE",
"854 458 CURVE SMOOTH",
"930 458 OFFCURVE",
"980 396 OFFCURVE",
"980 302 CURVE SMOOTH",
"980 210 OFFCURVE",
"930 148 OFFCURVE",
"854 148 CURVE SMOOTH"
);
},
{
closed = 1;
nodes = (
"556 794 OFFCURVE",
"680 922 OFFCURVE",
"680 1116 CURVE SMOOTH",
"680 1316 OFFCURVE",
"556 1440 OFFCURVE",
"368 1440 CURVE SMOOTH",
"178 1440 OFFCURVE",
"54 1312 OFFCURVE",
"54 1116 CURVE SMOOTH",
"54 922 OFFCURVE",
"178 794 OFFCURVE",
"368 794 CURVE SMOOTH"
);
},
{
closed = 1;
nodes = (
"290 962 OFFCURVE",
"240 1024 OFFCURVE",
"240 1116 CURVE SMOOTH",
"240 1212 OFFCURVE",
"290 1274 OFFCURVE",
"368 1274 CURVE SMOOTH",
"444 1274 OFFCURVE",
"494 1212 OFFCURVE",
"494 1116 CURVE SMOOTH",
"494 1024 OFFCURVE",
"444 962 OFFCURVE",
"368 962 CURVE SMOOTH"
);
}
);
width = 1200;
}
);
unicode = 0025;
},
{
glyphname = at;
lastChange = "2019-08-15 16:18:04 +0000";
layers = (
{
background = {
components = (
{
name = d;
}
);
};
layerId = "BBAB2DB2-7554-4FB8-925D-17003E4845F8";
paths = (
{
closed = 1;
nodes = (
"794 -20 OFFCURVE",
"884 2 OFFCURVE",
"942 40 CURVE",
"922 220 LINE",
"868 182 OFFCURVE",
"786 160 OFFCURVE",
"674 160 CURVE SMOOTH",
"404 160 OFFCURVE",
"276 348 OFFCURVE",
"276 720 CURVE SMOOTH",
"276 1070 OFFCURVE",
"416 1270 OFFCURVE",
"660 1270 CURVE SMOOTH",
"818 1270 OFFCURVE",
"900 1160 OFFCURVE",
"900 938 CURVE SMOOTH",
"900 846 OFFCURVE",
"900 766 OFFCURVE",
"900 654 CURVE",
"1072 654 LINE",
"1072 768 OFFCURVE",
"1072 850 OFFCURVE",
"1072 944 CURVE SMOOTH",
"1072 1276 OFFCURVE",
"934 1440 OFFCURVE",
"660 1440 CURVE SMOOTH",
"310 1440 OFFCURVE",
"108 1178 OFFCURVE",
"108 720 CURVE SMOOTH",
"108 230 OFFCURVE",
"300 -20 OFFCURVE",
"674 -20 CURVE SMOOTH"
);
},
{
closed = 1;
nodes = (
"786 278 OFFCURVE",
"864 362 OFFCURVE",
"888 510 CURVE",
"962 510 LINE",
"962 908 LINE",
"888 908 LINE",
"858 1056 OFFCURVE",
"780 1140 OFFCURVE",
"678 1140 CURVE SMOOTH",
"498 1140 OFFCURVE",
"396 996 OFFCURVE",
"396 700 CURVE SMOOTH",
"396 432 OFFCURVE",
"498 278 OFFCURVE",
"676 278 CURVE SMOOTH"
);
},
{
closed = 1;
nodes = (
"634 468 OFFCURVE",
"576 552 OFFCURVE",
"576 700 CURVE SMOOTH",
"576 874 OFFCURVE",
"638 950 OFFCURVE",
"748 950 CURVE SMOOTH",
"846 950 OFFCURVE",
"900 874 OFFCURVE",
"900 700 CURVE SMOOTH",
"900 552 OFFCURVE",
"840 468 OFFCURVE",
"734 468 CURVE SMOOTH"
);
},
{
closed = 1;
nodes = (
"1072 298 LINE",
"1072 820 LINE",
"900 820 LINE",
"900 298 LINE"
);
}
);
width = 1200;
},
{
associatedMasterId = "BBAB2DB2-7554-4FB8-925D-17003E4845F8";
background = {
paths = (
{
closed = 1;
nodes = (
"674 -20 OFFCURVE",
"730 70 OFFCURVE",
"730 254 CURVE",
"772 250 OFFCURVE",
"808 244 OFFCURVE",
"842 238 CURVE",
"864 312 OFFCURVE",
"876 400 OFFCURVE",
"876 500 CURVE SMOOTH",
"876 814 OFFCURVE",
"772 1020 OFFCURVE",
"612 1020 CURVE SMOOTH",
"438 1020 OFFCURVE",
"326 814 OFFCURVE",
"326 500 CURVE SMOOTH",
"326 186 OFFCURVE",
"438 -20 OFFCURVE",
"612 -20 CURVE SMOOTH"
);
},
{
closed = 1;
nodes = (
"548 130 OFFCURVE",
"506 278 OFFCURVE",
"506 500 CURVE SMOOTH",
"506 722 OFFCURVE",
"548 870 OFFCURVE",
"612 870 CURVE SMOOTH",
"664 870 OFFCURVE",
"696 722 OFFCURVE",
"696 500 CURVE SMOOTH",
"696 278 OFFCURVE",
"664 130 OFFCURVE",
"612 130 CURVE SMOOTH"
);
}
);
};
layerId = "1B961748-34CF-416A-82C0-47FACA8A0C81";
name = "Apr 15 19, 16:59";
paths = (
{
closed = 1;
nodes = (
"552 398 OFFCURVE",
"510 514 OFFCURVE",
"510 688 CURVE SMOOTH",
"510 886 OFFCURVE",
"552 1018 OFFCURVE",
"614 1018 CURVE SMOOTH",
"670 1018 OFFCURVE",
"702 886 OFFCURVE",
"702 688 CURVE SMOOTH",
"702 514 OFFCURVE",
"670 398 OFFCURVE",
"614 398 CURVE SMOOTH"
);
},
{
closed = 1;
nodes = (
"856 978 OFFCURVE",
"764 1168 OFFCURVE",
"616 1168 CURVE SMOOTH",
"454 1168 OFFCURVE",
"350 978 OFFCURVE",
"350 688 CURVE SMOOTH",
"350 422 OFFCURVE",
"446 248 OFFCURVE",
"596 248 CURVE SMOOTH",
"692 248 OFFCURVE",
"738 324 OFFCURVE",
"738 484 CURVE",
"710 422 LINE",
"804 422 LINE",
"748 484 LINE",
"748 324 OFFCURVE",
"788 248 OFFCURVE",
"888 248 CURVE SMOOTH",
"1066 248 OFFCURVE",
"1106 458 OFFCURVE",
"1106 680 CURVE SMOOTH",
"1106 1162 OFFCURVE",
"922 1440 OFFCURVE",
"602 1440 CURVE SMOOTH",
"280 1440 OFFCURVE",
"96 1162 OFFCURVE",
"96 680 CURVE SMOOTH",
"96 236 OFFCURVE",
"288 -20 OFFCURVE",
"622 -20 CURVE SMOOTH",
"728 -20 OFFCURVE",
"820 -6 OFFCURVE",
"894 24 CURVE",
"868 194 LINE",
"800 166 OFFCURVE",
"716 150 OFFCURVE",
"622 150 CURVE SMOOTH",
"390 150 OFFCURVE",
"256 342 OFFCURVE",
"256 680 CURVE SMOOTH",
"256 1054 OFFCURVE",
"382 1270 OFFCURVE",
"602 1270 CURVE SMOOTH",
"822 1270 OFFCURVE",
"946 1054 OFFCURVE",
"946 680 CURVE SMOOTH",
"946 578 OFFCURVE",
"938 424 OFFCURVE",
"890 424 CURVE SMOOTH",
"866 424 OFFCURVE",
"844 446 OFFCURVE",
"844 484 CURVE SMOOTH",
"844 540 OFFCURVE",
"856 602 OFFCURVE",
"856 688 CURVE SMOOTH"
);
}
);
width = 1200;
},
{
associatedMasterId = "BBAB2DB2-7554-4FB8-925D-17003E4845F8";
background = {
paths = (
{
closed = 1;
nodes = (
"46 -180 LINE",
"152 -314 OFFCURVE",
"308 -380 OFFCURVE",
"516 -380 CURVE SMOOTH",
"660 -380 OFFCURVE",
"826 -346 OFFCURVE",
"946 -240 CURVE",
"922 -70 LINE",
"810 -176 OFFCURVE",
"652 -210 OFFCURVE",
"516 -210 CURVE SMOOTH",
"382 -210 OFFCURVE",
"268 -154 OFFCURVE",
"190 -40 CURVE"
);
}
);
};
layerId = "E3DA3850-FBB7-431F-A9C0-D510F1598804";
name = "Apr 16 19, 10:40";
paths = (
{
closed = 1;
nodes = (
"664 380 LINE",
"664 112 OFFCURVE",
"744 -20 OFFCURVE",
"908 -20 CURVE SMOOTH",
"1054 -20 OFFCURVE",
"1126 154 OFFCURVE",
"1126 504 CURVE SMOOTH",
"1126 1130 OFFCURVE",
"924 1440 OFFCURVE",
"514 1440 CURVE SMOOTH",
"358 1440 OFFCURVE",
"236 1414 OFFCURVE",
"144 1360 CURVE",
"188 1190 LINE",
"268 1244 OFFCURVE",
"376 1270 OFFCURVE",
"514 1270 CURVE SMOOTH",
"812 1270 OFFCURVE",
"960 1014 OFFCURVE",
"960 498 CURVE SMOOTH",
"960 246 OFFCURVE",
"932 170 OFFCURVE",
"908 170 CURVE SMOOTH",
"866 170 OFFCURVE",
"852 246 OFFCURVE",
"852 500 CURVE"
);
},
{
closed = 1;
nodes = (
"560 -20 OFFCURVE",
"678 102 OFFCURVE",
"678 296 CURVE",
"626 198 LINE",
"738 198 LINE",
"852 500 LINE",
"852 814 OFFCURVE",
"718 1020 OFFCURVE",
"516 1020 CURVE SMOOTH",
"298 1020 OFFCURVE",
"156 814 OFFCURVE",
"156 500 CURVE SMOOTH",
"156 186 OFFCURVE",
"266 -20 OFFCURVE",
"436 -20 CURVE SMOOTH"
);
},
{
closed = 1;
nodes = (
"420 170 OFFCURVE",
"356 302 OFFCURVE",
"356 500 CURVE SMOOTH",
"356 698 OFFCURVE",
"420 830 OFFCURVE",
"516 830 CURVE SMOOTH",
"598 830 OFFCURVE",
"652 698 OFFCURVE",
"652 500 CURVE SMOOTH",
"652 302 OFFCURVE",
"598 170 OFFCURVE",
"516 170 CURVE SMOOTH"
);
},
{
closed = 1;
nodes = (
"556 -482 LINE",
"694 -482 OFFCURVE",
"852 -458 OFFCURVE",
"966 -382 CURVE",
"942 -212 LINE",
"836 -288 OFFCURVE",
"686 -312 OFFCURVE",
"556 -312 CURVE"
);
},
{
closed = 1;
nodes = (
"426 -312 OFFCURVE",
"276 -288 OFFCURVE",
"170 -212 CURVE",
"146 -382 LINE",
"260 -458 OFFCURVE",
"418 -482 OFFCURVE",
"556 -482 CURVE",
"556 -312 LINE"
);
}
);
width = 1200;
}
);
unicode = 0040;
},
{
glyphname = ampersand;
lastChange = "2019-08-15 16:18:04 +0000";
layers = (
{
background = {
components = (
{
name = C;
transform = "{1, 0, 0, 1, -45, 0}";
}
);
};
layerId = "BBAB2DB2-7554-4FB8-925D-17003E4845F8";
paths = (
{
closed = 1;
nodes = (
"1224 0 LINE",
"586 750 LINE SMOOTH",
"498 854 OFFCURVE",
"442 942 OFFCURVE",
"442 1040 CURVE SMOOTH",
"442 1178 OFFCURVE",
"512 1256 OFFCURVE",
"634 1256 CURVE",
"630 1440 LINE",
"370 1440 OFFCURVE",
"222 1296 OFFCURVE",
"222 1042 CURVE SMOOTH",
"222 900 OFFCURVE",
"296 760 OFFCURVE",
"466 566 CURVE SMOOTH",
"962 0 LINE"
);
},
{
closed = 1;
nodes = (
"862 -20 OFFCURVE",
"1092 266 OFFCURVE",
"1092 766 CURVE",
"900 766 LINE",
"900 382 OFFCURVE",
"750 164 OFFCURVE",
"486 164 CURVE SMOOTH",
"348 164 OFFCURVE",
"258 240 OFFCURVE",
"258 354 CURVE SMOOTH",
"258 484 OFFCURVE",
"362 580 OFFCURVE",
"546 616 CURVE",
"436 738 LINE",
"194 702 OFFCURVE",
"56 558 OFFCURVE",
"56 344 CURVE SMOOTH",
"56 124 OFFCURVE",
"218 -20 OFFCURVE",
"462 -20 CURVE SMOOTH"
);
},
{
closed = 1;
nodes = (
"990 1122 LINE",
"990 1324 OFFCURVE",
"858 1440 OFFCURVE",
"630 1440 CURVE",
"634 1256 LINE",
"724 1256 OFFCURVE",
"776 1208 OFFCURVE",
"776 1122 CURVE"
);
}
);
width = 1200;
},
{
associatedMasterId = "BBAB2DB2-7554-4FB8-925D-17003E4845F8";
background = {
components = (
{
name = six;
}
);
};
layerId = "0454BEBA-4ACC-49DC-A865-072FD54A288E";
name = "Apr 15 19, 16:57";
paths = (
{
closed = 1;
nodes = (
"998 1250 LINE",
"978 1440 LINE",
"854 1440 LINE SMOOTH",
"444 1440 OFFCURVE",
"242 1296 OFFCURVE",
"242 1008 CURVE SMOOTH",
"242 888 OFFCURVE",
"314 758 OFFCURVE",
"448 606 CURVE SMOOTH",
"982 0 LINE",
"1244 0 LINE",
"554 790 LINE SMOOTH",
"498 854 OFFCURVE",
"462 926 OFFCURVE",
"462 1018 CURVE SMOOTH",
"462 1174 OFFCURVE",
"600 1250 OFFCURVE",
"878 1250 CURVE SMOOTH"
);
},
{
closed = 1;
nodes = (
"556 718 LINE",
"250 718 OFFCURVE",
"76 580 OFFCURVE",
"76 342 CURVE SMOOTH",
"76 112 OFFCURVE",
"224 -20 OFFCURVE",
"482 -20 CURVE SMOOTH",
"882 -20 OFFCURVE",
"1112 252 OFFCURVE",
"1112 726 CURVE",
"914 726 LINE",
"914 372 OFFCURVE",
"766 170 OFFCURVE",
"506 170 CURVE SMOOTH",
"372 170 OFFCURVE",
"296 236 OFFCURVE",
"296 352 CURVE SMOOTH",
"296 504 OFFCURVE",
"446 590 OFFCURVE",
"706 590 CURVE"
);
}
);
width = 1200;
},
{
associatedMasterId = "BBAB2DB2-7554-4FB8-925D-17003E4845F8";
background = {
components = (
{
name = six;
}
);
};
layerId = "761C2563-5F42-4049-9EE7-C3CAF25ABB3D";
name = "Apr 16 19, 00:21";
paths = (
{
closed = 1;
nodes = (
"520 1440 LINE",
"296 1440 OFFCURVE",
"168 1298 OFFCURVE",
"168 1050 CURVE SMOOTH",
"168 926 OFFCURVE",
"254 766 OFFCURVE",
"406 606 CURVE SMOOTH",
"922 0 LINE",
"1184 0 LINE",
"512 790 LINE SMOOTH",
"434 874 OFFCURVE",
"388 972 OFFCURVE",
"388 1060 CURVE SMOOTH",
"388 1180 OFFCURVE",
"460 1250 OFFCURVE",
"584 1250 CURVE"
);
},
{
closed = 1;
nodes = (
"1012 982 LINE",
"1012 1420 LINE",
"812 1420 LINE",
"810 982 LINE"
);
},
{
closed = 1;
nodes = (
"584 1250 LINE",
"726 1250 OFFCURVE",
"810 1152 OFFCURVE",
"810 982 CURVE",
"836 1242 LINE",
"788 1242 LINE",
"746 1368 OFFCURVE",
"650 1440 OFFCURVE",
"520 1440 CURVE"
);
},
{
closed = 1;
nodes = (
"456 658 LINE",
"228 658 OFFCURVE",
"96 536 OFFCURVE",
"96 322 CURVE SMOOTH",
"96 104 OFFCURVE",
"236 -20 OFFCURVE",
"482 -20 CURVE SMOOTH",
"844 -20 OFFCURVE",
"1052 252 OFFCURVE",
"1052 726 CURVE",
"854 726 LINE",
"854 372 OFFCURVE",
"728 170 OFFCURVE",
"506 170 CURVE SMOOTH",
"386 170 OFFCURVE",
"316 230 OFFCURVE",
"316 332 CURVE SMOOTH",
"316 458 OFFCURVE",
"422 530 OFFCURVE",
"606 530 CURVE"
);
}
);
width = 1200;
}
);
unicode = 0026;
},
{
glyphname = bar;
lastChange = "2019-08-15 16:18:04 +0000";
layers = (
{
layerId = "BBAB2DB2-7554-4FB8-925D-17003E4845F8";
paths = (
{
closed = 1;
nodes = (
"700 -280 LINE",
"700 1760 LINE",
"500 1760 LINE",
"500 -280 LINE"
);
}
);
width = 1200;
}
);
unicode = 007C;
},
{
glyphname = at.lc;
lastChange = "2019-08-15 16:18:04 +0000";
layers = (
{
background = {
components = (
{
name = d;
}
);
};
layerId = "BBAB2DB2-7554-4FB8-925D-17003E4845F8";
paths = (
{
closed = 1;
nodes = (
"826 -318 OFFCURVE",
"908 -302 OFFCURVE",
"962 -270 CURVE",
"942 -90 LINE",
"892 -122 OFFCURVE",
"816 -138 OFFCURVE",
"714 -138 CURVE SMOOTH",
"416 -138 OFFCURVE",
"276 84 OFFCURVE",
"276 520 CURVE SMOOTH",
"276 958 OFFCURVE",
"416 1210 OFFCURVE",
"660 1210 CURVE SMOOTH",
"818 1210 OFFCURVE",
"900 1100 OFFCURVE",
"900 878 CURVE SMOOTH",
"900 740 OFFCURVE",
"900 620 OFFCURVE",
"900 454 CURVE",
"1072 454 LINE",
"1072 622 OFFCURVE",
"1072 746 OFFCURVE",
"1072 884 CURVE SMOOTH",
"1072 1216 OFFCURVE",
"934 1380 OFFCURVE",
"660 1380 CURVE SMOOTH",
"310 1380 OFFCURVE",
"108 1066 OFFCURVE",
"108 520 CURVE SMOOTH",
"108 -36 OFFCURVE",
"314 -318 OFFCURVE",
"714 -318 CURVE SMOOTH"
);
},
{
closed = 1;
nodes = (
"786 -20 OFFCURVE",
"864 64 OFFCURVE",
"888 212 CURVE",
"962 212 LINE",
"962 848 LINE",
"888 848 LINE",
"860 996 OFFCURVE",
"790 1080 OFFCURVE",
"698 1080 CURVE SMOOTH",
"506 1080 OFFCURVE",
"396 890 OFFCURVE",
"396 500 CURVE SMOOTH",
"396 170 OFFCURVE",
"498 -20 OFFCURVE",
"676 -20 CURVE SMOOTH"
);
},
{
closed = 1;
nodes = (
"634 170 OFFCURVE",
"576 290 OFFCURVE",
"576 500 CURVE SMOOTH",
"576 770 OFFCURVE",
"638 890 OFFCURVE",
"748 890 CURVE SMOOTH",
"846 890 OFFCURVE",
"900 770 OFFCURVE",
"900 500 CURVE SMOOTH",
"900 290 OFFCURVE",
"840 170 OFFCURVE",
"734 170 CURVE SMOOTH"
);
},
{
closed = 1;
nodes = (
"1072 0 LINE",
"1072 760 LINE",
"900 760 LINE",
"900 0 LINE"
);
}
);
width = 1200;
},
{
associatedMasterId = "BBAB2DB2-7554-4FB8-925D-17003E4845F8";
background = {
paths = (
{
closed = 1;
nodes = (
"674 -20 OFFCURVE",
"730 70 OFFCURVE",
"730 254 CURVE",
"772 250 OFFCURVE",
"808 244 OFFCURVE",
"842 238 CURVE",
"864 312 OFFCURVE",
"876 400 OFFCURVE",
"876 500 CURVE SMOOTH",
"876 814 OFFCURVE",
"772 1020 OFFCURVE",
"612 1020 CURVE SMOOTH",
"438 1020 OFFCURVE",
"326 814 OFFCURVE",
"326 500 CURVE SMOOTH",
"326 186 OFFCURVE",
"438 -20 OFFCURVE",
"612 -20 CURVE SMOOTH"
);
},
{
closed = 1;
nodes = (
"548 130 OFFCURVE",
"506 278 OFFCURVE",
"506 500 CURVE SMOOTH",
"506 722 OFFCURVE",
"548 870 OFFCURVE",
"612 870 CURVE SMOOTH",
"664 870 OFFCURVE",
"696 722 OFFCURVE",
"696 500 CURVE SMOOTH",
"696 278 OFFCURVE",
"664 130 OFFCURVE",
"612 130 CURVE SMOOTH"
);
}
);
};
layerId = "1B961748-34CF-416A-82C0-47FACA8A0C81";
name = "Apr 15 19, 16:59";
paths = (
{
closed = 1;
nodes = (
"552 398 OFFCURVE",
"510 514 OFFCURVE",
"510 688 CURVE SMOOTH",
"510 886 OFFCURVE",
"552 1018 OFFCURVE",
"614 1018 CURVE SMOOTH",
"670 1018 OFFCURVE",
"702 886 OFFCURVE",
"702 688 CURVE SMOOTH",
"702 514 OFFCURVE",
"670 398 OFFCURVE",
"614 398 CURVE SMOOTH"
);
},
{
closed = 1;
nodes = (
"856 978 OFFCURVE",
"764 1168 OFFCURVE",
"616 1168 CURVE SMOOTH",
"454 1168 OFFCURVE",
"350 978 OFFCURVE",
"350 688 CURVE SMOOTH",
"350 422 OFFCURVE",
"446 248 OFFCURVE",
"596 248 CURVE SMOOTH",
"692 248 OFFCURVE",
"738 324 OFFCURVE",
"738 484 CURVE",
"710 422 LINE",
"804 422 LINE",
"748 484 LINE",
"748 324 OFFCURVE",
"788 248 OFFCURVE",
"888 248 CURVE SMOOTH",
"1066 248 OFFCURVE",
"1106 458 OFFCURVE",
"1106 680 CURVE SMOOTH",
"1106 1162 OFFCURVE",
"922 1440 OFFCURVE",
"602 1440 CURVE SMOOTH",
"280 1440 OFFCURVE",
"96 1162 OFFCURVE",
"96 680 CURVE SMOOTH",
"96 236 OFFCURVE",
"288 -20 OFFCURVE",
"622 -20 CURVE SMOOTH",
"728 -20 OFFCURVE",
"820 -6 OFFCURVE",
"894 24 CURVE",
"868 194 LINE",
"800 166 OFFCURVE",
"716 150 OFFCURVE",
"622 150 CURVE SMOOTH",
"390 150 OFFCURVE",
"256 342 OFFCURVE",
"256 680 CURVE SMOOTH",
"256 1054 OFFCURVE",
"382 1270 OFFCURVE",
"602 1270 CURVE SMOOTH",
"822 1270 OFFCURVE",
"946 1054 OFFCURVE",
"946 680 CURVE SMOOTH",
"946 578 OFFCURVE",
"938 424 OFFCURVE",
"890 424 CURVE SMOOTH",
"866 424 OFFCURVE",
"844 446 OFFCURVE",
"844 484 CURVE SMOOTH",
"844 540 OFFCURVE",
"856 602 OFFCURVE",
"856 688 CURVE SMOOTH"
);
}
);
width = 1200;
},
{
associatedMasterId = "BBAB2DB2-7554-4FB8-925D-17003E4845F8";
background = {
paths = (
{
closed = 1;
nodes = (
"46 -180 LINE",
"152 -314 OFFCURVE",
"308 -380 OFFCURVE",
"516 -380 CURVE SMOOTH",
"660 -380 OFFCURVE",
"826 -346 OFFCURVE",
"946 -240 CURVE",
"922 -70 LINE",
"810 -176 OFFCURVE",
"652 -210 OFFCURVE",
"516 -210 CURVE SMOOTH",
"382 -210 OFFCURVE",
"268 -154 OFFCURVE",
"190 -40 CURVE"
);
}
);
};
layerId = "E3DA3850-FBB7-431F-A9C0-D510F1598804";
name = "Apr 16 19, 10:40";
paths = (
{
closed = 1;
nodes = (
"664 380 LINE",
"664 112 OFFCURVE",
"744 -20 OFFCURVE",
"908 -20 CURVE SMOOTH",
"1054 -20 OFFCURVE",
"1126 154 OFFCURVE",
"1126 504 CURVE SMOOTH",
"1126 1130 OFFCURVE",
"924 1440 OFFCURVE",
"514 1440 CURVE SMOOTH",
"358 1440 OFFCURVE",
"236 1414 OFFCURVE",
"144 1360 CURVE",
"188 1190 LINE",
"268 1244 OFFCURVE",
"376 1270 OFFCURVE",
"514 1270 CURVE SMOOTH",
"812 1270 OFFCURVE",
"960 1014 OFFCURVE",
"960 498 CURVE SMOOTH",
"960 246 OFFCURVE",
"932 170 OFFCURVE",
"908 170 CURVE SMOOTH",
"866 170 OFFCURVE",
"852 246 OFFCURVE",
"852 500 CURVE"
);
},
{
closed = 1;
nodes = (
"560 -20 OFFCURVE",
"678 102 OFFCURVE",
"678 296 CURVE",
"626 198 LINE",
"738 198 LINE",
"852 500 LINE",
"852 814 OFFCURVE",
"718 1020 OFFCURVE",
"516 1020 CURVE SMOOTH",
"298 1020 OFFCURVE",
"156 814 OFFCURVE",
"156 500 CURVE SMOOTH",
"156 186 OFFCURVE",
"266 -20 OFFCURVE",
"436 -20 CURVE SMOOTH"
);
},
{
closed = 1;
nodes = (
"420 170 OFFCURVE",
"356 302 OFFCURVE",
"356 500 CURVE SMOOTH",
"356 698 OFFCURVE",
"420 830 OFFCURVE",
"516 830 CURVE SMOOTH",
"598 830 OFFCURVE",
"652 698 OFFCURVE",
"652 500 CURVE SMOOTH",
"652 302 OFFCURVE",
"598 170 OFFCURVE",
"516 170 CURVE SMOOTH"
);
},
{
closed = 1;
nodes = (
"556 -482 LINE",
"694 -482 OFFCURVE",
"852 -458 OFFCURVE",
"966 -382 CURVE",
"942 -212 LINE",
"836 -288 OFFCURVE",
"686 -312 OFFCURVE",
"556 -312 CURVE"
);
},
{
closed = 1;
nodes = (
"426 -312 OFFCURVE",
"276 -288 OFFCURVE",
"170 -212 CURVE",
"146 -382 LINE",
"260 -458 OFFCURVE",
"418 -482 OFFCURVE",
"556 -482 CURVE",
"556 -312 LINE"
);
}
);
width = 1200;
}
);
},
{
color = 3;
glyphname = ampersand_ampersand.liga;
lastChange = "2019-08-30 04:58:31 +0000";
layers = (
{
layerId = "BBAB2DB2-7554-4FB8-925D-17003E4845F8";
paths = (
{
closed = 1;
nodes = (
"994 0 LINE",
"442 870 LINE SMOOTH",
"396 942 OFFCURVE",
"354 1024 OFFCURVE",
"354 1100 CURVE SMOOTH",
"354 1200 OFFCURVE",
"406 1256 OFFCURVE",
"494 1256 CURVE",
"490 1440 LINE",
"264 1440 OFFCURVE",
"134 1316 OFFCURVE",
"134 1102 CURVE SMOOTH",
"134 992 OFFCURVE",
"208 868 OFFCURVE",
"298 726 CURVE SMOOTH",
"762 0 LINE"
);
},
{
closed = 1;
nodes = (
"-294 -20 OFFCURVE",
"-118 240 OFFCURVE",
"-118 766 CURVE",
"-300 766 LINE",
"-300 356 OFFCURVE",
"-408 154 OFFCURVE",
"-624 154 CURVE SMOOTH",
"-750 154 OFFCURVE",
"-812 220 OFFCURVE",
"-812 354 CURVE SMOOTH",
"-812 492 OFFCURVE",
"-744 578 OFFCURVE",
"-604 616 CURVE",
"-714 738 LINE",
"-914 700 OFFCURVE",
"-1014 570 OFFCURVE",
"-1014 344 CURVE SMOOTH",
"-1014 100 OFFCURVE",
"-892 -20 OFFCURVE",
"-648 -20 CURVE SMOOTH"
);
},
{
closed = 1;
nodes = (
"-26 0 LINE",
"-578 870 LINE SMOOTH",
"-626 946 OFFCURVE",
"-666 1026 OFFCURVE",
"-666 1100 CURVE SMOOTH",
"-666 1200 OFFCURVE",
"-614 1256 OFFCURVE",
"-526 1256 CURVE",
"-530 1440 LINE",
"-756 1440 OFFCURVE",
"-886 1316 OFFCURVE",
"-886 1102 CURVE SMOOTH",
"-886 1000 OFFCURVE",
"-814 870 OFFCURVE",
"-722 726 CURVE SMOOTH",
"-258 0 LINE"
);
},
{
closed = 1;
nodes = (
"736 -20 OFFCURVE",
"902 240 OFFCURVE",
"902 766 CURVE",
"720 766 LINE",
"720 358 OFFCURVE",
"612 154 OFFCURVE",
"396 154 CURVE SMOOTH",
"270 154 OFFCURVE",
"208 220 OFFCURVE",
"208 354 CURVE SMOOTH",
"208 492 OFFCURVE",
"276 578 OFFCURVE",
"416 616 CURVE",
"306 738 LINE",
"106 700 OFFCURVE",
"6 570 OFFCURVE",
"6 344 CURVE SMOOTH",
"6 100 OFFCURVE",
"128 -20 OFFCURVE",
"372 -20 CURVE SMOOTH"
);
},
{
closed = 1;
nodes = (
"-170 1122 LINE",
"-170 1324 OFFCURVE",
"-302 1440 OFFCURVE",
"-530 1440 CURVE",
"-526 1256 LINE",
"-436 1256 OFFCURVE",
"-384 1208 OFFCURVE",
"-384 1122 CURVE"
);
},
{
closed = 1;
nodes = (
"850 1122 LINE",
"850 1334 OFFCURVE",
"730 1440 OFFCURVE",
"490 1440 CURVE",
"494 1256 LINE",
"584 1256 OFFCURVE",
"636 1208 OFFCURVE",
"636 1122 CURVE"
);
}
);
width = 1200;
}
);
},
{
color = 3;
glyphname = bar_hyphen.liga;
lastChange = "2019-08-30 04:58:31 +0000";
layers = (
{
components = (
{
name = bar;
transform = "{-1, 0, 0, 1, -46, 0}";
}
);
layerId = "BBAB2DB2-7554-4FB8-925D-17003E4845F8";
paths = (
{
closed = 1;
nodes = (
"920 616 LINE",
"920 802 LINE",
"-720 802 LINE",
"-720 616 LINE"
);
}
);
width = 1200;
}
);
},
{
color = 3;
glyphname = bar_braceright.liga;
lastChange = "2019-08-30 04:58:31 +0000";
layers = (
{
components = (
{
name = bar;
transform = "{-1, 0, 0, 1, 0, 0}";
}
);
layerId = "BBAB2DB2-7554-4FB8-925D-17003E4845F8";
paths = (
{
closed = 1;
nodes = (
"522 -214 OFFCURVE",
"732 -52 OFFCURVE",
"732 226 CURVE SMOOTH",
"732 318 OFFCURVE",
"730 406 OFFCURVE",
"730 502 CURVE SMOOTH",
"730 614 OFFCURVE",
"878 646 OFFCURVE",
"960 646 CURVE",
"960 804 LINE",
"882 804 OFFCURVE",
"730 856 OFFCURVE",
"730 948 CURVE SMOOTH",
"730 1048 OFFCURVE",
"732 1132 OFFCURVE",
"732 1224 CURVE SMOOTH",
"732 1494 OFFCURVE",
"522 1646 OFFCURVE",
"160 1646 CURVE SMOOTH",
"42 1646 OFFCURVE",
"-34 1638 OFFCURVE",
"-100 1626 CURVE",
"-76 1456 LINE",
"4 1468 OFFCURVE",
"80 1476 OFFCURVE",
"142 1476 CURVE SMOOTH",
"386 1476 OFFCURVE",
"518 1384 OFFCURVE",
"518 1224 CURVE SMOOTH",
"518 1122 OFFCURVE",
"512 1034 OFFCURVE",
"512 932 CURVE SMOOTH",
"512 810 OFFCURVE",
"582 742 OFFCURVE",
"702 742 CURVE",
"702 708 LINE",
"582 708 OFFCURVE",
"512 636 OFFCURVE",
"512 518 CURVE SMOOTH",
"512 412 OFFCURVE",
"518 324 OFFCURVE",
"518 226 CURVE SMOOTH",
"518 54 OFFCURVE",
"386 -44 OFFCURVE",
"142 -44 CURVE SMOOTH",
"80 -44 OFFCURVE",
"4 -36 OFFCURVE",
"-76 -24 CURVE",
"-100 -194 LINE",
"-34 -206 OFFCURVE",
"42 -214 OFFCURVE",
"160 -214 CURVE SMOOTH"
);
},
{
closed = 1;
nodes = (
"746 668 LINE",
"746 784 LINE",
"694 784 LINE",
"694 668 LINE"
);
},
{
closed = 1;
nodes = (
"694 784 LINE",
"746 784 LINE",
"746 668 LINE",
"694 668 LINE"
);
}
);
width = 1200;
}
);
},
{
color = 3;
glyphname = bar_bracketright.liga;
lastChange = "2019-08-30 04:58:31 +0000";
layers = (
{
layerId = "BBAB2DB2-7554-4FB8-925D-17003E4845F8";
paths = (
{
closed = 1;
nodes = (
"654 -200 LINE",
"654 1620 LINE",
"452 1620 LINE",
"452 -200 LINE"
);
},
{
closed = 1;
nodes = (
"472 -200 LINE",
"472 -24 LINE",
"-114 -24 LINE",
"-114 -200 LINE"
);
},
{
closed = 1;
nodes = (
"-454 -200 LINE",
"-454 1620 LINE",
"-654 1620 LINE",
"-654 -200 LINE"
);
},
{
closed = 1;
nodes = (
"472 1444 LINE",
"472 1620 LINE",
"-114 1620 LINE",
"-114 1444 LINE"
);
}
);
width = 1200;
}
);
},
{
color = 9;
glyphname = bar_bar_bar_greater.liga;
lastChange = "2019-08-30 04:58:31 +0000";
layers = (
{
background = {
paths = (
{
closed = 1;
nodes = (
"701 608 LINE",
"701 810 LINE",
"-531 1317 LINE",
"-531 1092 LINE",
"443 718 LINE",
"443 700 LINE",
"-257 434 LINE",
"-257 214 LINE"
);
}
);
};
components = (
{
name = bar;
transform = "{1, 0, 0, 1, -3244, 0}";
},
{
name = bar;
transform = "{1, 0, 0, 1, -2244, 0}";
}
);
layerId = "BBAB2DB2-7554-4FB8-925D-17003E4845F8";
paths = (
{
closed = 1;
nodes = (
"700 608 LINE",
"700 810 LINE",
"-804 1430 LINE",
"-804 1190 LINE",
"442 718 LINE",
"442 700 LINE",
"-804 230 LINE",
"-804 -10 LINE"
);
},
{
closed = 1;
nodes = (
"-604 90 LINE",
"-604 1330 LINE",
"-804 1430 LINE",
"-804 -10 LINE"
);
}
);
width = 1200;
}
);
},
{
color = 4;
glyphname = bar_bar_equal.liga;
lastChange = "2019-08-30 04:58:31 +0000";
layers = (
{
background = {
components = (
{
name = bar;
transform = "{1, 0, 0, 1, 2400, 0}";
},
{
name = bar;
transform = "{1, 0, 0, 1, 2400, 0}";
},
{
name = equal;
transform = "{1, 0, 0, 1, 2400, 0}";
}
);
};
components = (
{
name = bar;
transform = "{-1, 0, 0, 1, -200, 0}";
},
{
name = bar;
transform = "{1, 0, 0, 1, -2180, 0}";
}
);
layerId = "BBAB2DB2-7554-4FB8-925D-17003E4845F8";
paths = (
{
closed = 1;
nodes = (
"920 866 LINE",
"920 1052 LINE",
"-760 1052 LINE",
"-760 866 LINE"
);
},
{
closed = 1;
nodes = (
"920 366 LINE",
"920 552 LINE",
"-760 552 LINE",
"-760 366 LINE"
);
}
);
width = 1200;
}
);
},
{
color = 4;
glyphname = bar_bar_greater.liga;
lastChange = "2019-08-30 04:58:31 +0000";
layers = (
{
background = {
components = (
{
name = greater;
transform = "{1, 0, 0, 1, 4574, 0}";
}
);
};
components = (
{
name = bar;
transform = "{-1, 0, 0, 1, -940, 0}";
}
);
layerId = "BBAB2DB2-7554-4FB8-925D-17003E4845F8";
paths = (
{
closed = 1;
nodes = (
"655 608 LINE",
"655 810 LINE",
"-849 1430 LINE",
"-849 1190 LINE",
"397 718 LINE",
"397 700 LINE",
"-849 230 LINE",
"-849 -10 LINE"
);
},
{
closed = 1;
nodes = (
"-649 90 LINE",
"-649 1330 LINE",
"-849 1430 LINE",
"-849 -10 LINE"
);
}
);
width = 1200;
}
);
},
{
color = 3;
glyphname = bar_equal.liga;
lastChange = "2019-08-30 04:58:31 +0000";
layers = (
{
components = (
{
name = bar;
transform = "{-1, 0, 0, 1, -46, 0}";
}
);
layerId = "BBAB2DB2-7554-4FB8-925D-17003E4845F8";
paths = (
{
closed = 1;
nodes = (
"920 866 LINE",
"920 1052 LINE",
"-680 1052 LINE",
"-680 866 LINE"
);
},
{
closed = 1;
nodes = (
"920 366 LINE",
"920 552 LINE",
"-680 552 LINE",
"-680 366 LINE"
);
}
);
width = 1200;
}
);
},
{
color = 3;
glyphname = bar_greater.liga;
lastChange = "2019-08-30 04:58:31 +0000";
layers = (
{
background = {
paths = (
{
closed = 1;
nodes = (
"3096 40 LINE",
"3100 1380 LINE",
"2900 1440 LINE",
"2900 -20 LINE"
);
},
{
closed = 1;
nodes = (
"3286 414 LINE",
"4046 700 LINE",
"4046 718 LINE",
"3286 1004 LINE",
"3286 1204 LINE",
"4244 810 LINE",
"4244 608 LINE",
"3286 214 LINE"
);
}
);
};
layerId = "BBAB2DB2-7554-4FB8-925D-17003E4845F8";
paths = (
{
closed = 1;
nodes = (
"845 608 LINE",
"845 810 LINE",
"-659 1430 LINE",
"-659 1190 LINE",
"587 718 LINE",
"587 700 LINE",
"-659 230 LINE",
"-659 -10 LINE"
);
},
{
closed = 1;
nodes = (
"-459 90 LINE",
"-459 1330 LINE",
"-659 1430 LINE",
"-659 -10 LINE"
);
}
);
width = 1200;
}
);
},
{
color = 3;
glyphname = dollar_greater.liga;
lastChange = "2019-08-30 04:58:31 +0000";
layers = (
{
layerId = "BBAB2DB2-7554-4FB8-925D-17003E4845F8";
paths = (
{
closed = 1;
nodes = (
"965 608 LINE",
"965 810 LINE",
"-502 1437 LINE",
"-502 1222 LINE",
"707 718 LINE",
"707 700 LINE",
"7 434 LINE",
"7 214 LINE"
);
},
{
closed = 1;
nodes = (
"-576 154 LINE",
"-706 154 OFFCURVE",
"-842 184 OFFCURVE",
"-988 242 CURVE",
"-1014 48 LINE",
"-894 -4 OFFCURVE",
"-754 -30 OFFCURVE",
"-592 -30 CURVE"
);
},
{
closed = 1;
nodes = (
"-458 -334 LINE",
"-458 1720 LINE",
"-596 1720 LINE",
"-596 -334 LINE"
);
},
{
closed = 1;
nodes = (
"-252 -30 OFFCURVE",
"-86 102 OFFCURVE",
"-86 366 CURVE SMOOTH",
"-86 560 OFFCURVE",
"-198 674 OFFCURVE",
"-408 772 CURVE SMOOTH",
"-616 870 LINE SMOOTH",
"-712 916 OFFCURVE",
"-762 968 OFFCURVE",
"-762 1060 CURVE SMOOTH",
"-762 1184 OFFCURVE",
"-676 1256 OFFCURVE",
"-526 1256 CURVE",
"-526 1440 LINE",
"-812 1440 OFFCURVE",
"-976 1298 OFFCURVE",
"-976 1050 CURVE SMOOTH",
"-976 866 OFFCURVE",
"-870 748 OFFCURVE",
"-676 660 CURVE SMOOTH",
"-430 548 LINE SMOOTH",
"-346 510 OFFCURVE",
"-300 450 OFFCURVE",
"-300 362 CURVE SMOOTH",
"-300 222 OFFCURVE",
"-390 154 OFFCURVE",
"-576 154 CURVE",
"-592 -30 LINE"
);
}
);
width = 1200;
}
);
},
{
color = 4;
glyphname = plus_plus_plus.liga;
lastChange = "2019-08-30 04:58:31 +0000";
layers = (
{
components = (
{
name = plus;
transform = "{1, 0, 0, 1, -2220, 0}";
},
{
name = plus;
transform = "{1, 0, 0, 1, -180, 0}";
},
{
name = plus;
transform = "{1, 0, 0, 1, -1200, 0}";
}
);
layerId = "BBAB2DB2-7554-4FB8-925D-17003E4845F8";
paths = (
{
closed = 1;
nodes = (
"286 616 LINE",
"286 802 LINE",
"-398 802 LINE",
"-398 616 LINE"
);
},
{
closed = 1;
nodes = (
"-754 616 LINE",
"-754 802 LINE",
"-1438 802 LINE",
"-1438 616 LINE"
);
}
);
width = 1200;
}
);
},
{
color = 3;
glyphname = equal_equal.liga;
lastChange = "2019-08-30 04:58:31 +0000";
layers = (
{
layerId = "BBAB2DB2-7554-4FB8-925D-17003E4845F8";
paths = (
{
closed = 1;
nodes = (
"920 866 LINE",
"920 1052 LINE",
"-920 1052 LINE",
"-920 866 LINE"
);
},
{
closed = 1;
nodes = (
"920 366 LINE",
"920 552 LINE",
"-920 552 LINE",
"-920 366 LINE"
);
}
);
width = 1200;
}
);
},
{
color = 4;
glyphname = equal_equal_equal.liga;
lastChange = "2019-08-30 04:58:31 +0000";
layers = (
{
layerId = "BBAB2DB2-7554-4FB8-925D-17003E4845F8";
paths = (
{
closed = 1;
nodes = (
"920 1026 LINE",
"920 1212 LINE",
"-2120 1212 LINE",
"-2120 1026 LINE"
);
},
{
closed = 1;
nodes = (
"920 206 LINE",
"920 392 LINE",
"-2120 392 LINE",
"-2120 206 LINE"
);
},
{
closed = 1;
nodes = (
"920 616 LINE",
"920 802 LINE",
"-2120 802 LINE",
"-2120 616 LINE"
);
}
);
width = 1200;
}
);
},
{
color = 4;
glyphname = equal_equal_greater.liga;
lastChange = "2019-08-30 04:58:31 +0000";
layers = (
{
background = {
components = (
{
name = equal;
transform = "{1, 0, 0, 1, 3600, 0}";
},
{
name = equal;
transform = "{1, 0, 0, 1, 3600, 0}";
},
{
name = greater;
transform = "{1, 0, 0, 1, 3600, 0}";
}
);
};
layerId = "BBAB2DB2-7554-4FB8-925D-17003E4845F8";
paths = (
{
closed = 1;
nodes = (
"960 648 LINE",
"960 770 LINE",
"6 1304 LINE",
"6 1084 LINE",
"210 1052 LINE",
"210 982 LINE",
"666 718 LINE",
"666 700 LINE",
"206 444 LINE",
"206 362 LINE",
"6 332 LINE",
"6 112 LINE"
);
},
{
closed = 1;
nodes = (
"420 386 LINE",
"680 572 LINE",
"-2120 572 LINE",
"-2120 386 LINE"
);
},
{
closed = 1;
nodes = (
"540 846 LINE",
"280 1032 LINE",
"-2120 1032 LINE",
"-2120 846 LINE"
);
}
);
width = 1200;
}
);
},
{
color = 3;
glyphname = equal_greater.liga;
lastChange = "2019-08-30 04:58:31 +0000";
layers = (
{
background = {
components = (
{
name = greater;
transform = "{1, 0, 0, 1, 2969, 0}";
}
);
};
layerId = "BBAB2DB2-7554-4FB8-925D-17003E4845F8";
paths = (
{
closed = 1;
nodes = (
"960 648 LINE",
"960 770 LINE",
"6 1304 LINE",
"6 1084 LINE",
"210 1052 LINE",
"210 982 LINE",
"666 718 LINE",
"666 700 LINE",
"206 444 LINE",
"206 362 LINE",
"6 332 LINE",
"6 112 LINE"
);
},
{
closed = 1;
nodes = (
"420 386 LINE",
"680 572 LINE",
"-920 572 LINE",
"-920 386 LINE"
);
},
{
closed = 1;
nodes = (
"540 846 LINE",
"280 1032 LINE",
"-920 1032 LINE",
"-920 846 LINE"
);
}
);
width = 1200;
}
);
},
